SplineFontDB: 3.2
FontName: FdSymbolD-Bold
FullName: FdSymbolD-Bold
FamilyName: FdSymbolD
Weight: Bold
Copyright: Copyright (c) 2012, Michael Ummels. This Font Software is licensed under the SIL Open Font License, Version 1.1.
Version: 1.008
ItalicAngle: 0
UnderlinePosition: -100
UnderlineWidth: 50
Ascent: 800
Descent: 200
InvalidEm: 0
LayerCount: 2
Layer: 0 0 "Back" 1
Layer: 1 0 "Fore" 0
OS2Version: 0
OS2_WeightWidthSlopeOnly: 0
OS2_UseTypoMetrics: 0
CreationTime: 1739777136
ModificationTime: 1739777136
OS2TypoAscent: 0
OS2TypoAOffset: 1
OS2TypoDescent: 0
OS2TypoDOffset: 1
OS2TypoLinegap: 0
OS2WinAscent: 0
OS2WinAOffset: 1
OS2WinDescent: 0
OS2WinDOffset: 1
HheadAscent: 0
HheadAOffset: 1
HheadDescent: 0
HheadDOffset: 1
OS2Vendor: 'PfEd'
DEI: 91125
Encoding: Custom
UnicodeInterp: none
NameList: AGL For New Fonts
DisplaySize: -48
AntiAlias: 1
FitToEm: 0
BeginPrivate: 2
BlueValues 31 [-10 0 546 556 707 717 754 764]
OtherBlues 11 [-230 -220]
EndPrivate
BeginChars: 256 232

StartChar: uni219B
Encoding: 0 8603 0
Width: 930
Flags: HW
HStem: 250 100<90 319 451 669>
LayerCount: 2
Fore
SplineSet
445 596 m 1
 530 566 l 1
 451 350 l 1
 669 350 l 1
 595 424 l 1
 666 495 l 1
 861 300 l 1
 666 105 l 1
 595 176 l 1
 669 250 l 1
 415 250 l 1
 325 4 l 1
 241 34 l 1
 319 250 l 1
 90 250 l 1
 90 350 l 1
 356 350 l 1
 445 596 l 1
EndSplineSet
EndChar

StartChar: uni21910338
Encoding: 1 -1 1
Width: 758
Flags: HW
VStem: 329 100<-75 154 287 504>
LayerCount: 2
Fore
SplineSet
113 76 m 1
 82 160 l 1
 329 250 l 1
 329 504 l 1
 255 430 l 1
 184 501 l 1
 379 696 l 1
 573 501 l 1
 503 430 l 1
 429 504 l 1
 429 287 l 1
 644 365 l 1
 675 280 l 1
 429 191 l 1
 429 -75 l 1
 329 -75 l 1
 329 154 l 1
 113 76 l 1
EndSplineSet
EndChar

StartChar: uni219A
Encoding: 2 8602 2
Width: 930
Flags: HW
HStem: 250 100<261 479 611 840>
LayerCount: 2
Fore
SplineSet
485 4 m 1
 400 34 l 1
 479 250 l 1
 261 250 l 1
 335 176 l 1
 264 105 l 1
 69 300 l 1
 264 495 l 1
 335 424 l 1
 261 350 l 1
 515 350 l 1
 605 596 l 1
 689 566 l 1
 611 350 l 1
 840 350 l 1
 840 250 l 1
 574 250 l 1
 485 4 l 1
EndSplineSet
EndChar

StartChar: uni21930338
Encoding: 3 -1 3
Width: 758
Flags: HW
VStem: 329 100<96 314 446 675>
LayerCount: 2
Fore
SplineSet
644 524 m 1
 675 440 l 1
 429 350 l 1
 429 96 l 1
 503 170 l 1
 573 99 l 1
 379 -96 l 1
 184 99 l 1
 255 170 l 1
 329 96 l 1
 329 314 l 1
 113 235 l 1
 82 320 l 1
 329 410 l 1
 329 675 l 1
 429 675 l 1
 429 446 l 1
 644 524 l 1
EndSplineSet
EndChar

StartChar: uni21970338
Encoding: 4 -1 4
Width: 1119
Flags: HW
HStem: -1 21G<310 350> 480 100<564 669>
VStem: 739 100<305 408>
LayerCount: 2
Fore
SplineSet
336 496 m 1
 417 534 l 1
 514 325 l 1
 669 480 l 1
 564 480 l 1
 564 580 l 1
 839 580 l 1
 839 305 l 1
 739 305 l 1
 739 408 l 1
 560 229 l 1
 670 -8 l 1
 589 -46 l 1
 492 161 l 1
 330 -1 l 1
 259 70 l 1
 447 258 l 1
 336 496 l 1
EndSplineSet
EndChar

StartChar: uni21960338
Encoding: 5 -1 5
Width: 1119
Flags: HW
HStem: -1 21G<769 809> 480 100<450 555>
VStem: 280 100<305 408>
LayerCount: 2
Fore
SplineSet
530 -46 m 1
 448 -8 l 1
 559 229 l 1
 380 408 l 1
 380 305 l 1
 280 305 l 1
 280 580 l 1
 555 580 l 1
 555 480 l 1
 450 480 l 1
 604 326 l 1
 701 534 l 1
 783 496 l 1
 672 258 l 1
 860 70 l 1
 789 -1 l 1
 627 161 l 1
 530 -46 l 1
EndSplineSet
EndChar

StartChar: uni21990338
Encoding: 6 -1 6
Width: 1119
Flags: HW
HStem: 20 100<450 555>
VStem: 280 100<192 295>
LayerCount: 2
Fore
SplineSet
783 104 m 1
 701 66 l 1
 604 274 l 1
 450 120 l 1
 555 120 l 1
 555 20 l 1
 280 20 l 1
 280 295 l 1
 380 295 l 1
 380 192 l 1
 559 371 l 1
 448 608 l 1
 530 646 l 1
 627 439 l 1
 789 601 l 1
 860 530 l 1
 672 342 l 1
 783 104 l 1
EndSplineSet
EndChar

StartChar: uni21980338
Encoding: 7 -1 7
Width: 1119
Flags: HW
HStem: 20 100<564 669>
VStem: 739 100<192 295>
LayerCount: 2
Fore
SplineSet
589 646 m 1
 670 608 l 1
 560 371 l 1
 739 192 l 1
 739 295 l 1
 839 295 l 1
 839 20 l 1
 564 20 l 1
 564 120 l 1
 669 120 l 1
 514 275 l 1
 417 66 l 1
 336 104 l 1
 447 342 l 1
 259 530 l 1
 330 601 l 1
 492 439 l 1
 589 646 l 1
EndSplineSet
EndChar

StartChar: uni21CF
Encoding: 8 8655 8
Width: 1080
Flags: HW
HStem: 150 100<90 278 411 721> 350 100<90 351 484 721>
LayerCount: 2
Fore
SplineSet
820 349 m 1
 447 350 l 1
 411 250 l 1
 820 251 l 1
 869 300 l 1
 820 349 l 1
464 660 m 1
 549 629 l 1
 484 449 l 1
 721 449 l 1
 698 472 l 1
 768 542 l 1
 1011 300 l 1
 768 58 l 1
 698 128 l 1
 721 151 l 1
 375 150 l 1
 298 -60 l 1
 213 -29 l 1
 278 150 l 1
 90 150 l 1
 90 250 l 1
 315 250 l 1
 351 350 l 1
 90 350 l 1
 90 450 l 1
 387 450 l 1
 464 660 l 1
EndSplineSet
EndChar

StartChar: uni21D10338
Encoding: 9 -1 9
Width: 885
Flags: HW
VStem: 293 100<-150 38 171 480> 492 100<-150 111 244 480>
LayerCount: 2
Fore
SplineSet
393 580 m 1
 393 171 l 1
 492 207 l 1
 492 579 l 1
 442 629 l 1
 393 580 l 1
113 -27 m 1
 82 58 l 1
 293 135 l 1
 293 480 l 1
 271 458 l 1
 200 528 l 1
 442 771 l 1
 685 528 l 1
 614 458 l 1
 592 480 l 1
 592 244 l 1
 772 309 l 1
 803 224 l 1
 592 147 l 1
 592 -150 l 1
 492 -150 l 1
 492 111 l 1
 393 75 l 1
 393 -150 l 1
 293 -150 l 1
 293 38 l 1
 113 -27 l 1
EndSplineSet
EndChar

StartChar: uni21CD
Encoding: 10 8653 10
Width: 1080
Flags: HW
HStem: 150 100<359 596 729 990> 350 100<359 669 802 990>
LayerCount: 2
Fore
SplineSet
260 251 m 1
 633 250 l 1
 669 350 l 1
 260 349 l 1
 211 300 l 1
 260 251 l 1
616 -60 m 1
 531 -29 l 1
 596 151 l 1
 359 151 l 1
 382 128 l 1
 312 58 l 1
 69 300 l 1
 312 542 l 1
 382 472 l 1
 359 449 l 1
 705 450 l 1
 782 660 l 1
 867 629 l 1
 802 450 l 1
 990 450 l 1
 990 350 l 1
 765 350 l 1
 729 250 l 1
 990 250 l 1
 990 150 l 1
 693 150 l 1
 616 -60 l 1
EndSplineSet
EndChar

StartChar: uni21D30338
Encoding: 11 -1 11
Width: 885
Flags: HW
VStem: 293 100<120 356 489 750> 492 100<120 429 562 750>
LayerCount: 2
Fore
SplineSet
492 21 m 1
 492 429 l 1
 393 393 l 1
 393 20 l 1
 442 -29 l 1
 492 21 l 1
772 627 m 1
 803 542 l 1
 592 465 l 1
 592 120 l 1
 614 142 l 1
 685 72 l 1
 442 -171 l 1
 200 72 l 1
 271 142 l 1
 293 120 l 1
 293 356 l 1
 113 291 l 1
 82 376 l 1
 293 453 l 1
 293 750 l 1
 393 750 l 1
 393 489 l 1
 492 525 l 1
 492 750 l 1
 592 750 l 1
 592 562 l 1
 772 627 l 1
EndSplineSet
EndChar

StartChar: uni21D70338
Encoding: 12 -1 12
Width: 1315
Flags: HW
HStem: 533 100<648 679 821 890>
VStem: 890 100<290 321 462 533>
LayerCount: 2
Fore
SplineSet
821 533 m 1
 557 269 l 1
 601 174 l 1
 890 462 l 1
 890 533 l 1
 821 533 l 1
349 501 m 1
 431 539 l 1
 512 366 l 1
 679 533 l 1
 648 533 l 1
 648 633 l 1
 990 633 l 1
 990 290 l 1
 890 290 l 1
 890 321 l 1
 646 77 l 1
 741 -126 l 1
 659 -164 l 1
 578 9 l 1
 445 -124 l 1
 374 -53 l 1
 533 106 l 1
 489 201 l 1
 304 17 l 1
 234 88 l 1
 444 298 l 1
 349 501 l 1
EndSplineSet
EndChar

StartChar: uni21D60338
Encoding: 13 -1 13
Width: 1315
Flags: HW
HStem: 533 100<425 494 636 667>
VStem: 325 100<290 321 462 533>
LayerCount: 2
Fore
SplineSet
425 462 m 1
 714 174 l 1
 758 269 l 1
 494 533 l 1
 425 533 l 1
 425 462 l 1
656 -164 m 1
 574 -126 l 1
 669 77 l 1
 425 321 l 1
 425 290 l 1
 325 290 l 1
 325 633 l 1
 667 633 l 1
 667 533 l 1
 636 533 l 1
 803 366 l 1
 884 539 l 1
 966 501 l 1
 871 298 l 1
 1081 88 l 1
 1011 17 l 1
 826 201 l 1
 782 106 l 1
 941 -53 l 1
 870 -124 l 1
 737 9 l 1
 656 -164 l 1
EndSplineSet
EndChar

StartChar: uni21D90338
Encoding: 14 -1 14
Width: 1315
Flags: HW
HStem: -33 100<425 494 636 667> 744 20G<612.842 665.364>
VStem: 325 100<67 138 279 310>
LayerCount: 2
Fore
SplineSet
494 67 m 1
 758 331 l 1
 714 426 l 1
 425 138 l 1
 425 67 l 1
 494 67 l 1
966 99 m 1
 884 61 l 1
 803 234 l 1
 636 67 l 1
 667 67 l 1
 667 -33 l 1
 325 -33 l 1
 325 310 l 1
 425 310 l 1
 425 279 l 1
 669 523 l 1
 574 726 l 1
 656 764 l 1
 737 591 l 1
 870 724 l 1
 941 653 l 1
 782 494 l 1
 826 399 l 1
 1011 583 l 1
 1081 512 l 1
 871 302 l 1
 966 99 l 1
EndSplineSet
EndChar

StartChar: uni21D80338
Encoding: 15 -1 15
Width: 1315
Flags: HW
HStem: -33 100<648 679 821 890> 744 20G<649.636 702.158>
VStem: 890 100<67 138 279 310>
LayerCount: 2
Fore
SplineSet
890 138 m 1
 601 426 l 1
 557 331 l 1
 821 67 l 1
 890 67 l 1
 890 138 l 1
659 764 m 1
 741 726 l 1
 646 523 l 1
 890 279 l 1
 890 310 l 1
 990 310 l 1
 990 -33 l 1
 648 -33 l 1
 648 67 l 1
 679 67 l 1
 512 234 l 1
 431 61 l 1
 349 99 l 1
 444 302 l 1
 234 512 l 1
 304 583 l 1
 489 399 l 1
 533 494 l 1
 374 653 l 1
 445 724 l 1
 578 591 l 1
 659 764 l 1
EndSplineSet
EndChar

StartChar: uni21AE
Encoding: 16 8622 16
Width: 1080
Flags: HW
HStem: 250 100<261 474 606 819>
LayerCount: 2
Fore
SplineSet
600 596 m 1
 685 566 l 1
 606 350 l 1
 819 350 l 1
 745 424 l 1
 816 495 l 1
 1011 300 l 1
 816 105 l 1
 745 176 l 1
 819 250 l 1
 570 250 l 1
 480 4 l 1
 395 34 l 1
 474 250 l 1
 261 250 l 1
 335 176 l 1
 264 105 l 1
 69 300 l 1
 264 495 l 1
 335 424 l 1
 261 350 l 1
 510 350 l 1
 600 596 l 1
EndSplineSet
EndChar

StartChar: uni21950338
Encoding: 17 -1 17
Width: 758
Flags: HW
VStem: 329 100<21 234 367 579>
LayerCount: 2
Fore
SplineSet
113 155 m 1
 82 240 l 1
 329 330 l 1
 329 579 l 1
 255 505 l 1
 184 576 l 1
 379 771 l 1
 573 576 l 1
 503 505 l 1
 429 579 l 1
 429 367 l 1
 644 445 l 1
 675 360 l 1
 429 270 l 1
 429 21 l 1
 503 95 l 1
 573 24 l 1
 379 -171 l 1
 184 24 l 1
 255 95 l 1
 329 21 l 1
 329 234 l 1
 113 155 l 1
EndSplineSet
EndChar

StartChar: uni29210338
Encoding: 18 -1 18
Width: 1225
Flags: HW
HStem: -33 100<450 555> 533 100<670 775>
VStem: 280 100<139 242> 845 100<358 461>
LayerCount: 2
Fore
SplineSet
445 552 m 1
 527 590 l 1
 624 382 l 1
 775 533 l 1
 670 533 l 1
 670 633 l 1
 945 633 l 1
 945 358 l 1
 845 358 l 1
 845 461 l 1
 669 286 l 1
 780 48 l 1
 698 10 l 1
 601 218 l 1
 450 67 l 1
 555 67 l 1
 555 -33 l 1
 280 -33 l 1
 280 242 l 1
 380 242 l 1
 380 139 l 1
 556 314 l 1
 445 552 l 1
EndSplineSet
EndChar

StartChar: uni29220338
Encoding: 19 -1 19
Width: 1225
Flags: HW
HStem: -33 100<670 775> 533 100<450 555>
VStem: 280 100<358 461> 845 100<139 242>
LayerCount: 2
Fore
SplineSet
527 10 m 1
 445 48 l 1
 556 286 l 1
 380 461 l 1
 380 358 l 1
 280 358 l 1
 280 633 l 1
 555 633 l 1
 555 533 l 1
 450 533 l 1
 601 382 l 1
 698 590 l 1
 780 552 l 1
 669 314 l 1
 845 139 l 1
 845 242 l 1
 945 242 l 1
 945 -33 l 1
 670 -33 l 1
 670 67 l 1
 775 67 l 1
 624 218 l 1
 527 10 l 1
EndSplineSet
EndChar

StartChar: uni21CE
Encoding: 20 8654 20
Width: 1230
Flags: HW
HStem: 151 100<359 513 645 871> 349 100<359 585 717 871>
LayerCount: 2
Fore
SplineSet
260 349 m 1
 211 300 l 1
 260 251 l 1
 549 251 l 1
 585 349 l 1
 260 349 l 1
970 349 m 1
 681 349 l 1
 645 251 l 1
 970 251 l 1
 1019 300 l 1
 970 349 l 1
698 660 m 1
 783 629 l 1
 717 449 l 1
 871 449 l 1
 848 472 l 1
 918 542 l 1
 1161 300 l 1
 918 58 l 1
 848 128 l 1
 871 151 l 1
 609 151 l 1
 532 -60 l 1
 447 -29 l 1
 513 151 l 1
 359 151 l 1
 382 128 l 1
 312 58 l 1
 69 300 l 1
 312 542 l 1
 382 472 l 1
 359 449 l 1
 621 449 l 1
 698 660 l 1
EndSplineSet
EndChar

StartChar: uni21D50338
Encoding: 21 -1 21
Width: 885
Flags: HW
VStem: 293 100<45 197 330 555> 492 100<45 270 403 555>
LayerCount: 2
Fore
SplineSet
393 -55 m 1
 442 -104 l 1
 492 -54 l 1
 492 270 l 1
 393 234 l 1
 393 -55 l 1
393 655 m 1
 393 330 l 1
 492 366 l 1
 492 654 l 1
 442 704 l 1
 393 655 l 1
113 132 m 1
 82 217 l 1
 293 294 l 1
 293 555 l 1
 271 533 l 1
 200 603 l 1
 442 846 l 1
 685 603 l 1
 614 533 l 1
 592 555 l 1
 592 403 l 1
 772 468 l 1
 803 383 l 1
 592 306 l 1
 592 45 l 1
 614 67 l 1
 685 -3 l 1
 442 -246 l 1
 200 -3 l 1
 271 67 l 1
 293 45 l 1
 293 197 l 1
 113 132 l 1
EndSplineSet
EndChar

StartChar: sym030_uni0338
Encoding: 22 -1 22
Width: 1421
Flags: HW
HStem: -86 100<425 495 636 667> 586 100<754 785 926 996>
VStem: 325 100<14 84 226 257> 996 100<343 374 516 586>
LayerCount: 2
Fore
SplineSet
425 84 m 1
 425 14 l 1
 495 14 l 1
 699 219 l 1
 655 314 l 1
 425 84 l 1
926 586 m 1
 722 381 l 1
 766 286 l 1
 996 516 l 1
 996 586 l 1
 926 586 l 1
515 614 m 1
 596 652 l 1
 677 478 l 1
 785 586 l 1
 754 586 l 1
 754 686 l 1
 1096 686 l 1
 1096 343 l 1
 996 343 l 1
 996 374 l 1
 811 189 l 1
 906 -14 l 1
 825 -52 l 1
 744 122 l 1
 636 14 l 1
 667 14 l 1
 667 -86 l 1
 325 -86 l 1
 325 257 l 1
 425 257 l 1
 425 226 l 1
 610 411 l 1
 515 614 l 1
EndSplineSet
EndChar

StartChar: sym031_uni0338
Encoding: 23 -1 23
Width: 1421
Flags: HW
HStem: -86 100<754 785 926 996> 586 100<425 495 636 667>
VStem: 325 100<343 374 516 586> 996 100<14 84 226 257>
LayerCount: 2
Fore
SplineSet
926 14 m 1
 996 14 l 1
 996 84 l 1
 766 314 l 1
 722 219 l 1
 926 14 l 1
425 516 m 1
 655 286 l 1
 699 381 l 1
 495 586 l 1
 425 586 l 1
 425 516 l 1
596 -52 m 1
 515 -14 l 1
 610 189 l 1
 425 374 l 1
 425 343 l 1
 325 343 l 1
 325 686 l 1
 667 686 l 1
 667 586 l 1
 636 586 l 1
 744 478 l 1
 825 652 l 1
 906 614 l 1
 811 411 l 1
 996 226 l 1
 996 257 l 1
 1096 257 l 1
 1096 -86 l 1
 754 -86 l 1
 754 14 l 1
 785 14 l 1
 677 122 l 1
 596 -52 l 1
EndSplineSet
EndChar

StartChar: uni21A00338
Encoding: 24 -1 24
Width: 1118
Flags: HW
HStem: 250 100<90 296 428 622 764 857>
LayerCount: 2
Fore
SplineSet
422 596 m 1
 507 566 l 1
 428 350 l 1
 622 350 l 1
 549 424 l 1
 619 495 l 1
 764 350 l 1
 857 350 l 1
 783 424 l 1
 854 495 l 1
 1048 300 l 1
 854 105 l 1
 783 176 l 1
 857 250 l 1
 764 250 l 1
 619 105 l 1
 549 176 l 1
 622 250 l 1
 392 250 l 1
 302 4 l 1
 217 34 l 1
 296 250 l 1
 90 250 l 1
 90 350 l 1
 332 350 l 1
 422 596 l 1
EndSplineSet
EndChar

StartChar: uni219F0338
Encoding: 25 -1 25
Width: 758
Flags: HW
VStem: 329 100<-169 37 170 364 505 598>
LayerCount: 2
Fore
SplineSet
113 -41 m 1
 82 43 l 1
 329 133 l 1
 329 364 l 1
 255 290 l 1
 184 361 l 1
 329 505 l 1
 329 598 l 1
 255 524 l 1
 184 595 l 1
 379 789 l 1
 573 595 l 1
 503 524 l 1
 429 598 l 1
 429 505 l 1
 573 361 l 1
 503 290 l 1
 429 364 l 1
 429 170 l 1
 644 248 l 1
 675 163 l 1
 429 74 l 1
 429 -169 l 1
 329 -169 l 1
 329 37 l 1
 113 -41 l 1
EndSplineSet
EndChar

StartChar: uni219E0338
Encoding: 26 -1 26
Width: 1118
Flags: HW
HStem: 250 100<261 354 495 690 822 1028>
LayerCount: 2
Fore
SplineSet
696 4 m 1
 611 34 l 1
 690 250 l 1
 495 250 l 1
 569 176 l 1
 498 105 l 1
 354 250 l 1
 261 250 l 1
 335 176 l 1
 264 105 l 1
 69 300 l 1
 264 495 l 1
 335 424 l 1
 261 350 l 1
 354 350 l 1
 498 495 l 1
 569 424 l 1
 495 350 l 1
 726 350 l 1
 816 596 l 1
 900 566 l 1
 822 350 l 1
 1028 350 l 1
 1028 250 l 1
 785 250 l 1
 696 4 l 1
EndSplineSet
EndChar

StartChar: uni21A10338
Encoding: 27 -1 27
Width: 758
Flags: HW
VStem: 329 100<2 95 236 431 563 769>
LayerCount: 2
Fore
SplineSet
644 641 m 1
 675 557 l 1
 429 467 l 1
 429 236 l 1
 503 310 l 1
 573 239 l 1
 429 95 l 1
 429 2 l 1
 503 76 l 1
 573 5 l 1
 379 -189 l 1
 184 5 l 1
 255 76 l 1
 329 2 l 1
 329 95 l 1
 184 239 l 1
 255 310 l 1
 329 236 l 1
 329 431 l 1
 113 352 l 1
 82 437 l 1
 329 527 l 1
 329 769 l 1
 429 769 l 1
 429 563 l 1
 644 641 l 1
EndSplineSet
EndChar

StartChar: sym033_uni0338
Encoding: 28 -1 28
Width: 1251
Flags: HW
HStem: 380 100<531 635> 546 100<697 801>
VStem: 706 100<205 310> 872 100<371 476>
LayerCount: 2
Fore
SplineSet
319 413 m 1
 401 451 l 1
 498 243 l 1
 635 380 l 1
 531 380 l 1
 531 480 l 1
 735 480 l 1
 801 546 l 1
 697 546 l 1
 697 646 l 1
 972 646 l 1
 972 371 l 1
 872 371 l 1
 872 476 l 1
 806 410 l 1
 806 205 l 1
 706 205 l 1
 706 310 l 1
 543 146 l 1
 654 -91 l 1
 572 -129 l 1
 475 78 l 1
 330 -67 l 1
 259 4 l 1
 430 175 l 1
 319 413 l 1
EndSplineSet
EndChar

StartChar: sym032_uni0338
Encoding: 29 -1 29
Width: 1251
Flags: HW
HStem: 380 100<616 720> 546 100<450 555>
VStem: 280 100<371 475> 445 100<205 310>
LayerCount: 2
Fore
SplineSet
679 -129 m 1
 598 -91 l 1
 708 147 l 1
 545 310 l 1
 545 205 l 1
 445 205 l 1
 445 410 l 1
 380 475 l 1
 380 371 l 1
 280 371 l 1
 280 646 l 1
 555 646 l 1
 555 546 l 1
 450 546 l 1
 516 480 l 1
 720 480 l 1
 720 380 l 1
 616 380 l 1
 753 243 l 1
 850 451 l 1
 932 413 l 1
 821 175 l 1
 992 4 l 1
 922 -67 l 1
 776 79 l 1
 679 -129 l 1
EndSplineSet
EndChar

StartChar: sym035_uni0338
Encoding: 30 -1 30
Width: 1251
Flags: HW
HStem: -46 100<450 555> 120 100<616 720>
VStem: 280 100<125 229> 445 100<290 395>
LayerCount: 2
Fore
SplineSet
932 187 m 1
 850 149 l 1
 753 357 l 1
 616 220 l 1
 720 220 l 1
 720 120 l 1
 516 120 l 1
 450 54 l 1
 555 54 l 1
 555 -46 l 1
 280 -46 l 1
 280 229 l 1
 380 229 l 1
 380 125 l 1
 445 190 l 1
 445 395 l 1
 545 395 l 1
 545 290 l 1
 708 453 l 1
 598 691 l 1
 679 729 l 1
 776 521 l 1
 922 667 l 1
 992 596 l 1
 821 425 l 1
 932 187 l 1
EndSplineSet
EndChar

StartChar: sym034_uni0338
Encoding: 31 -1 31
Width: 1251
Flags: HW
HStem: -46 100<697 801> 120 100<531 635>
VStem: 706 100<290 395> 872 100<124 229>
LayerCount: 2
Fore
SplineSet
572 729 m 1
 654 691 l 1
 543 454 l 1
 706 290 l 1
 706 395 l 1
 806 395 l 1
 806 190 l 1
 872 124 l 1
 872 229 l 1
 972 229 l 1
 972 -46 l 1
 697 -46 l 1
 697 54 l 1
 801 54 l 1
 735 120 l 1
 531 120 l 1
 531 220 l 1
 635 220 l 1
 498 357 l 1
 401 149 l 1
 319 187 l 1
 430 425 l 1
 259 596 l 1
 330 667 l 1
 475 522 l 1
 572 729 l 1
EndSplineSet
EndChar

StartChar: uni21A30338
Encoding: 32 -1 32
Width: 930
Flags: HW
HStem: 250 100<320 399 531 669>
LayerCount: 2
Fore
SplineSet
525 596 m 1
 610 566 l 1
 531 350 l 1
 669 350 l 1
 595 424 l 1
 666 495 l 1
 861 300 l 1
 666 105 l 1
 595 176 l 1
 669 250 l 1
 495 250 l 1
 405 4 l 1
 320 34 l 1
 399 250 l 1
 320 250 l 1
 175 105 l 1
 105 176 l 1
 228 300 l 1
 105 424 l 1
 175 495 l 1
 320 350 l 1
 435 350 l 1
 525 596 l 1
EndSplineSet
EndChar

StartChar: sym036_uni0338
Encoding: 33 -1 33
Width: 758
Flags: HW
VStem: 329 100<155 234 367 504>
LayerCount: 2
Fore
SplineSet
113 155 m 1
 82 240 l 1
 329 330 l 1
 329 504 l 1
 255 430 l 1
 184 501 l 1
 379 696 l 1
 573 501 l 1
 503 430 l 1
 429 504 l 1
 429 367 l 1
 644 445 l 1
 675 360 l 1
 429 270 l 1
 429 155 l 1
 573 10 l 1
 503 -60 l 1
 379 63 l 1
 255 -60 l 1
 184 10 l 1
 329 155 l 1
 329 234 l 1
 113 155 l 1
EndSplineSet
EndChar

StartChar: uni21A20338
Encoding: 34 -1 34
Width: 930
Flags: HW
HStem: 250 100<261 399 531 610>
LayerCount: 2
Fore
SplineSet
405 4 m 1
 320 34 l 1
 399 250 l 1
 261 250 l 1
 335 176 l 1
 264 105 l 1
 69 300 l 1
 264 495 l 1
 335 424 l 1
 261 350 l 1
 435 350 l 1
 525 596 l 1
 610 566 l 1
 531 350 l 1
 610 350 l 1
 755 495 l 1
 825 424 l 1
 702 300 l 1
 825 176 l 1
 755 105 l 1
 610 250 l 1
 495 250 l 1
 405 4 l 1
EndSplineSet
EndChar

StartChar: sym037_uni0338
Encoding: 35 -1 35
Width: 758
Flags: HW
VStem: 329 100<96 234 367 445>
LayerCount: 2
Fore
SplineSet
644 445 m 1
 675 360 l 1
 429 270 l 1
 429 96 l 1
 503 170 l 1
 573 99 l 1
 379 -96 l 1
 184 99 l 1
 255 170 l 1
 329 96 l 1
 329 234 l 1
 113 155 l 1
 82 240 l 1
 329 330 l 1
 329 445 l 1
 184 590 l 1
 255 660 l 1
 379 537 l 1
 503 660 l 1
 573 590 l 1
 429 445 l 1
 429 367 l 1
 644 445 l 1
EndSplineSet
EndChar

StartChar: sym039_uni0338
Encoding: 36 -1 36
Width: 1119
Flags: HW
HStem: 133 100<217 392> 480 100<564 669>
VStem: 392 100<-42 133> 739 100<305 408>
LayerCount: 2
Fore
SplineSet
392 552 m 1
 474 590 l 1
 571 382 l 1
 669 480 l 1
 564 480 l 1
 564 580 l 1
 839 580 l 1
 839 305 l 1
 739 305 l 1
 739 408 l 1
 616 286 l 1
 727 48 l 1
 645 10 l 1
 548 218 l 1
 492 162 l 1
 492 -42 l 1
 392 -42 l 1
 392 133 l 1
 217 133 l 1
 217 233 l 1
 422 233 l 1
 503 314 l 1
 392 552 l 1
EndSplineSet
EndChar

StartChar: sym038_uni0338
Encoding: 37 -1 37
Width: 1119
Flags: HW
HStem: 133 100<727 902> 480 100<450 555>
VStem: 280 100<305 408> 627 100<-42 133>
LayerCount: 2
Fore
SplineSet
474 10 m 1
 392 48 l 1
 503 285 l 1
 380 408 l 1
 380 305 l 1
 280 305 l 1
 280 580 l 1
 555 580 l 1
 555 480 l 1
 450 480 l 1
 548 382 l 1
 645 590 l 1
 727 552 l 1
 616 314 l 1
 697 233 l 1
 902 233 l 1
 902 133 l 1
 727 133 l 1
 727 -42 l 1
 627 -42 l 1
 627 161 l 1
 571 217 l 1
 474 10 l 1
EndSplineSet
EndChar

StartChar: sym03B_uni0338
Encoding: 38 -1 38
Width: 1119
Flags: HW
HStem: 20 100<450 555> 367 100<727 902>
VStem: 280 100<192 295> 627 100<467 642>
LayerCount: 2
Fore
SplineSet
727 48 m 1
 645 10 l 1
 548 218 l 1
 450 120 l 1
 555 120 l 1
 555 20 l 1
 280 20 l 1
 280 295 l 1
 380 295 l 1
 380 192 l 1
 503 315 l 1
 392 552 l 1
 474 590 l 1
 571 383 l 1
 627 439 l 1
 627 642 l 1
 727 642 l 1
 727 467 l 1
 902 467 l 1
 902 367 l 1
 697 367 l 1
 616 286 l 1
 727 48 l 1
EndSplineSet
EndChar

StartChar: sym03A_uni0338
Encoding: 39 -1 39
Width: 1119
Flags: HW
HStem: 20 100<564 669> 367 100<217 392>
VStem: 392 100<467 642> 739 100<192 295>
LayerCount: 2
Fore
SplineSet
645 590 m 1
 727 552 l 1
 616 314 l 1
 739 192 l 1
 739 295 l 1
 839 295 l 1
 839 20 l 1
 564 20 l 1
 564 120 l 1
 669 120 l 1
 571 218 l 1
 474 10 l 1
 392 48 l 1
 503 286 l 1
 422 367 l 1
 217 367 l 1
 217 467 l 1
 392 467 l 1
 392 642 l 1
 492 642 l 1
 492 438 l 1
 548 382 l 1
 645 590 l 1
EndSplineSet
EndChar

StartChar: uni21A60338
Encoding: 40 -1 40
Width: 930
Flags: HW
HStem: 250 100<190 319 451 669>
VStem: 90 100<91 250 350 509>
LayerCount: 2
Fore
SplineSet
445 596 m 1
 530 566 l 1
 451 350 l 1
 669 350 l 1
 595 424 l 1
 666 495 l 1
 861 300 l 1
 666 105 l 1
 595 176 l 1
 669 250 l 1
 415 250 l 1
 325 4 l 1
 241 34 l 1
 319 250 l 1
 190 250 l 1
 190 91 l 1
 90 91 l 1
 90 509 l 1
 190 509 l 1
 190 350 l 1
 356 350 l 1
 445 596 l 1
EndSplineSet
EndChar

StartChar: uni21A50338
Encoding: 41 -1 41
Width: 758
Flags: HW
HStem: -75 100<170 329 429 588>
VStem: 329 100<25 154 287 504>
LayerCount: 2
Fore
SplineSet
113 76 m 1
 82 160 l 1
 329 250 l 1
 329 504 l 1
 255 430 l 1
 184 501 l 1
 379 696 l 1
 573 501 l 1
 503 430 l 1
 429 504 l 1
 429 287 l 1
 644 365 l 1
 675 280 l 1
 429 191 l 1
 429 25 l 1
 588 25 l 1
 588 -75 l 1
 170 -75 l 1
 170 25 l 1
 329 25 l 1
 329 154 l 1
 113 76 l 1
EndSplineSet
EndChar

StartChar: uni21A40338
Encoding: 42 -1 42
Width: 930
Flags: HW
HStem: 250 100<261 479 611 740>
VStem: 740 100<91 250 350 509>
LayerCount: 2
Fore
SplineSet
485 4 m 1
 400 34 l 1
 479 250 l 1
 261 250 l 1
 335 176 l 1
 264 105 l 1
 69 300 l 1
 264 495 l 1
 335 424 l 1
 261 350 l 1
 515 350 l 1
 605 596 l 1
 689 566 l 1
 611 350 l 1
 740 350 l 1
 740 509 l 1
 840 509 l 1
 840 91 l 1
 740 91 l 1
 740 250 l 1
 574 250 l 1
 485 4 l 1
EndSplineSet
EndChar

StartChar: uni21A70338
Encoding: 43 -1 43
Width: 758
Flags: HW
HStem: 575 100<170 329 429 588>
VStem: 329 100<96 314 446 575>
LayerCount: 2
Fore
SplineSet
644 524 m 1
 675 440 l 1
 429 350 l 1
 429 96 l 1
 503 170 l 1
 573 99 l 1
 379 -96 l 1
 184 99 l 1
 255 170 l 1
 329 96 l 1
 329 314 l 1
 113 235 l 1
 82 320 l 1
 329 410 l 1
 329 575 l 1
 170 575 l 1
 170 675 l 1
 588 675 l 1
 588 575 l 1
 429 575 l 1
 429 446 l 1
 644 524 l 1
EndSplineSet
EndChar

StartChar: uni29070338
Encoding: 44 -1 44
Width: 1080
Flags: HW
HStem: 150 100<190 358 490 721> 349 100<190 431 563 721> 537 20G<90 190>
VStem: 90 100<43 150 250 350 450 557>
LayerCount: 2
Fore
SplineSet
820 349 m 1
 526 349 l 1
 490 251 l 1
 820 251 l 1
 869 300 l 1
 820 349 l 1
190 350 m 1
 190 250 l 1
 395 250 l 1
 431 350 l 1
 190 350 l 1
544 660 m 1
 628 629 l 1
 563 449 l 1
 721 449 l 1
 698 472 l 1
 768 542 l 1
 1011 300 l 1
 768 58 l 1
 698 128 l 1
 721 151 l 1
 454 150 l 1
 377 -60 l 1
 293 -29 l 1
 358 150 l 1
 190 150 l 1
 190 43 l 1
 90 43 l 1
 90 557 l 1
 190 557 l 1
 190 450 l 1
 467 449 l 1
 544 660 l 1
EndSplineSet
EndChar

StartChar: sym03C_uni0338
Encoding: 45 -1 45
Width: 885
Flags: HW
HStem: -150 100<186 293 393 492 592 699>
VStem: 293 100<-50 118 250 480> 492 100<-50 191 323 480>
LayerCount: 2
Fore
SplineSet
393 580 m 1
 393 250 l 1
 492 286 l 1
 492 579 l 1
 442 629 l 1
 393 580 l 1
393 -50 m 1
 492 -50 l 1
 492 191 l 1
 393 155 l 1
 393 -50 l 1
113 53 m 1
 82 137 l 1
 293 214 l 1
 293 480 l 1
 271 458 l 1
 200 528 l 1
 442 771 l 1
 685 528 l 1
 614 458 l 1
 592 480 l 1
 592 323 l 1
 772 388 l 1
 803 304 l 1
 592 227 l 1
 592 -50 l 1
 699 -50 l 1
 699 -150 l 1
 186 -150 l 1
 186 -50 l 1
 293 -50 l 1
 293 118 l 1
 113 53 l 1
EndSplineSet
EndChar

StartChar: uni29060338
Encoding: 46 -1 46
Width: 1080
Flags: HW
HStem: 151 100<359 517 649 890> 349 101<359 590 722 890> 537 20G<890 990>
VStem: 890 100<43 150 250 350 450 557>
LayerCount: 2
Fore
SplineSet
260 251 m 1
 554 251 l 1
 590 349 l 1
 260 349 l 1
 211 300 l 1
 260 251 l 1
890 250 m 1
 890 350 l 1
 685 350 l 1
 649 250 l 1
 890 250 l 1
536 -60 m 1
 452 -29 l 1
 517 151 l 1
 359 151 l 1
 382 128 l 1
 312 58 l 1
 69 300 l 1
 312 542 l 1
 382 472 l 1
 359 449 l 1
 626 450 l 1
 703 660 l 1
 787 629 l 1
 722 450 l 1
 890 450 l 1
 890 557 l 1
 990 557 l 1
 990 43 l 1
 890 43 l 1
 890 150 l 1
 613 151 l 1
 536 -60 l 1
EndSplineSet
EndChar

StartChar: sym03D_uni0338
Encoding: 47 -1 47
Width: 885
Flags: HW
HStem: 527 20G<716.615 779.381> 650 100<186 293 393 492 592 699>
VStem: 293 100<120 277 409 650> 492 100<120 350 482 650>
LayerCount: 2
Fore
SplineSet
492 21 m 1
 492 350 l 1
 393 314 l 1
 393 20 l 1
 442 -29 l 1
 492 21 l 1
492 650 m 1
 393 650 l 1
 393 409 l 1
 492 445 l 1
 492 650 l 1
772 547 m 1
 803 463 l 1
 592 386 l 1
 592 120 l 1
 614 142 l 1
 685 72 l 1
 442 -171 l 1
 200 72 l 1
 271 142 l 1
 293 120 l 1
 293 277 l 1
 113 212 l 1
 82 296 l 1
 293 373 l 1
 293 650 l 1
 186 650 l 1
 186 750 l 1
 699 750 l 1
 699 650 l 1
 592 650 l 1
 592 482 l 1
 772 547 l 1
EndSplineSet
EndChar

StartChar: uni21AA0338
Encoding: 48 -1 48
Width: 930
Flags: HW
HStem: 250 100<193.742 319 451 669> 409 100<193.742 270>
VStem: 90 100<352.424 406.913>
LayerCount: 2
Fore
SplineSet
445 596 m 1
 530 566 l 1
 451 350 l 1
 669 350 l 1
 595 424 l 1
 666 495 l 1
 861 300 l 1
 666 105 l 1
 595 176 l 1
 669 250 l 1
 415 250 l 1
 325 4 l 1
 241 34 l 1
 319 250 l 1
 220 250 l 2
 148 250 90 308 90 380 c 0
 90 451 148 509 220 509 c 2
 270 509 l 1
 270 409 l 1
 220 409 l 2
 203 409 190 396 190 380 c 0
 190 363 203 350 220 350 c 2
 356 350 l 1
 445 596 l 1
EndSplineSet
EndChar

StartChar: sym03E_uni0338
Encoding: 49 -1 49
Width: 758
Flags: HW
HStem: -75 100<272.087 326.576>
VStem: 170 100<28.7422 97> 329 100<28.7422 154 287 504>
LayerCount: 2
Fore
SplineSet
270 105 m 1
 270 55 l 2
 270 38 283 25 299 25 c 0
 316 25 329 38 329 55 c 2
 329 154 l 1
 193 105 l 1
 270 105 l 1
113 76 m 1
 82 160 l 1
 329 250 l 1
 329 504 l 1
 255 430 l 1
 184 501 l 1
 379 696 l 1
 573 501 l 1
 503 430 l 1
 429 504 l 1
 429 287 l 1
 644 365 l 1
 675 280 l 1
 429 191 l 1
 429 55 l 2
 429 -17 371 -75 299 -75 c 0
 228 -75 170 -17 170 55 c 2
 170 97 l 1
 113 76 l 1
EndSplineSet
EndChar

StartChar: uni21A90338.alt
Encoding: 50 -1 50
Width: 930
Flags: HW
HStem: 91 100<660 736.258> 250 100<261 479 611 736.258>
VStem: 740 100<193.087 247.576>
LayerCount: 2
Fore
SplineSet
485 4 m 1
 400 34 l 1
 479 250 l 1
 261 250 l 1
 335 176 l 1
 264 105 l 1
 69 300 l 1
 264 495 l 1
 335 424 l 1
 261 350 l 1
 515 350 l 1
 605 596 l 1
 689 566 l 1
 611 350 l 1
 710 350 l 2
 782 350 840 292 840 220 c 0
 840 149 782 91 710 91 c 2
 660 91 l 1
 660 191 l 1
 710 191 l 2
 727 191 740 204 740 220 c 0
 740 237 727 250 710 250 c 2
 574 250 l 1
 485 4 l 1
EndSplineSet
EndChar

StartChar: sym03F_uni0338.alt
Encoding: 51 -1 51
Width: 758
Flags: HW
HStem: 575 100<431.087 485.576>
VStem: 329 100<96 314 446 571.258> 488 100<504 571.258>
LayerCount: 2
Fore
SplineSet
488 495 m 1
 488 545 l 2
 488 562 475 575 458 575 c 0
 442 575 429 562 429 545 c 2
 429 446 l 1
 564 495 l 1
 488 495 l 1
644 524 m 1
 675 440 l 1
 429 350 l 1
 429 96 l 1
 503 170 l 1
 573 99 l 1
 379 -96 l 1
 184 99 l 1
 255 170 l 1
 329 96 l 1
 329 314 l 1
 113 235 l 1
 82 320 l 1
 329 410 l 1
 329 545 l 2
 329 617 387 675 458 675 c 0
 530 675 588 617 588 545 c 2
 588 504 l 1
 644 524 l 1
EndSplineSet
EndChar

StartChar: uni29240338.alt
Encoding: 52 -1 52
Width: 1119
Flags: HW
HStem: 54 99<302.461 363.353> 480 100<564 669>
VStem: 200 100<155.626 216.642> 739 100<305 408>
LayerCount: 2
Fore
SplineSet
300 183 m 0
 300 167 314 153 330 153 c 0
 338 153 345 156 351 162 c 2
 447 258 l 1
 336 496 l 1
 417 534 l 1
 514 325 l 1
 669 480 l 1
 564 480 l 1
 564 580 l 1
 839 580 l 1
 839 305 l 1
 739 305 l 1
 739 408 l 1
 559 229 l 1
 670 -8 l 1
 589 -46 l 1
 492 162 l 1
 421 91 l 2
 396 66 363 54 330 54 c 0
 258 54 200 112 200 183 c 0
 200 216 212 249 238 274 c 2
 273 310 l 1
 344 239 l 1
 309 204 l 2
 303 198 300 191 300 183 c 0
EndSplineSet
EndChar

StartChar: uni29230338
Encoding: 53 -1 53
Width: 1119
Flags: HW
HStem: -59 100<642.877 704.038> 480 100<450 555>
VStem: 280 100<305 408> 706 100<42.9622 104.03>
LayerCount: 2
Fore
SplineSet
677 41 m 0
 694 41 706 53 706 70 c 0
 706 78 704 85 698 91 c 2
 627 162 l 1
 565 29 l 1
 620 85 l 1
 656 49 l 2
 662 43 669 41 677 41 c 0
806 70 m 0
 806 -1 748 -59 677 -59 c 0
 644 -59 611 -47 585 -21 c 2
 555 9 l 1
 530 -46 l 1
 448 -8 l 1
 559 230 l 1
 380 408 l 1
 380 305 l 1
 280 305 l 1
 280 580 l 1
 555 580 l 1
 555 480 l 1
 450 480 l 1
 604 326 l 1
 701 534 l 1
 783 496 l 1
 672 258 l 1
 768 162 l 2
 794 136 806 103 806 70 c 0
EndSplineSet
EndChar

StartChar: uni29260338.alt
Encoding: 54 -1 54
Width: 1119
Flags: HW
HStem: 20 100<450 555> 447 99<755.647 816.518>
VStem: 280 100<192 295> 819 99<383.358 444.518>
LayerCount: 2
Fore
SplineSet
819 417 m 0
 819 433 805 447 789 447 c 0
 781 447 774 444 768 438 c 2
 672 342 l 1
 783 104 l 1
 701 66 l 1
 604 274 l 1
 450 120 l 1
 555 120 l 1
 555 20 l 1
 280 20 l 1
 280 295 l 1
 380 295 l 1
 380 192 l 1
 559 370 l 1
 448 608 l 1
 530 646 l 1
 627 438 l 1
 698 509 l 2
 723 534 756 546 789 546 c 0
 861 546 918 489 918 417 c 0
 918 384 906 351 881 326 c 2
 845 290 l 1
 775 361 l 1
 810 396 l 2
 816 402 819 409 819 417 c 0
EndSplineSet
EndChar

StartChar: uni29250338
Encoding: 55 -1 55
Width: 1119
Flags: HW
HStem: 20 100<564 669> 559 100<414.962 475.936>
VStem: 313 100<495.97 557.038> 739 100<192 295>
LayerCount: 2
Fore
SplineSet
442 559 m 0
 425 559 413 547 413 530 c 0
 413 522 415 515 421 509 c 2
 492 438 l 1
 554 571 l 1
 498 515 l 1
 463 551 l 2
 457 557 450 559 442 559 c 0
313 530 m 0
 313 601 371 659 442 659 c 0
 475 659 508 647 534 621 c 2
 564 591 l 1
 589 646 l 1
 670 608 l 1
 559 371 l 1
 739 192 l 1
 739 295 l 1
 839 295 l 1
 839 20 l 1
 564 20 l 1
 564 120 l 1
 669 120 l 1
 514 275 l 1
 417 66 l 1
 336 104 l 1
 447 342 l 1
 351 438 l 2
 325 464 313 497 313 530 c 0
EndSplineSet
EndChar

StartChar: uni21AA0338.alt
Encoding: 56 -1 56
Width: 930
Flags: HW
HStem: 91 100<193.742 262> 250 100<193.742 319 451 669>
VStem: 90 100<193.087 247.576>
LayerCount: 2
Fore
SplineSet
270 114 m 1
 319 250 l 1
 220 250 l 2
 203 250 190 237 190 220 c 0
 190 204 203 191 220 191 c 2
 270 191 l 1
 270 114 l 1
445 596 m 1
 530 566 l 1
 451 350 l 1
 669 350 l 1
 595 424 l 1
 666 495 l 1
 861 300 l 1
 666 105 l 1
 595 176 l 1
 669 250 l 1
 415 250 l 1
 325 4 l 1
 241 34 l 1
 262 91 l 1
 220 91 l 2
 148 91 90 149 90 220 c 0
 90 292 148 350 220 350 c 2
 356 350 l 1
 445 596 l 1
EndSplineSet
EndChar

StartChar: sym03E_uni0338.alt
Encoding: 57 -1 57
Width: 758
Flags: HW
HStem: -75 100<431.087 485.576>
VStem: 329 100<28.7422 154 287 504> 488 100<28.7422 105>
LayerCount: 2
Fore
SplineSet
113 76 m 1
 82 160 l 1
 329 250 l 1
 329 504 l 1
 255 430 l 1
 184 501 l 1
 379 696 l 1
 573 501 l 1
 503 430 l 1
 429 504 l 1
 429 287 l 1
 644 365 l 1
 675 280 l 1
 429 191 l 1
 429 55 l 2
 429 38 442 25 458 25 c 0
 475 25 488 38 488 55 c 2
 488 105 l 1
 588 105 l 1
 588 55 l 2
 588 -17 530 -75 458 -75 c 0
 387 -75 329 -17 329 55 c 2
 329 154 l 1
 113 76 l 1
EndSplineSet
EndChar

StartChar: uni21A90338
Encoding: 58 -1 58
Width: 930
Flags: HW
HStem: 250 100<261 479 611 736.258> 409 100<668 736.258>
VStem: 740 100<352.424 406.913>
LayerCount: 2
Fore
SplineSet
660 486 m 1
 611 350 l 1
 710 350 l 2
 727 350 740 363 740 380 c 0
 740 396 727 409 710 409 c 2
 660 409 l 1
 660 486 l 1
485 4 m 1
 400 34 l 1
 479 250 l 1
 261 250 l 1
 335 176 l 1
 264 105 l 1
 69 300 l 1
 264 495 l 1
 335 424 l 1
 261 350 l 1
 515 350 l 1
 605 596 l 1
 689 566 l 1
 668 509 l 1
 710 509 l 2
 782 509 840 451 840 380 c 0
 840 308 782 250 710 250 c 2
 574 250 l 1
 485 4 l 1
EndSplineSet
EndChar

StartChar: sym03F_uni0338
Encoding: 59 -1 59
Width: 758
Flags: HW
HStem: 575 100<272.087 326.576>
VStem: 170 100<495 571.258> 329 100<96 314 446 571.258>
LayerCount: 2
Fore
SplineSet
644 524 m 1
 675 440 l 1
 429 350 l 1
 429 96 l 1
 503 170 l 1
 573 99 l 1
 379 -96 l 1
 184 99 l 1
 255 170 l 1
 329 96 l 1
 329 314 l 1
 113 235 l 1
 82 320 l 1
 329 410 l 1
 329 545 l 2
 329 562 316 575 299 575 c 0
 283 575 270 562 270 545 c 2
 270 495 l 1
 170 495 l 1
 170 545 l 2
 170 617 228 675 299 675 c 0
 371 675 429 617 429 545 c 2
 429 446 l 1
 644 524 l 1
EndSplineSet
EndChar

StartChar: uni29240338
Encoding: 60 -1 60
Width: 1119
Flags: HW
HStem: -59 100<414.962 475.936> 480 100<564 669>
VStem: 313 100<42.9622 104.03> 739 100<305 408>
LayerCount: 2
Fore
SplineSet
413 70 m 0
 413 53 425 41 442 41 c 0
 450 41 457 43 463 49 c 2
 498 85 l 1
 554 29 l 1
 492 162 l 1
 421 91 l 2
 415 85 413 78 413 70 c 0
442 -59 m 0
 371 -59 313 -1 313 70 c 0
 313 103 325 136 351 162 c 2
 447 258 l 1
 336 496 l 1
 417 534 l 1
 514 325 l 1
 669 480 l 1
 564 480 l 1
 564 580 l 1
 839 580 l 1
 839 305 l 1
 739 305 l 1
 739 408 l 1
 559 229 l 1
 670 -8 l 1
 589 -46 l 1
 564 9 l 1
 534 -21 l 2
 508 -47 475 -59 442 -59 c 0
EndSplineSet
EndChar

StartChar: uni29230338.alt
Encoding: 61 -1 61
Width: 1119
Flags: HW
HStem: 54 99<755.647 816.518> 480 100<450 555>
VStem: 280 100<305 408> 819 99<155.482 216.642>
LayerCount: 2
Fore
SplineSet
918 183 m 0
 918 111 861 54 789 54 c 0
 756 54 723 66 698 91 c 2
 627 162 l 1
 530 -46 l 1
 448 -8 l 1
 559 230 l 1
 380 408 l 1
 380 305 l 1
 280 305 l 1
 280 580 l 1
 555 580 l 1
 555 480 l 1
 450 480 l 1
 604 326 l 1
 701 534 l 1
 783 496 l 1
 672 258 l 1
 768 162 l 2
 774 156 781 153 789 153 c 0
 805 153 819 167 819 183 c 0
 819 191 816 198 810 204 c 2
 775 239 l 1
 845 310 l 1
 881 274 l 2
 906 249 918 216 918 183 c 0
EndSplineSet
EndChar

StartChar: uni29260338
Encoding: 62 -1 62
Width: 1119
Flags: HW
HStem: 20 100<450 555> 559 100<642.877 704.038>
VStem: 280 100<192 295> 706 100<495.97 557.038>
LayerCount: 2
Fore
SplineSet
706 530 m 0
 706 547 694 559 677 559 c 0
 669 559 662 557 656 551 c 2
 620 515 l 1
 565 571 l 1
 627 438 l 1
 698 509 l 2
 704 515 706 522 706 530 c 0
677 659 m 0
 748 659 806 601 806 530 c 0
 806 497 794 464 768 438 c 2
 672 342 l 1
 783 104 l 1
 701 66 l 1
 604 274 l 1
 450 120 l 1
 555 120 l 1
 555 20 l 1
 280 20 l 1
 280 295 l 1
 380 295 l 1
 380 192 l 1
 559 370 l 1
 448 608 l 1
 530 646 l 1
 555 591 l 1
 585 621 l 2
 611 647 644 659 677 659 c 0
EndSplineSet
EndChar

StartChar: uni29250338.alt
Encoding: 63 -1 63
Width: 1119
Flags: HW
HStem: 20 100<564 669> 447 99<302.461 363.353>
VStem: 200 100<383.358 444.374> 739 100<192 295>
LayerCount: 2
Fore
SplineSet
200 417 m 0
 200 488 258 546 330 546 c 0
 363 546 396 534 421 509 c 2
 492 438 l 1
 589 646 l 1
 670 608 l 1
 559 371 l 1
 739 192 l 1
 739 295 l 1
 839 295 l 1
 839 20 l 1
 564 20 l 1
 564 120 l 1
 669 120 l 1
 514 275 l 1
 417 66 l 1
 336 104 l 1
 447 342 l 1
 351 438 l 2
 345 444 338 447 330 447 c 0
 314 447 300 433 300 417 c 0
 300 409 303 402 309 396 c 2
 344 361 l 1
 273 290 l 1
 238 326 l 2
 212 351 200 384 200 417 c 0
EndSplineSet
EndChar

StartChar: uni21C00338
Encoding: 64 -1 64
Width: 930
Flags: HW
HStem: 250 100<90 319 451 669>
LayerCount: 2
Fore
SplineSet
445 596 m 1
 530 566 l 1
 451 350 l 1
 669 350 l 1
 570 449 l 1
 641 520 l 1
 861 300 l 1
 847 250 l 1
 415 250 l 1
 325 4 l 1
 241 34 l 1
 319 250 l 1
 90 250 l 1
 90 350 l 1
 356 350 l 1
 445 596 l 1
EndSplineSet
EndChar

StartChar: uni21BF0338
Encoding: 65 -1 65
Width: 758
Flags: HW
VStem: 329 100<-75 154 287 504>
LayerCount: 2
Fore
SplineSet
113 76 m 1
 82 160 l 1
 329 250 l 1
 329 504 l 1
 230 405 l 1
 159 476 l 1
 379 696 l 1
 429 682 l 1
 429 287 l 1
 644 365 l 1
 675 280 l 1
 429 191 l 1
 429 -75 l 1
 329 -75 l 1
 329 154 l 1
 113 76 l 1
EndSplineSet
EndChar

StartChar: uni21BD0338
Encoding: 66 -1 66
Width: 930
Flags: HW
HStem: 250 100<261 479 611 840>
LayerCount: 2
Fore
SplineSet
485 4 m 1
 400 34 l 1
 479 250 l 1
 261 250 l 1
 360 151 l 1
 289 80 l 1
 69 300 l 1
 83 350 l 1
 515 350 l 1
 605 596 l 1
 689 566 l 1
 611 350 l 1
 840 350 l 1
 840 250 l 1
 574 250 l 1
 485 4 l 1
EndSplineSet
EndChar

StartChar: uni21C20338
Encoding: 67 -1 67
Width: 758
Flags: HW
VStem: 329 100<96 314 446 675>
LayerCount: 2
Fore
SplineSet
644 524 m 1
 675 440 l 1
 429 350 l 1
 429 96 l 1
 528 195 l 1
 598 124 l 1
 379 -96 l 1
 329 -82 l 1
 329 314 l 1
 113 235 l 1
 82 320 l 1
 329 410 l 1
 329 675 l 1
 429 675 l 1
 429 446 l 1
 644 524 l 1
EndSplineSet
EndChar

StartChar: sym041_uni0338
Encoding: 68 -1 68
Width: 1119
Flags: HW
HStem: -1 21G<310 350> 480 100<529 669>
LayerCount: 2
Fore
SplineSet
336 496 m 1
 417 534 l 1
 514 325 l 1
 669 480 l 1
 529 480 l 1
 529 580 l 1
 839 580 l 1
 865 535 l 1
 824 494 l 1
 825 494 l 1
 560 229 l 1
 670 -8 l 1
 589 -46 l 1
 492 161 l 1
 330 -1 l 1
 259 70 l 1
 447 258 l 1
 336 496 l 1
EndSplineSet
EndChar

StartChar: sym040_uni0338
Encoding: 69 -1 69
Width: 1119
Flags: HW
HStem: -1 21G<769 809>
VStem: 280 100<269 408 550 551>
LayerCount: 2
Fore
SplineSet
530 -46 m 1
 448 -8 l 1
 559 229 l 1
 380 408 l 1
 380 269 l 1
 280 269 l 1
 280 580 l 1
 324 606 l 1
 380 551 l 1
 380 550 l 1
 604 326 l 1
 701 534 l 1
 783 496 l 1
 672 258 l 1
 860 70 l 1
 789 -1 l 1
 627 161 l 1
 530 -46 l 1
EndSplineSet
EndChar

StartChar: sym043_uni0338
Encoding: 70 -1 70
Width: 1119
Flags: HW
HStem: 20 100<450 590>
LayerCount: 2
Fore
SplineSet
783 104 m 1
 701 66 l 1
 604 274 l 1
 450 120 l 1
 590 120 l 1
 590 20 l 1
 280 20 l 1
 254 65 l 1
 294 106 l 1
 559 371 l 1
 448 608 l 1
 530 646 l 1
 627 439 l 1
 789 601 l 1
 860 530 l 1
 672 342 l 1
 783 104 l 1
EndSplineSet
EndChar

StartChar: sym042_uni0338
Encoding: 71 -1 71
Width: 1119
Flags: HW
HStem: -6 21G<774 828.615>
VStem: 739 100<49 50 192 331>
LayerCount: 2
Fore
SplineSet
589 646 m 1
 670 608 l 1
 560 371 l 1
 739 192 l 1
 739 331 l 1
 839 331 l 1
 839 20 l 1
 794 -6 l 1
 739 49 l 1
 739 50 l 1
 514 275 l 1
 417 66 l 1
 336 104 l 1
 447 342 l 1
 259 530 l 1
 330 601 l 1
 492 439 l 1
 589 646 l 1
EndSplineSet
EndChar

StartChar: uni21C10338
Encoding: 72 -1 72
Width: 930
Flags: HW
HStem: 250 100<90 319 451 669>
LayerCount: 2
Fore
SplineSet
445 596 m 1
 530 566 l 1
 451 350 l 1
 847 350 l 1
 861 300 l 1
 641 80 l 1
 570 151 l 1
 669 250 l 1
 415 250 l 1
 325 4 l 1
 241 34 l 1
 319 250 l 1
 90 250 l 1
 90 350 l 1
 356 350 l 1
 445 596 l 1
EndSplineSet
EndChar

StartChar: uni21BE0338
Encoding: 73 -1 73
Width: 758
Flags: HW
VStem: 329 100<-75 154 287 504>
LayerCount: 2
Fore
SplineSet
113 76 m 1
 82 160 l 1
 329 250 l 1
 329 682 l 1
 379 696 l 1
 598 476 l 1
 528 405 l 1
 429 504 l 1
 429 287 l 1
 644 365 l 1
 675 280 l 1
 429 191 l 1
 429 -75 l 1
 329 -75 l 1
 329 154 l 1
 113 76 l 1
EndSplineSet
EndChar

StartChar: uni21BC0338
Encoding: 74 -1 74
Width: 930
Flags: HW
HStem: 250 100<261 479 611 840>
LayerCount: 2
Fore
SplineSet
485 4 m 1
 400 34 l 1
 479 250 l 1
 83 250 l 1
 69 300 l 1
 289 520 l 1
 360 449 l 1
 261 350 l 1
 515 350 l 1
 605 596 l 1
 689 566 l 1
 611 350 l 1
 840 350 l 1
 840 250 l 1
 574 250 l 1
 485 4 l 1
EndSplineSet
EndChar

StartChar: uni21C30338
Encoding: 75 -1 75
Width: 758
Flags: HW
VStem: 329 100<96 314 446 675>
LayerCount: 2
Fore
SplineSet
644 524 m 1
 675 440 l 1
 429 350 l 1
 429 -82 l 1
 379 -96 l 1
 159 124 l 1
 230 195 l 1
 329 96 l 1
 329 314 l 1
 113 235 l 1
 82 320 l 1
 329 410 l 1
 329 675 l 1
 429 675 l 1
 429 446 l 1
 644 524 l 1
EndSplineSet
EndChar

StartChar: sym045_uni0338
Encoding: 76 -1 76
Width: 1119
Flags: HW
HStem: -1 21G<310 350>
VStem: 739 100<269 408 550 551>
LayerCount: 2
Fore
SplineSet
336 496 m 1
 417 534 l 1
 514 325 l 1
 739 550 l 1
 739 551 l 1
 794 606 l 1
 839 580 l 1
 839 269 l 1
 739 269 l 1
 739 408 l 1
 560 229 l 1
 670 -8 l 1
 589 -46 l 1
 492 161 l 1
 330 -1 l 1
 259 70 l 1
 447 258 l 1
 336 496 l 1
EndSplineSet
EndChar

StartChar: sym044_uni0338
Encoding: 77 -1 77
Width: 1119
Flags: HW
HStem: -1 21G<769 809> 480 100<450 590>
LayerCount: 2
Fore
SplineSet
530 -46 m 1
 448 -8 l 1
 559 229 l 1
 294 494 l 1
 254 535 l 1
 280 580 l 1
 590 580 l 1
 590 480 l 1
 450 480 l 1
 604 326 l 1
 701 534 l 1
 783 496 l 1
 672 258 l 1
 860 70 l 1
 789 -1 l 1
 627 161 l 1
 530 -46 l 1
EndSplineSet
EndChar

StartChar: sym047_uni0338
Encoding: 78 -1 78
Width: 1119
Flags: HW
HStem: -6 21G<290.154 344.364>
VStem: 280 100<49 50 192 331>
LayerCount: 2
Fore
SplineSet
783 104 m 1
 701 66 l 1
 604 274 l 1
 380 50 l 1
 380 49 l 1
 324 -6 l 1
 280 20 l 1
 280 331 l 1
 380 331 l 1
 380 192 l 1
 559 371 l 1
 448 608 l 1
 530 646 l 1
 627 439 l 1
 789 601 l 1
 860 530 l 1
 672 342 l 1
 783 104 l 1
EndSplineSet
EndChar

StartChar: sym046_uni0338
Encoding: 79 -1 79
Width: 1119
Flags: HW
HStem: 20 100<529 669>
LayerCount: 2
Fore
SplineSet
589 646 m 1
 670 608 l 1
 560 371 l 1
 825 106 l 1
 824 106 l 1
 865 65 l 1
 839 20 l 1
 529 20 l 1
 529 120 l 1
 669 120 l 1
 514 275 l 1
 417 66 l 1
 336 104 l 1
 447 342 l 1
 259 530 l 1
 330 601 l 1
 492 439 l 1
 589 646 l 1
EndSplineSet
EndChar

StartChar: uni294B0338
Encoding: 80 -1 80
Width: 930
Flags: HW
HStem: 250 100<261 411 519 669>
LayerCount: 2
Fore
SplineSet
471 591 m 1
 559 575 l 1
 519 350 l 1
 669 350 l 1
 570 449 l 1
 641 520 l 1
 861 300 l 1
 847 250 l 1
 502 250 l 1
 459 9 l 1
 371 25 l 1
 411 250 l 1
 261 250 l 1
 360 151 l 1
 289 80 l 1
 69 300 l 1
 83 350 l 1
 428 350 l 1
 471 591 l 1
EndSplineSet
EndChar

StartChar: uni294D0338
Encoding: 81 -1 81
Width: 758
Flags: HW
VStem: 329 100<96 234 367 504>
LayerCount: 2
Fore
SplineSet
113 155 m 1
 82 240 l 1
 329 330 l 1
 329 504 l 1
 230 405 l 1
 159 476 l 1
 379 696 l 1
 429 682 l 1
 429 367 l 1
 644 445 l 1
 675 360 l 1
 429 270 l 1
 429 96 l 1
 528 195 l 1
 598 124 l 1
 379 -96 l 1
 329 -82 l 1
 329 234 l 1
 113 155 l 1
EndSplineSet
EndChar

StartChar: sym049_uni0338
Encoding: 82 -1 82
Width: 1119
Flags: HW
HStem: 20 100<450 590> 480 100<529 669>
LayerCount: 2
Fore
SplineSet
358 510 m 1
 431 561 l 1
 562 374 l 1
 669 480 l 1
 529 480 l 1
 529 580 l 1
 839 580 l 1
 865 535 l 1
 824 494 l 1
 825 494 l 1
 621 290 l 1
 761 90 l 1
 687 39 l 1
 556 226 l 1
 450 120 l 1
 590 120 l 1
 590 20 l 1
 280 20 l 1
 254 65 l 1
 294 106 l 1
 498 310 l 1
 358 510 l 1
EndSplineSet
EndChar

StartChar: sym048_uni0338
Encoding: 83 -1 83
Width: 1119
Flags: HW
HStem: -6 21G<774 828.615>
VStem: 280 100<269 408 550 551> 739 100<49 50 192 331>
LayerCount: 2
Fore
SplineSet
474 10 m 1
 392 48 l 1
 503 286 l 1
 380 408 l 1
 380 269 l 1
 280 269 l 1
 280 580 l 1
 324 606 l 1
 380 551 l 1
 380 550 l 1
 548 382 l 1
 645 590 l 1
 727 552 l 1
 616 314 l 1
 739 192 l 1
 739 331 l 1
 839 331 l 1
 839 20 l 1
 794 -6 l 1
 739 49 l 1
 739 50 l 1
 571 218 l 1
 474 10 l 1
EndSplineSet
EndChar

StartChar: uni294A0338
Encoding: 84 -1 84
Width: 930
Flags: HW
HStem: 250 100<261 399 531 669>
LayerCount: 2
Fore
SplineSet
525 596 m 1
 610 566 l 1
 531 350 l 1
 847 350 l 1
 861 300 l 1
 641 80 l 1
 570 151 l 1
 669 250 l 1
 495 250 l 1
 405 4 l 1
 320 34 l 1
 399 250 l 1
 83 250 l 1
 69 300 l 1
 289 520 l 1
 360 449 l 1
 261 350 l 1
 435 350 l 1
 525 596 l 1
EndSplineSet
EndChar

StartChar: uni294C0338
Encoding: 85 -1 85
Width: 758
Flags: HW
VStem: 329 100<96 246 354 504>
LayerCount: 2
Fore
SplineSet
103 206 m 1
 88 294 l 1
 329 337 l 1
 329 682 l 1
 379 696 l 1
 598 476 l 1
 528 405 l 1
 429 504 l 1
 429 354 l 1
 654 394 l 1
 670 306 l 1
 429 263 l 1
 429 -82 l 1
 379 -96 l 1
 159 124 l 1
 230 195 l 1
 329 96 l 1
 329 246 l 1
 103 206 l 1
EndSplineSet
EndChar

StartChar: sym04B_uni0338
Encoding: 86 -1 86
Width: 1119
Flags: HW
HStem: -6 21G<290.154 344.364>
VStem: 280 100<49 50 192 331> 739 100<269 408 550 551>
LayerCount: 2
Fore
SplineSet
392 552 m 1
 474 590 l 1
 571 382 l 1
 739 550 l 1
 739 551 l 1
 794 606 l 1
 839 580 l 1
 839 269 l 1
 739 269 l 1
 739 408 l 1
 616 286 l 1
 727 48 l 1
 645 10 l 1
 548 218 l 1
 380 50 l 1
 380 49 l 1
 324 -6 l 1
 280 20 l 1
 280 331 l 1
 380 331 l 1
 380 192 l 1
 503 314 l 1
 392 552 l 1
EndSplineSet
EndChar

StartChar: sym04A_uni0338
Encoding: 87 -1 87
Width: 1119
Flags: HW
HStem: 20 100<529 669> 480 100<450 590>
LayerCount: 2
Fore
SplineSet
431 39 m 1
 358 90 l 1
 498 290 l 1
 294 494 l 1
 254 535 l 1
 280 580 l 1
 590 580 l 1
 590 480 l 1
 450 480 l 1
 556 374 l 1
 687 561 l 1
 761 510 l 1
 621 310 l 1
 825 106 l 1
 824 106 l 1
 865 65 l 1
 839 20 l 1
 529 20 l 1
 529 120 l 1
 669 120 l 1
 562 226 l 1
 431 39 l 1
EndSplineSet
EndChar

StartChar: uni21CC0338
Encoding: 88 -1 88
Width: 930
Flags: HW
HStem: 150 100<262 393 502 840> 350 100<90 428 537 668>
LayerCount: 2
Fore
SplineSet
488 690 m 1
 577 675 l 1
 537 450 l 1
 668 450 l 1
 570 548 l 1
 641 619 l 1
 861 400 l 1
 847 350 l 1
 520 350 l 1
 502 250 l 1
 840 250 l 1
 840 150 l 1
 484 150 l 1
 442 -90 l 1
 353 -75 l 1
 393 150 l 1
 262 150 l 1
 360 52 l 1
 289 -19 l 1
 69 200 l 1
 83 250 l 1
 410 250 l 1
 428 350 l 1
 90 350 l 1
 90 450 l 1
 446 450 l 1
 488 690 l 1
EndSplineSet
EndChar

StartChar: uni296E0338
Encoding: 89 -1 89
Width: 957
Flags: HW
VStem: 329 100<-75 198 330 504> 528 100<96 270 402 675>
LayerCount: 2
Fore
SplineSet
113 119 m 1
 82 204 l 1
 329 294 l 1
 329 504 l 1
 230 405 l 1
 159 476 l 1
 379 696 l 1
 429 682 l 1
 429 330 l 1
 528 366 l 1
 528 675 l 1
 628 675 l 1
 628 402 l 1
 844 481 l 1
 874 396 l 1
 628 306 l 1
 628 96 l 1
 727 195 l 1
 797 124 l 1
 578 -96 l 1
 528 -82 l 1
 528 270 l 1
 429 234 l 1
 429 -75 l 1
 329 -75 l 1
 329 198 l 1
 113 119 l 1
EndSplineSet
EndChar

StartChar: sym04D_uni0338
Encoding: 90 -1 90
Width: 1259
Flags: HW
HStem: -50 100<592 731> 550 100<529 668>
LayerCount: 2
Fore
SplineSet
370 592 m 1
 444 644 l 1
 575 457 l 1
 668 550 l 1
 529 550 l 1
 529 650 l 1
 839 650 l 1
 865 605 l 1
 633 373 l 1
 691 291 l 1
 930 530 l 1
 1001 459 l 1
 749 207 l 1
 889 8 l 1
 816 -44 l 1
 685 143 l 1
 592 50 l 1
 731 50 l 1
 731 -50 l 1
 420 -50 l 1
 394 -5 l 1
 472 71 549 149 626 226 c 1
 569 309 l 1
 330 70 l 1
 259 141 l 1
 510 392 l 1
 370 592 l 1
EndSplineSet
EndChar

StartChar: sym04C_uni0338
Encoding: 91 -1 91
Width: 1259
Flags: HW
VStem: 280 100<199 338> 880 100<261 401>
LayerCount: 2
Fore
SplineSet
499 -86 m 1
 418 -48 l 1
 529 189 l 1
 380 338 l 1
 380 199 l 1
 280 199 l 1
 280 509 l 1
 324 535 l 1
 365 495 l 1
 574 286 l 1
 618 382 l 1
 400 600 l 1
 470 671 l 1
 663 478 l 1
 760 686 l 1
 842 648 l 1
 731 410 l 1
 880 261 l 1
 880 401 l 1
 980 401 l 1
 980 91 l 1
 935 65 l 1
 686 314 l 1
 641 219 l 1
 860 0 l 1
 789 -71 l 1
 596 122 l 1
 499 -86 l 1
EndSplineSet
EndChar

StartChar: uni21CB0338
Encoding: 92 -1 92
Width: 930
Flags: HW
HStem: 150 100<90 362 495 668> 350 100<262 435 568 840>
LayerCount: 2
Fore
SplineSet
561 696 m 1
 646 665 l 1
 568 450 l 1
 840 450 l 1
 840 350 l 1
 531 350 l 1
 495 250 l 1
 847 250 l 1
 861 200 l 1
 641 -19 l 1
 570 52 l 1
 668 150 l 1
 459 150 l 1
 369 -96 l 1
 284 -65 l 1
 362 150 l 1
 90 150 l 1
 90 250 l 1
 399 250 l 1
 435 350 l 1
 83 350 l 1
 69 400 l 1
 289 619 l 1
 360 548 l 1
 262 450 l 1
 471 450 l 1
 561 696 l 1
EndSplineSet
EndChar

StartChar: uni296F0338
Encoding: 93 -1 93
Width: 957
Flags: HW
VStem: 329 100<96 228 337 675> 528 100<-75 263 372 504>
LayerCount: 2
Fore
SplineSet
103 188 m 1
 88 277 l 1
 329 320 l 1
 329 675 l 1
 429 675 l 1
 429 337 l 1
 528 355 l 1
 528 682 l 1
 578 696 l 1
 797 476 l 1
 727 405 l 1
 628 504 l 1
 628 372 l 1
 853 412 l 1
 869 323 l 1
 628 281 l 1
 628 -75 l 1
 528 -75 l 1
 528 263 l 1
 429 245 l 1
 429 -82 l 1
 379 -96 l 1
 159 124 l 1
 230 195 l 1
 329 96 l 1
 329 228 l 1
 103 188 l 1
EndSplineSet
EndChar

StartChar: sym04F_uni0338
Encoding: 94 -1 94
Width: 1259
Flags: HW
VStem: 280 100<262 401> 880 100<199 339>
LayerCount: 2
Fore
SplineSet
418 648 m 1
 499 686 l 1
 596 478 l 1
 789 671 l 1
 860 600 l 1
 641 381 l 1
 686 286 l 1
 935 535 l 1
 980 509 l 1
 980 199 l 1
 880 199 l 1
 880 339 l 1
 731 190 l 1
 842 -48 l 1
 760 -86 l 1
 663 122 l 1
 470 -71 l 1
 400 0 l 1
 618 218 l 1
 574 314 l 1
 365 105 l 1
 324 65 l 1
 280 91 l 1
 280 401 l 1
 380 401 l 1
 380 262 l 1
 529 411 l 1
 418 648 l 1
EndSplineSet
EndChar

StartChar: sym04E_uni0338
Encoding: 95 -1 95
Width: 1259
Flags: HW
HStem: -50 100<529 668> 550 100<592 731>
LayerCount: 2
Fore
SplineSet
444 -44 m 1
 370 8 l 1
 510 208 l 1
 259 459 l 1
 330 530 l 1
 569 291 l 1
 626 374 l 1
 549 451 472 529 394 605 c 1
 420 650 l 1
 731 650 l 1
 731 550 l 1
 592 550 l 1
 685 457 l 1
 816 644 l 1
 889 592 l 1
 749 393 l 1
 1001 141 l 1
 930 70 l 1
 691 309 l 1
 633 227 l 1
 865 -5 l 1
 839 -50 l 1
 529 -50 l 1
 529 50 l 1
 668 50 l 1
 575 143 l 1
 444 -44 l 1
EndSplineSet
EndChar

StartChar: uni21E20338
Encoding: 96 -1 96
Width: 930
Flags: HW
HStem: 250 100<90 270 563 669>
VStem: 90 180<250 350>
LayerCount: 2
Fore
SplineSet
90 250 m 1
 90 350 l 1
 270 350 l 1
 270 250 l 1
 90 250 l 1
861 300 m 1
 666 105 l 1
 595 176 l 1
 669 250 l 1
 563 250 l 1
 563 350 l 1
 669 350 l 1
 595 424 l 1
 666 495 l 1
 861 300 l 1
476 596 m 1
 561 566 l 1
 356 4 l 1
 272 34 l 1
 476 596 l 1
EndSplineSet
EndChar

StartChar: uni21E10338
Encoding: 97 -1 97
Width: 758
Flags: HW
HStem: -75 180<329 429>
VStem: 329 100<-75 105 397 504>
LayerCount: 2
Fore
SplineSet
429 -75 m 1
 329 -75 l 1
 329 105 l 1
 429 105 l 1
 429 -75 l 1
379 696 m 1
 573 501 l 1
 503 430 l 1
 429 504 l 1
 429 397 l 1
 329 397 l 1
 329 504 l 1
 255 430 l 1
 184 501 l 1
 379 696 l 1
113 107 m 1
 82 191 l 1
 644 396 l 1
 675 311 l 1
 113 107 l 1
EndSplineSet
EndChar

StartChar: uni21E00338
Encoding: 98 -1 98
Width: 930
Flags: HW
HStem: 250 100<261 368 660 840>
VStem: 660 180<250 350>
LayerCount: 2
Fore
SplineSet
840 350 m 1
 840 250 l 1
 660 250 l 1
 660 350 l 1
 840 350 l 1
69 300 m 1
 264 495 l 1
 335 424 l 1
 261 350 l 1
 368 350 l 1
 368 250 l 1
 261 250 l 1
 335 176 l 1
 264 105 l 1
 69 300 l 1
454 4 m 1
 369 34 l 1
 574 596 l 1
 658 566 l 1
 454 4 l 1
EndSplineSet
EndChar

StartChar: uni21E30338
Encoding: 99 -1 99
Width: 758
Flags: HW
HStem: 495 180<329 429>
VStem: 329 100<96 203 495 675>
LayerCount: 2
Fore
SplineSet
329 675 m 1
 429 675 l 1
 429 495 l 1
 329 495 l 1
 329 675 l 1
379 -96 m 1
 184 99 l 1
 255 170 l 1
 329 96 l 1
 329 203 l 1
 429 203 l 1
 429 96 l 1
 503 170 l 1
 573 99 l 1
 379 -96 l 1
644 493 m 1
 675 409 l 1
 113 204 l 1
 82 289 l 1
 644 493 l 1
EndSplineSet
EndChar

StartChar: sym051_uni0338
Encoding: 100 -1 100
Width: 1119
Flags: HW
HStem: -1 21G<310 349.844> 480 100<564 669> 536 20G<396.368 448.319>
VStem: 739 100<305 409>
LayerCount: 2
Fore
SplineSet
330 -1 m 1x90
 259 70 l 1
 386 197 l 1
 457 127 l 1
 330 -1 l 1x90
839 580 m 1xd0
 839 305 l 1
 739 305 l 1
 739 409 l 1
 664 334 l 1
 593 404 l 1
 669 480 l 1
 564 480 l 1
 564 580 l 1
 839 580 l 1xd0
358 518 m 1
 439 556 l 1xb0
 692 13 l 1
 611 -25 l 1
 358 518 l 1
EndSplineSet
EndChar

StartChar: sym050_uni0338
Encoding: 101 -1 101
Width: 1119
Flags: HW
HStem: -1 21G<769.156 809> 480 100<450 555> 536 20G<669.718 722.158>
VStem: 280 100<305 409>
LayerCount: 2
Fore
SplineSet
860 70 m 1x90
 789 -1 l 1
 662 127 l 1
 733 197 l 1
 860 70 l 1x90
280 580 m 1xd0
 555 580 l 1
 555 480 l 1
 450 480 l 1
 526 404 l 1
 455 334 l 1
 380 409 l 1
 380 305 l 1
 280 305 l 1
 280 580 l 1xd0
508 -25 m 1
 427 13 l 1
 679 556 l 1xb0
 761 518 l 1
 508 -25 l 1
EndSplineSet
EndChar

StartChar: sym053_uni0338
Encoding: 102 -1 102
Width: 1119
Flags: HW
HStem: 20 100<450 555>
VStem: 280 100<191 295>
LayerCount: 2
Fore
SplineSet
789 601 m 1
 860 530 l 1
 733 403 l 1
 662 473 l 1
 789 601 l 1
280 20 m 1
 280 295 l 1
 380 295 l 1
 380 191 l 1
 455 266 l 1
 526 196 l 1
 450 120 l 1
 555 120 l 1
 555 20 l 1
 280 20 l 1
761 82 m 1
 679 44 l 1
 427 587 l 1
 508 625 l 1
 761 82 l 1
EndSplineSet
EndChar

StartChar: sym052_uni0338
Encoding: 103 -1 103
Width: 1119
Flags: HW
HStem: 20 100<564 669>
VStem: 739 100<191 295>
LayerCount: 2
Fore
SplineSet
259 530 m 1
 330 601 l 1
 457 473 l 1
 386 403 l 1
 259 530 l 1
839 20 m 1
 564 20 l 1
 564 120 l 1
 669 120 l 1
 593 196 l 1
 664 266 l 1
 739 191 l 1
 739 295 l 1
 839 295 l 1
 839 20 l 1
611 625 m 1
 692 587 l 1
 439 44 l 1
 358 82 l 1
 611 625 l 1
EndSplineSet
EndChar

StartChar: uni22B80338
Encoding: 104 -1 104
Width: 930
Flags: HW
HStem: 123 100<609.585 716.567> 250 100<90 272 404 499.047> 377 100<609.585 716.567>
VStem: 740 100<247.718 352.282>
CounterMasks: 1 e0
LayerCount: 2
Fore
SplineSet
663 223 m 0
 705 223 740 256 740 300 c 0
 740 344 705 377 663 377 c 0
 619 377 585 342 585 300 c 0
 585 258 619 223 663 223 c 0
663 123 m 0
 578 123 513 179 492 250 c 1
 367 250 l 1
 278 4 l 1
 193 34 l 1
 272 250 l 1
 90 250 l 1
 90 350 l 1
 308 350 l 1
 398 596 l 1
 482 566 l 1
 404 350 l 1
 492 350 l 1
 513 421 578 477 663 477 c 0
 765 477 840 393 840 300 c 0
 840 207 765 123 663 123 c 0
EndSplineSet
EndChar

StartChar: uni2AEF0338
Encoding: 105 -1 105
Width: 758
Flags: HW
HStem: 575 100<326.346 431.638>
VStem: 201 100<445.381 548.812> 329 100<-75 107 239 334.7> 456 100<444.892 551.025>
LayerCount: 2
Fore
SplineSet
379 420 m 0
 419 420 456 452 456 498 c 0
 456 542 421 575 379 575 c 0
 333 575 301 535 301 498 c 0
 301 458 334 420 379 420 c 0
556 498 m 0
 556 421 506 350 429 327 c 1
 429 239 l 1
 644 317 l 1
 675 233 l 1
 429 143 l 1
 429 -75 l 1
 329 -75 l 1
 329 107 l 1
 113 28 l 1
 82 113 l 1
 329 203 l 1
 329 327 l 1
 250 350 201 421 201 498 c 0
 201 598 284 675 379 675 c 0
 476 675 556 595 556 498 c 0
EndSplineSet
EndChar

StartChar: uni27DC0338
Encoding: 106 -1 106
Width: 930
Flags: HW
HStem: 123 100<213.433 320.415> 250 100<430.953 526 658 840> 377 100<213.433 320.415>
VStem: 90 100<247.718 352.282>
CounterMasks: 1 e0
LayerCount: 2
Fore
SplineSet
267 223 m 0
 311 223 345 258 345 300 c 0
 345 342 311 377 267 377 c 0
 225 377 190 344 190 300 c 0
 190 256 225 223 267 223 c 0
267 477 m 0
 352 477 417 421 438 350 c 1
 563 350 l 1
 652 596 l 1
 737 566 l 1
 658 350 l 1
 840 350 l 1
 840 250 l 1
 622 250 l 1
 532 4 l 1
 448 34 l 1
 526 250 l 1
 438 250 l 1
 417 179 352 123 267 123 c 0
 165 123 90 207 90 300 c 0
 90 393 165 477 267 477 c 0
EndSplineSet
EndChar

StartChar: uni2AF00338
Encoding: 107 -1 107
Width: 758
Flags: HW
HStem: -75 100<326.346 431.638>
VStem: 201 100<51.1875 154.619> 329 100<265.3 361 494 675> 456 100<48.9754 155.108>
LayerCount: 2
Fore
SplineSet
379 25 m 0
 421 25 456 58 456 102 c 0
 456 148 419 180 379 180 c 0
 334 180 301 142 301 102 c 0
 301 65 333 25 379 25 c 0
201 102 m 0
 201 179 250 250 329 273 c 1
 329 361 l 1
 113 283 l 1
 82 367 l 1
 329 457 l 1
 329 675 l 1
 429 675 l 1
 429 494 l 1
 644 572 l 1
 675 487 l 1
 429 398 l 1
 429 273 l 1
 506 250 556 179 556 102 c 0
 556 5 476 -75 379 -75 c 0
 284 -75 201 2 201 102 c 0
EndSplineSet
EndChar

StartChar: sym054_uni0338
Encoding: 108 -1 108
Width: 930
Flags: HW
HStem: 123 354<577.078 745.449> 250 100<90 272 404 499.047>
LayerCount: 2
Fore
SplineSet
663 123 m 0x80
 578 123 513 179 492 250 c 1
 367 250 l 1
 278 4 l 1
 193 34 l 1
 272 250 l 1
 90 250 l 1
 90 350 l 1
 308 350 l 1
 398 596 l 1
 482 566 l 1
 404 350 l 1
 492 350 l 1x40
 513 421 578 477 663 477 c 0
 765 477 840 393 840 300 c 0
 840 207 765 123 663 123 c 0x80
EndSplineSet
EndChar

StartChar: sym056_uni0338
Encoding: 109 -1 109
Width: 758
Flags: HW
VStem: 201 355<413.016 579.568> 329 100<-75 107 239 334.7>
LayerCount: 2
Fore
SplineSet
556 498 m 0x80
 556 421 506 350 429 327 c 1
 429 239 l 1
 644 317 l 1
 675 233 l 1
 429 143 l 1
 429 -75 l 1
 329 -75 l 1
 329 107 l 1
 113 28 l 1
 82 113 l 1
 329 203 l 1
 329 327 l 1x40
 250 350 201 421 201 498 c 0
 201 598 284 675 379 675 c 0
 476 675 556 595 556 498 c 0x80
EndSplineSet
EndChar

StartChar: sym055_uni0338
Encoding: 110 -1 110
Width: 930
Flags: HW
HStem: 123 354<184.551 352.922> 250 100<430.953 526 658 840>
LayerCount: 2
Fore
SplineSet
267 477 m 0x80
 352 477 417 421 438 350 c 1
 563 350 l 1
 652 596 l 1
 737 566 l 1
 658 350 l 1
 840 350 l 1
 840 250 l 1
 622 250 l 1
 532 4 l 1
 448 34 l 1
 526 250 l 1
 438 250 l 1x40
 417 179 352 123 267 123 c 0
 165 123 90 207 90 300 c 0
 90 393 165 477 267 477 c 0x80
EndSplineSet
EndChar

StartChar: sym057_uni0338
Encoding: 111 -1 111
Width: 758
Flags: HW
VStem: 201 355<20.4317 186.984> 329 100<265.3 361 494 675>
LayerCount: 2
Fore
SplineSet
201 102 m 0x80
 201 179 250 250 329 273 c 1
 329 361 l 1
 113 283 l 1
 82 367 l 1
 329 457 l 1
 329 675 l 1
 429 675 l 1
 429 494 l 1
 644 572 l 1
 675 487 l 1
 429 398 l 1
 429 273 l 1x40
 506 250 556 179 556 102 c 0
 556 5 476 -75 379 -75 c 0
 284 -75 201 2 201 102 c 0x80
EndSplineSet
EndChar

StartChar: uni29DF0338
Encoding: 112 -1 112
Width: 1230
Flags: HW
HStem: 123 100<213.433 320.415 909.585 1016.57> 250 100<430.953 549 681 799.047> 377 100<213.433 320.415 909.585 1016.57>
VStem: 90 100<247.718 352.282> 1040 100<247.718 352.282>
CounterMasks: 1 e0
LayerCount: 2
Fore
SplineSet
963 223 m 0
 1005 223 1040 256 1040 300 c 0
 1040 344 1005 377 963 377 c 0
 919 377 885 342 885 300 c 0
 885 258 919 223 963 223 c 0
267 223 m 0
 311 223 345 258 345 300 c 0
 345 342 311 377 267 377 c 0
 225 377 190 344 190 300 c 0
 190 256 225 223 267 223 c 0
267 477 m 0
 352 477 417 421 438 350 c 1
 585 350 l 1
 675 596 l 1
 760 566 l 1
 681 350 l 1
 792 350 l 1
 813 421 878 477 963 477 c 0
 1065 477 1140 393 1140 300 c 0
 1140 207 1065 123 963 123 c 0
 878 123 813 179 792 250 c 1
 645 250 l 1
 555 4 l 1
 470 34 l 1
 549 250 l 1
 438 250 l 1
 417 179 352 123 267 123 c 0
 165 123 90 207 90 300 c 0
 90 393 165 477 267 477 c 0
EndSplineSet
EndChar

StartChar: sym058_uni0338
Encoding: 113 -1 113
Width: 1230
Flags: HW
HStem: 123 354<184.551 352.922 877.078 1045.45> 250 100<430.953 549 681 799.047>
LayerCount: 2
Fore
SplineSet
267 477 m 0x80
 352 477 417 421 438 350 c 1
 585 350 l 1
 675 596 l 1
 760 566 l 1
 681 350 l 1
 792 350 l 1x40
 813 421 878 477 963 477 c 0
 1065 477 1140 393 1140 300 c 0
 1140 207 1065 123 963 123 c 0x80
 878 123 813 179 792 250 c 1
 645 250 l 1
 555 4 l 1
 470 34 l 1
 549 250 l 1
 438 250 l 1x40
 417 179 352 123 267 123 c 0
 165 123 90 207 90 300 c 0
 90 393 165 477 267 477 c 0x80
EndSplineSet
EndChar

StartChar: uni22B70338
Encoding: 114 -1 114
Width: 1230
Flags: HW
HStem: 123 354<184.551 352.922> 123 100<909.585 1016.57> 250 100<430.953 549 681 799.047> 377 100<909.585 1016.57>
VStem: 1040 100<247.718 352.282>
LayerCount: 2
Fore
SplineSet
963 223 m 0x58
 1005 223 1040 256 1040 300 c 0
 1040 344 1005 377 963 377 c 0
 919 377 885 342 885 300 c 0
 885 258 919 223 963 223 c 0x58
267 477 m 0x88
 352 477 417 421 438 350 c 1
 585 350 l 1
 675 596 l 1
 760 566 l 1
 681 350 l 1
 792 350 l 1
 813 421 878 477 963 477 c 0
 1065 477 1140 393 1140 300 c 0
 1140 207 1065 123 963 123 c 0
 878 123 813 179 792 250 c 1
 645 250 l 1
 555 4 l 1
 470 34 l 1
 549 250 l 1
 438 250 l 1x78
 417 179 352 123 267 123 c 0
 165 123 90 207 90 300 c 0
 90 393 165 477 267 477 c 0x88
EndSplineSet
EndChar

StartChar: uni22B60338
Encoding: 115 -1 115
Width: 1230
Flags: HW
HStem: 123 354<877.078 1045.45> 123 100<213.433 320.415> 250 100<430.953 549 681 799.047> 377 100<213.433 320.415>
VStem: 90 100<247.718 352.282>
LayerCount: 2
Fore
SplineSet
267 223 m 0x58
 311 223 345 258 345 300 c 0
 345 342 311 377 267 377 c 0
 225 377 190 344 190 300 c 0
 190 256 225 223 267 223 c 0x58
963 123 m 0x88
 878 123 813 179 792 250 c 1
 645 250 l 1
 555 4 l 1
 470 34 l 1
 549 250 l 1
 438 250 l 1
 417 179 352 123 267 123 c 0
 165 123 90 207 90 300 c 0
 90 393 165 477 267 477 c 0
 352 477 417 421 438 350 c 1
 585 350 l 1
 675 596 l 1
 760 566 l 1
 681 350 l 1
 792 350 l 1x78
 813 421 878 477 963 477 c 0
 1065 477 1140 393 1140 300 c 0
 1140 207 1065 123 963 123 c 0x88
EndSplineSet
EndChar

StartChar: sym05A_uni0338
Encoding: 116 -1 116
Width: 930
Flags: HW
HStem: 47 100<90 213 321 363.48> 250 100<90 248 357 409 507.373 840> 453 100<90 284> 694 20G<326.522 418>
VStem: 409 102<199.639 250>
LayerCount: 2
Fore
SplineSet
321 148 m 1
 367 156 397 199 409 250 c 1
 339 250 l 1
 321 148 l 1
370 426 m 1
 357 350 l 1
 409 350 l 1
 402 380 389 407 370 426 c 1
330 714 m 1
 418 698 l 1
 389 533 l 1
 453 500 498 430 511 350 c 1
 840 350 l 1
 840 250 l 1
 511 250 l 1
 493 139 414 47 306 47 c 2
 303 47 l 1
 275 -114 l 1
 187 -98 l 1
 213 47 l 1
 90 47 l 1
 90 147 l 1
 230 147 l 1
 248 250 l 1
 90 250 l 1
 90 350 l 1
 266 350 l 1
 284 453 l 1
 90 453 l 1
 90 553 l 1
 302 553 l 1
 330 714 l 1
EndSplineSet
EndChar

StartChar: uni22D40338
Encoding: 117 -1 117
Width: 1003
Flags: HW
HStem: 244 102<401.639 452>
VStem: 249 100<-75 48 156 198.48> 452 100<-75 83 192 244 342.373 675> 654 100<-75 119>
LayerCount: 2
Fore
SplineSet
627 205 m 1
 608 224 582 237 552 244 c 1
 552 192 l 1
 627 205 l 1
350 156 m 1
 452 174 l 1
 452 244 l 1
 400 232 358 202 350 156 c 1
103 22 m 1
 88 110 l 1
 249 138 l 1
 249 141 l 2
 249 249 341 328 452 346 c 1
 452 675 l 1
 552 675 l 1
 552 346 l 1
 632 333 701 288 734 224 c 1
 900 253 l 1
 916 165 l 1
 754 137 l 1
 754 -75 l 1
 654 -75 l 1
 654 119 l 1
 552 101 l 1
 552 -75 l 1
 452 -75 l 1
 452 83 l 1
 349 65 l 1
 349 -75 l 1
 249 -75 l 1
 249 48 l 1
 103 22 l 1
EndSplineSet
EndChar

StartChar: sym05B_uni0338
Encoding: 118 -1 118
Width: 930
Flags: HW
HStem: 47 100<646 840> 250 100<90 422.627 521 573 682 840> 453 100<566.52 609 717 840> 694 20G<651.522 743>
VStem: 419 102<350 400.361>
LayerCount: 2
Fore
SplineSet
609 452 m 1
 563 444 533 401 521 350 c 1
 591 350 l 1
 609 452 l 1
560 174 m 1
 573 250 l 1
 521 250 l 1
 528 220 541 193 560 174 c 1
600 -114 m 1
 512 -98 l 1
 541 67 l 1
 477 100 432 170 419 250 c 1
 90 250 l 1
 90 350 l 1
 419 350 l 1
 437 461 516 553 624 553 c 2
 627 553 l 1
 655 714 l 1
 743 698 l 1
 717 553 l 1
 840 553 l 1
 840 453 l 1
 700 453 l 1
 682 350 l 1
 840 350 l 1
 840 250 l 1
 664 250 l 1
 646 147 l 1
 840 147 l 1
 840 47 l 1
 628 47 l 1
 600 -114 l 1
EndSplineSet
EndChar

StartChar: sym059_uni0338
Encoding: 119 -1 119
Width: 1003
Flags: HW
HStem: 254 102<552 602.296>
VStem: 249 100<481 675> 452 100<-75 257.627 356 408 517 675> 654 100<401.52 444 552 675>
LayerCount: 2
Fore
SplineSet
376 395 m 1
 395 376 422 363 452 356 c 1
 452 408 l 1
 376 395 l 1
653 444 m 1
 552 426 l 1
 552 356 l 1
 603 368 645 398 653 444 c 1
900 578 m 1
 916 490 l 1
 754 462 l 1
 754 459 l 2
 754 351 663 272 552 254 c 1
 552 -75 l 1
 452 -75 l 1
 452 254 l 1
 372 267 302 312 269 376 c 1
 103 347 l 1
 88 435 l 1
 249 463 l 1
 249 675 l 1
 349 675 l 1
 349 481 l 1
 452 499 l 1
 452 675 l 1
 552 675 l 1
 552 517 l 1
 654 535 l 1
 654 675 l 1
 754 675 l 1
 754 552 l 1
 900 578 l 1
EndSplineSet
EndChar

StartChar: uni21C90338
Encoding: 120 -1 120
Width: 930
Flags: HW
HStem: 91 100<90 261 393 669> 409 100<90 377 509 669>
LayerCount: 2
Fore
SplineSet
630 300 m 1
 595 335 l 1
 669 409 l 1
 473 409 l 1
 393 191 l 1
 669 191 l 1
 595 265 l 1
 630 300 l 1
474 676 m 1
 559 645 l 1
 509 509 l 1
 669 509 l 1
 595 583 l 1
 666 654 l 1
 861 459 l 1
 701 300 l 1
 861 141 l 1
 666 -54 l 1
 595 17 l 1
 669 91 l 1
 357 91 l 1
 296 -76 l 1
 212 -45 l 1
 261 91 l 1
 90 91 l 1
 90 191 l 1
 298 191 l 1
 377 409 l 1
 90 409 l 1
 90 509 l 1
 413 509 l 1
 474 676 l 1
EndSplineSet
EndChar

StartChar: uni21C80338
Encoding: 121 -1 121
Width: 917
Flags: HW
VStem: 249 100<-75 96 228 504> 568 100<-75 212 344 504>
LayerCount: 2
Fore
SplineSet
458 466 m 1
 423 430 l 1
 349 504 l 1
 349 228 l 1
 568 308 l 1
 568 504 l 1
 494 430 l 1
 458 466 l 1
113 47 m 1
 82 131 l 1
 249 192 l 1
 249 504 l 1
 175 430 l 1
 105 501 l 1
 299 696 l 1
 458 536 l 1
 618 696 l 1
 812 501 l 1
 741 430 l 1
 668 504 l 1
 668 344 l 1
 804 394 l 1
 834 309 l 1
 668 249 l 1
 668 -75 l 1
 568 -75 l 1
 568 212 l 1
 349 133 l 1
 349 -75 l 1
 249 -75 l 1
 249 96 l 1
 113 47 l 1
EndSplineSet
EndChar

StartChar: uni21C70338
Encoding: 122 -1 122
Width: 930
Flags: HW
HStem: 91 100<261 421 553 840> 409 100<261 537 669 840>
LayerCount: 2
Fore
SplineSet
300 300 m 1
 335 265 l 1
 261 191 l 1
 457 191 l 1
 537 409 l 1
 261 409 l 1
 335 335 l 1
 300 300 l 1
456 -76 m 1
 371 -45 l 1
 421 91 l 1
 261 91 l 1
 335 17 l 1
 264 -54 l 1
 69 141 l 1
 229 300 l 1
 69 459 l 1
 264 654 l 1
 335 583 l 1
 261 509 l 1
 573 509 l 1
 634 676 l 1
 718 645 l 1
 669 509 l 1
 840 509 l 1
 840 409 l 1
 632 409 l 1
 553 191 l 1
 840 191 l 1
 840 91 l 1
 517 91 l 1
 456 -76 l 1
EndSplineSet
EndChar

StartChar: uni21CA0338
Encoding: 123 -1 123
Width: 917
Flags: HW
HStem: 533 20G<748.49 811.143>
VStem: 249 100<96 256 388 675> 568 100<96 372 504 675>
LayerCount: 2
Fore
SplineSet
458 134 m 1
 494 170 l 1
 568 96 l 1
 568 372 l 1
 349 292 l 1
 349 96 l 1
 423 170 l 1
 458 134 l 1
804 553 m 1
 834 469 l 1
 668 408 l 1
 668 96 l 1
 741 170 l 1
 812 99 l 1
 618 -96 l 1
 458 63 l 1
 299 -96 l 1
 105 99 l 1
 175 170 l 1
 249 96 l 1
 249 256 l 1
 113 206 l 1
 82 291 l 1
 249 352 l 1
 249 675 l 1
 349 675 l 1
 349 388 l 1
 568 467 l 1
 568 675 l 1
 668 675 l 1
 668 504 l 1
 804 553 l 1
EndSplineSet
EndChar

StartChar: sym05D_uni0338
Encoding: 124 -1 124
Width: 1231
Flags: HW
HStem: 367 100<783 837> 592 100<508 612>
VStem: 683 100<467 522> 908 100<192 297>
LayerCount: 2
Fore
SplineSet
733 417 m 1
 683 417 l 1
 683 522 l 1
 544 383 l 1
 642 172 l 1
 837 367 l 1
 733 367 l 1
 733 417 l 1
356 573 m 1
 438 611 l 1
 499 479 l 1
 612 592 l 1
 508 592 l 1
 508 692 l 1
 783 692 l 1
 783 467 l 1
 1008 467 l 1
 1008 192 l 1
 908 192 l 1
 908 297 l 1
 687 76 l 1
 762 -85 l 1
 681 -123 l 1
 620 9 l 1
 498 -113 l 1
 428 -42 l 1
 575 105 l 1
 476 315 l 1
 273 112 l 1
 203 183 l 1
 431 411 l 1
 356 573 l 1
EndSplineSet
EndChar

StartChar: sym05C_uni0338
Encoding: 125 -1 125
Width: 1231
Flags: HW
HStem: 367 100<395 448> 592 100<620 724>
VStem: 223 100<192 297> 448 100<467 522>
LayerCount: 2
Fore
SplineSet
498 417 m 1
 498 367 l 1
 395 367 l 1
 589 173 l 1
 687 383 l 1
 548 522 l 1
 548 417 l 1
 498 417 l 1
551 -123 m 1
 469 -85 l 1
 544 76 l 1
 323 297 l 1
 323 192 l 1
 223 192 l 1
 223 467 l 1
 448 467 l 1
 448 692 l 1
 724 692 l 1
 724 592 l 1
 620 592 l 1
 732 480 l 1
 793 611 l 1
 875 573 l 1
 800 412 l 1
 1029 183 l 1
 958 112 l 1
 755 315 l 1
 657 105 l 1
 804 -42 l 1
 733 -113 l 1
 612 8 l 1
 551 -123 l 1
EndSplineSet
EndChar

StartChar: sym05F_uni0338
Encoding: 126 -1 126
Width: 1231
Flags: HW
HStem: -92 100<620 724> -11 21G<783.687 836.158> 133 100<395 448> 693 20G<713 753>
VStem: 223 100<303 408> 448 100<78 133>
LayerCount: 2
Fore
SplineSet
498 183 m 1x3c
 548 183 l 1
 548 78 l 1
 687 217 l 1
 589 427 l 1
 395 233 l 1
 498 233 l 1
 498 183 l 1x3c
875 27 m 1
 793 -11 l 1x7c
 732 120 l 1
 620 8 l 1
 724 8 l 1
 724 -92 l 1
 448 -92 l 1xbc
 448 133 l 1
 223 133 l 1
 223 408 l 1
 323 408 l 1
 323 303 l 1
 544 524 l 1
 469 685 l 1
 551 723 l 1
 612 592 l 1
 733 713 l 1
 804 642 l 1
 657 495 l 1
 755 285 l 1
 958 488 l 1
 1029 417 l 1
 800 188 l 1
 875 27 l 1
EndSplineSet
EndChar

StartChar: sym05E_uni0338
Encoding: 127 -1 127
Width: 1231
Flags: HW
HStem: -92 100<508 612> -11 21G<394.842 447.242> 133 100<783 837> 693 20G<478.282 518>
VStem: 683 100<78 133> 908 100<303 408>
LayerCount: 2
Fore
SplineSet
733 183 m 1x3c
 733 233 l 1
 837 233 l 1
 642 428 l 1
 544 217 l 1
 683 78 l 1
 683 183 l 1
 733 183 l 1x3c
681 723 m 1
 762 685 l 1
 687 524 l 1
 908 303 l 1
 908 408 l 1
 1008 408 l 1
 1008 133 l 1
 783 133 l 1
 783 -92 l 1
 508 -92 l 1
 508 8 l 1
 612 8 l 1xbc
 499 121 l 1
 438 -11 l 1x7c
 356 27 l 1
 431 189 l 1
 203 417 l 1
 273 488 l 1
 476 285 l 1
 575 495 l 1
 428 642 l 1
 498 713 l 1
 620 591 l 1
 681 723 l 1
EndSplineSet
EndChar

StartChar: uni21C40338
Encoding: 128 -1 128
Width: 930
Flags: HW
HStem: 91 100<261 383 491 840> 409 100<90 439 547 669>
LayerCount: 2
Fore
SplineSet
485 671 m 1
 573 655 l 1
 547 509 l 1
 669 509 l 1
 595 583 l 1
 666 654 l 1
 861 459 l 1
 666 265 l 1
 595 335 l 1
 669 409 l 1
 530 409 l 1
 491 191 l 1
 840 191 l 1
 840 91 l 1
 474 91 l 1
 445 -71 l 1
 357 -55 l 1
 383 91 l 1
 261 91 l 1
 335 17 l 1
 264 -54 l 1
 69 141 l 1
 264 335 l 1
 335 265 l 1
 261 191 l 1
 400 191 l 1
 439 409 l 1
 90 409 l 1
 90 509 l 1
 456 509 l 1
 485 671 l 1
EndSplineSet
EndChar

StartChar: uni21C50338
Encoding: 129 -1 129
Width: 917
Flags: HW
VStem: 249 100<-75 176 308 504> 568 100<96 292 424 675>
LayerCount: 2
Fore
SplineSet
113 126 m 1
 82 211 l 1
 249 272 l 1
 249 504 l 1
 175 430 l 1
 105 501 l 1
 299 696 l 1
 494 501 l 1
 423 430 l 1
 349 504 l 1
 349 308 l 1
 568 388 l 1
 568 675 l 1
 668 675 l 1
 668 424 l 1
 804 474 l 1
 834 389 l 1
 668 328 l 1
 668 96 l 1
 741 170 l 1
 812 99 l 1
 618 -96 l 1
 423 99 l 1
 494 170 l 1
 568 96 l 1
 568 292 l 1
 349 212 l 1
 349 -75 l 1
 249 -75 l 1
 249 176 l 1
 113 126 l 1
EndSplineSet
EndChar

StartChar: sym061_uni0338
Encoding: 130 -1 130
Width: 1231
Flags: HW
HStem: -92 100<620 724> 592 100<508 612>
VStem: 448 100<78 183> 683 100<417 522>
LayerCount: 2
Fore
SplineSet
368 576 m 1
 441 628 l 1
 526 506 l 1
 612 592 l 1
 508 592 l 1
 508 692 l 1
 783 692 l 1
 783 417 l 1
 683 417 l 1
 683 522 l 1
 584 423 l 1
 712 242 l 1
 958 488 l 1
 1029 417 l 1
 770 158 l 1
 864 24 l 1
 790 -28 l 1
 705 93 l 1
 620 8 l 1
 724 8 l 1
 724 -92 l 1
 448 -92 l 1
 448 183 l 1
 548 183 l 1
 548 78 l 1
 647 177 l 1
 520 359 l 1
 273 112 l 1
 203 183 l 1
 462 442 l 1
 368 576 l 1
EndSplineSet
EndChar

StartChar: sym060_uni0338
Encoding: 131 -1 131
Width: 1231
Flags: HW
HStem: 133 100<733 837> 367 100<395 498> 693 20G<478.282 518>
VStem: 223 100<192 297> 908 100<303 408>
LayerCount: 2
Fore
SplineSet
494 -67 m 1
 413 -29 l 1
 488 132 l 1
 323 297 l 1
 323 192 l 1
 223 192 l 1
 223 467 l 1
 498 467 l 1
 498 367 l 1
 395 367 l 1
 533 229 l 1
 631 439 l 1
 428 642 l 1
 498 713 l 1
 676 535 l 1
 737 667 l 1
 819 629 l 1
 744 467 l 1
 908 303 l 1
 908 408 l 1
 1008 408 l 1
 1008 133 l 1
 733 133 l 1
 733 233 l 1
 837 233 l 1
 699 371 l 1
 601 161 l 1
 804 -42 l 1
 733 -113 l 1
 555 65 l 1
 494 -67 l 1
EndSplineSet
EndChar

StartChar: uni21C60338
Encoding: 132 -1 132
Width: 930
Flags: HW
HStem: 91 100<90 341 473 669> 409 100<261 457 589 840>
LayerCount: 2
Fore
SplineSet
554 676 m 1
 639 645 l 1
 589 509 l 1
 840 509 l 1
 840 409 l 1
 553 409 l 1
 473 191 l 1
 669 191 l 1
 595 265 l 1
 666 335 l 1
 861 141 l 1
 666 -54 l 1
 595 17 l 1
 669 91 l 1
 437 91 l 1
 376 -76 l 1
 291 -45 l 1
 341 91 l 1
 90 91 l 1
 90 191 l 1
 377 191 l 1
 457 409 l 1
 261 409 l 1
 335 335 l 1
 264 265 l 1
 69 459 l 1
 264 654 l 1
 335 583 l 1
 261 509 l 1
 493 509 l 1
 554 676 l 1
EndSplineSet
EndChar

StartChar: uni21F50338
Encoding: 133 -1 133
Width: 917
Flags: HW
VStem: 249 100<96 218 326 675> 568 100<-75 274 382 504>
LayerCount: 2
Fore
SplineSet
103 192 m 1
 88 280 l 1
 249 308 l 1
 249 675 l 1
 349 675 l 1
 349 326 l 1
 568 365 l 1
 568 504 l 1
 494 430 l 1
 423 501 l 1
 618 696 l 1
 812 501 l 1
 741 430 l 1
 668 504 l 1
 668 382 l 1
 813 408 l 1
 829 320 l 1
 668 292 l 1
 668 -75 l 1
 568 -75 l 1
 568 274 l 1
 349 235 l 1
 349 96 l 1
 423 170 l 1
 494 99 l 1
 299 -96 l 1
 105 99 l 1
 175 170 l 1
 249 96 l 1
 249 218 l 1
 103 192 l 1
EndSplineSet
EndChar

StartChar: sym063_uni0338
Encoding: 134 -1 134
Width: 1231
Flags: HW
HStem: 133 100<395 498> 367 100<733 837> 693 20G<713 753>
VStem: 223 100<303 408> 908 100<192 297>
LayerCount: 2
Fore
SplineSet
413 629 m 1
 494 667 l 1
 555 535 l 1
 733 713 l 1
 804 642 l 1
 601 439 l 1
 699 229 l 1
 837 367 l 1
 733 367 l 1
 733 467 l 1
 1008 467 l 1
 1008 192 l 1
 908 192 l 1
 908 297 l 1
 744 133 l 1
 819 -29 l 1
 737 -67 l 1
 676 65 l 1
 498 -113 l 1
 428 -42 l 1
 631 161 l 1
 533 371 l 1
 395 233 l 1
 498 233 l 1
 498 133 l 1
 223 133 l 1
 223 408 l 1
 323 408 l 1
 323 303 l 1
 488 468 l 1
 413 629 l 1
EndSplineSet
EndChar

StartChar: sym062_uni0338
Encoding: 135 -1 135
Width: 1231
Flags: HW
HStem: -92 100<508 612> 592 100<620 724>
VStem: 448 100<417 522> 683 100<78 183>
LayerCount: 2
Fore
SplineSet
441 -28 m 1
 368 24 l 1
 462 158 l 1
 203 417 l 1
 273 488 l 1
 520 241 l 1
 647 423 l 1
 548 522 l 1
 548 417 l 1
 448 417 l 1
 448 692 l 1
 724 692 l 1
 724 592 l 1
 620 592 l 1
 705 507 l 1
 790 628 l 1
 864 576 l 1
 770 442 l 1
 1029 183 l 1
 958 112 l 1
 712 358 l 1
 584 177 l 1
 683 78 l 1
 683 183 l 1
 783 183 l 1
 783 -92 l 1
 508 -92 l 1
 508 8 l 1
 612 8 l 1
 526 94 l 1
 441 -28 l 1
EndSplineSet
EndChar

StartChar: uni219D0338
Encoding: 136 57883 136
Width: 930
Flags: HW
HStem: 170 100<460.354 534.149> 250 100<613.021 669> 330 100<236.115 325.355>
LayerCount: 2
Fore
SplineSet
445 596 m 1xa0
 530 566 l 1
 440 320 l 1
 456 295 473 270 501 270 c 0xa0
 520 270 530 291 545 301 c 0
 576 323 614 350 646 350 c 2
 669 350 l 1
 595 424 l 1
 666 495 l 1
 861 300 l 1
 666 105 l 1
 595 176 l 1
 669 250 l 1
 646 250 l 2x40
 627 250 617 230 602 219 c 0
 571 197 540 170 501 170 c 0
 463 170 429 188 401 214 c 1
 325 4 l 1
 241 34 l 1
 336 295 l 1
 322 314 307 330 284 330 c 0
 233 330 210 274 181 232 c 1
 99 289 l 1
 147 357 202 430 284 430 c 0
 317 430 347 416 373 396 c 1
 445 596 l 1xa0
EndSplineSet
EndChar

StartChar: sym064_uni0338.alt
Encoding: 137 -1 137
Width: 758
Flags: HW
VStem: 249 100<71.1154 159.032> 329 100<448.021 504> 408 100<295.082 369.463>
LayerCount: 2
Fore
SplineSet
82 280 m 1xa0
 113 365 l 1
 359 275 l 1
 383 291 408 308 408 336 c 0xa0
 408 355 388 365 378 380 c 0
 356 411 329 449 329 481 c 2
 329 504 l 1
 255 430 l 1
 184 501 l 1
 379 696 l 1
 573 501 l 1
 503 430 l 1
 429 504 l 1
 429 481 l 2x40
 429 462 449 452 460 437 c 0
 482 406 508 375 508 336 c 0
 508 298 491 265 465 237 c 1
 675 160 l 1
 644 76 l 1
 384 170 l 1
 365 156 349 142 349 119 c 0
 349 68 405 45 447 16 c 1
 390 -66 l 1
 322 -18 249 37 249 119 c 0
 249 152 262 181 282 207 c 1
 82 280 l 1xa0
EndSplineSet
EndChar

StartChar: uni219C0338.alt
Encoding: 138 -1 138
Width: 930
Flags: HW
HStem: 170 100<604.645 693.885> 250 100<261 316.979> 330 100<395.851 469.646>
LayerCount: 2
Fore
SplineSet
485 4 m 1xa0
 400 34 l 1
 490 280 l 1
 474 305 457 330 429 330 c 0xa0
 410 330 400 309 385 299 c 0
 354 277 316 250 284 250 c 2
 261 250 l 1
 335 176 l 1
 264 105 l 1
 69 300 l 1
 264 495 l 1
 335 424 l 1
 261 350 l 1
 284 350 l 2x40
 303 350 313 370 328 381 c 0
 359 403 390 430 429 430 c 0
 467 430 501 412 529 386 c 1
 605 596 l 1
 689 566 l 1
 594 305 l 1
 608 286 623 270 646 270 c 0
 697 270 720 326 749 368 c 1
 831 311 l 1
 783 243 728 170 646 170 c 0
 613 170 583 184 557 204 c 1
 485 4 l 1xa0
EndSplineSet
EndChar

StartChar: sym065_uni0338
Encoding: 139 -1 139
Width: 758
Flags: HW
VStem: 249 100<230.851 304.918> 329 100<96 151.979> 408 100<440.968 528.885>
LayerCount: 2
Fore
SplineSet
675 320 m 1xa0
 644 235 l 1
 398 325 l 1
 374 309 349 292 349 264 c 0xa0
 349 245 369 235 380 220 c 0
 402 189 429 151 429 119 c 2
 429 96 l 1
 503 170 l 1
 573 99 l 1
 379 -96 l 1
 184 99 l 1
 255 170 l 1
 329 96 l 1
 329 119 l 2x40
 329 138 309 148 298 163 c 0
 276 194 249 225 249 264 c 0
 249 302 266 335 292 363 c 1
 82 440 l 1
 113 524 l 1
 373 430 l 1
 392 444 408 458 408 481 c 0
 408 532 352 555 310 584 c 1
 368 666 l 1
 436 618 508 563 508 481 c 0
 508 448 495 419 475 393 c 1
 675 320 l 1xa0
EndSplineSet
EndChar

StartChar: uni219D0338.alt
Encoding: 140 -1 140
Width: 930
Flags: HW
HStem: 170 100<237.206 288.948> 250 100<613.021 669> 330 100<480.547 534.149>
LayerCount: 2
Fore
SplineSet
445 596 m 1xa0
 530 566 l 1
 480 428 l 1
 487 429 494 430 501 430 c 0xa0
 540 430 571 403 602 381 c 0
 617 370 627 350 646 350 c 2
 669 350 l 1
 595 424 l 1
 666 495 l 1
 861 300 l 1
 666 105 l 1
 595 176 l 1
 669 250 l 1
 646 250 l 2x40
 614 250 576 277 545 299 c 0
 530 309 520 330 501 330 c 0
 469 330 452 298 434 271 c 0
 427 261 420 251 412 242 c 1
 325 4 l 1
 241 34 l 1
 290 170 l 1
 288 170 286 170 284 170 c 0
 202 170 147 243 99 311 c 1
 181 368 l 1
 210 326 233 270 284 270 c 0
 311 270 328 293 344 317 c 1
 445 596 l 1xa0
EndSplineSet
EndChar

StartChar: sym064_uni0338
Encoding: 141 -1 141
Width: 758
Flags: HW
VStem: 249 100<315.547 369.149> 329 100<448.021 504> 408 100<72.2057 123.936>
LayerCount: 2
Fore
SplineSet
82 280 m 1xa0
 113 365 l 1
 251 315 l 1
 250 322 249 329 249 336 c 0xa0
 249 375 276 406 298 437 c 0
 309 452 329 462 329 481 c 2
 329 504 l 1
 255 430 l 1
 184 501 l 1
 379 696 l 1
 573 501 l 1
 503 430 l 1
 429 504 l 1
 429 481 l 2x40
 429 449 402 411 380 380 c 0
 369 365 349 355 349 336 c 0
 349 304 381 287 407 269 c 0
 417 262 426 255 435 247 c 1
 675 160 l 1
 644 76 l 1
 508 125 l 1
 508 123 508 121 508 119 c 0
 508 37 436 -18 368 -66 c 1
 310 16 l 1
 352 45 408 68 408 119 c 0
 408 146 385 162 362 178 c 1
 82 280 l 1xa0
EndSplineSet
EndChar

StartChar: uni219C0338
Encoding: 142 -1 142
Width: 930
Flags: HW
HStem: 170 100<395.851 449.453> 250 100<261 316.979> 330 100<641.052 692.794>
LayerCount: 2
Fore
SplineSet
485 4 m 1xa0
 400 34 l 1
 450 172 l 1
 443 171 436 170 429 170 c 0xa0
 390 170 359 197 328 219 c 0
 313 230 303 250 284 250 c 2
 261 250 l 1
 335 176 l 1
 264 105 l 1
 69 300 l 1
 264 495 l 1
 335 424 l 1
 261 350 l 1
 284 350 l 2x40
 316 350 354 323 385 301 c 0
 400 291 410 270 429 270 c 0
 461 270 478 302 496 329 c 0
 503 339 510 349 518 358 c 1
 605 596 l 1
 689 566 l 1
 640 430 l 1
 642 430 644 430 646 430 c 0
 728 430 783 357 831 289 c 1
 749 232 l 1
 720 274 697 330 646 330 c 0
 619 330 602 307 586 283 c 1
 485 4 l 1xa0
EndSplineSet
EndChar

StartChar: sym065_uni0338.alt
Encoding: 143 -1 143
Width: 758
Flags: HW
VStem: 249 100<476.064 527.794> 329 100<96 151.979> 408 100<230.537 284.453>
LayerCount: 2
Fore
SplineSet
675 320 m 1xa0
 644 235 l 1
 506 285 l 1
 507 278 508 271 508 264 c 0xa0
 508 225 482 194 460 163 c 0
 449 148 429 138 429 119 c 2
 429 96 l 1
 503 170 l 1
 573 99 l 1
 379 -96 l 1
 184 99 l 1
 255 170 l 1
 329 96 l 1
 329 119 l 2x40
 329 151 356 189 378 220 c 0
 388 235 408 245 408 264 c 0
 408 296 376 313 350 331 c 0
 340 338 331 345 322 353 c 1
 82 440 l 1
 113 524 l 1
 249 475 l 1
 249 477 249 479 249 481 c 0
 249 563 322 618 390 666 c 1
 447 584 l 1
 405 555 349 532 349 481 c 0
 349 454 372 438 395 422 c 1
 675 320 l 1xa0
EndSplineSet
EndChar

StartChar: uni21AD0338
Encoding: 144 -1 144
Width: 1080
Flags: HW
HStem: 170 100<607.624 676.68> 250 100<261 317.855 762.145 819> 330 100<397.838 472.421>
LayerCount: 2
Fore
SplineSet
649 270 m 1xa0
 756 348 768 350 795 350 c 2
 819 350 l 1
 745 424 l 1
 816 495 l 1
 1011 300 l 1
 816 105 l 1
 745 176 l 1
 819 250 l 1
 795 250 l 2x40
 776 250 766 230 751 219 c 0
 719 197 681 170 649 170 c 0
 613 170 582 185 555 208 c 1
 480 4 l 1
 395 34 l 1
 488 288 l 1
 473 310 456 330 431 330 c 0xa0
 412 330 402 309 387 299 c 0
 355 277 324 250 285 250 c 2
 261 250 l 1
 335 176 l 1
 264 105 l 1
 69 300 l 1
 264 495 l 1
 335 424 l 1
 261 350 l 1
 285 350 l 2x40
 304 350 314 370 329 381 c 0
 361 403 392 430 431 430 c 0
 467 430 498 415 525 392 c 1
 600 596 l 1
 685 566 l 1
 592 312 l 1
 607 290 624 270 649 270 c 1xa0
EndSplineSet
EndChar

StartChar: sym066_uni0338.alt
Encoding: 145 -1 145
Width: 758
Flags: HW
VStem: 249 100<157.838 232.421> 329 100<21 77.8546 521.778 579> 408 100<367.534 438.456>
LayerCount: 2
Fore
SplineSet
408 409 m 1xa0
 329 524 329 525 329 555 c 2
 329 579 l 1
 255 505 l 1
 184 576 l 1
 379 771 l 1
 573 576 l 1
 503 505 l 1
 429 579 l 1
 429 555 l 2x40
 429 536 449 526 460 511 c 0
 482 479 508 441 508 409 c 0
 508 373 493 342 470 315 c 1
 675 240 l 1
 644 155 l 1
 390 248 l 1
 369 233 349 216 349 191 c 0xa0
 349 172 369 162 380 147 c 0
 402 115 429 84 429 45 c 2
 429 21 l 1
 503 95 l 1
 573 24 l 1
 379 -171 l 1
 184 24 l 1
 255 95 l 1
 329 21 l 1
 329 45 l 2x40
 329 64 309 74 298 89 c 0
 276 121 249 152 249 191 c 0
 249 227 264 258 287 285 c 1
 82 360 l 1
 113 445 l 1
 367 352 l 1
 389 367 408 384 408 409 c 1xa0
EndSplineSet
EndChar

StartChar: uni21AD0338.alt
Encoding: 146 -1 146
Width: 1080
Flags: HW
HStem: 170 100<397.838 444.237> 250 100<261 317.855 762.145 819> 330 100<636.292 676.68>
LayerCount: 2
Fore
SplineSet
795 250 m 2x40
 768 250 756 252 649 330 c 1
 617 330 599 298 581 271 c 0
 579 268 576 264 574 261 c 1
 480 4 l 1
 395 34 l 1
 445 171 l 1
 440 170 436 170 431 170 c 0xa0
 392 170 361 197 329 219 c 0
 314 230 304 250 285 250 c 2
 261 250 l 1
 335 176 l 1
 264 105 l 1
 69 300 l 1
 264 495 l 1
 335 424 l 1
 261 350 l 1
 285 350 l 2x40
 324 350 355 323 387 301 c 0
 402 291 412 270 431 270 c 0
 463 270 481 302 499 329 c 0
 501 332 504 336 506 339 c 1
 600 596 l 1
 685 566 l 1
 635 429 l 1
 640 430 644 430 649 430 c 0xa0
 681 430 719 403 751 381 c 0
 766 370 776 350 795 350 c 2
 819 350 l 1
 745 424 l 1
 816 495 l 1
 1011 300 l 1
 816 105 l 1
 745 176 l 1
 819 250 l 1
 795 250 l 2x40
EndSplineSet
EndChar

StartChar: sym066_uni0338
Encoding: 147 -1 147
Width: 758
Flags: HW
VStem: 329 100<21 77.8546 522.145 579> 408 100<157.524 204.237>
LayerCount: 2
Fore
SplineSet
82 360 m 1x40
 113 445 l 1
 250 395 l 1
 249 400 249 404 249 409 c 0
 249 441 276 479 298 511 c 0
 309 526 329 536 329 555 c 2
 329 579 l 1
 255 505 l 1
 184 576 l 1
 379 771 l 1
 573 576 l 1
 503 505 l 1
 429 579 l 1
 429 555 l 2x80
 429 516 402 485 380 453 c 0
 369 438 349 409 349 409 c 1
 349 377 381 359 407 341 c 0
 410 339 413 336 416 334 c 1
 675 240 l 1
 644 155 l 1
 507 205 l 1
 508 200 508 196 508 191 c 0x40
 508 152 482 121 460 89 c 0
 449 74 429 64 429 45 c 2
 429 21 l 1
 503 95 l 1
 573 24 l 1
 379 -171 l 1
 184 24 l 1
 255 95 l 1
 329 21 l 1
 329 45 l 2x80
 329 84 356 115 378 147 c 0
 388 162 408 172 408 191 c 0
 408 223 377 241 350 259 c 0
 347 261 344 264 341 266 c 1
 82 360 l 1x40
EndSplineSet
EndChar

StartChar: sym069_uni0338
Encoding: 148 -1 148
Width: 930
Flags: HW
HStem: 330 100<321.519 422>
LayerCount: 2
Fore
SplineSet
420 430 m 0
 424 430 431 431 440 430 c 1
 471 607 l 1
 559 591 l 1
 527 412 l 1
 601 387 665 340 719 280 c 1
 727 369 l 1
 827 361 l 1
 803 87 l 1
 529 111 l 1
 538 210 l 1
 657 200 l 1
 616 250 567 291 510 313 c 1
 459 25 l 1
 371 41 l 1
 422 330 l 1
 421 330 l 0
 324 330 238 273 181 192 c 1
 99 249 l 1
 175 357 290 430 420 430 c 0
EndSplineSet
EndChar

StartChar: sym068_uni0338
Encoding: 149 -1 149
Width: 758
Flags: HW
VStem: 249 100<156.256 257>
LayerCount: 2
Fore
SplineSet
249 254 m 0
 249 258 248 266 249 275 c 1
 72 306 l 1
 88 394 l 1
 267 362 l 1
 292 436 339 500 399 554 c 1
 309 562 l 1
 318 662 l 1
 592 638 l 1
 568 364 l 1
 469 373 l 1
 479 492 l 1
 429 451 388 402 366 345 c 1
 654 294 l 1
 638 206 l 1
 349 257 l 1
 349 256 349 256 349 255 c 0
 349 159 406 73 487 16 c 1
 430 -66 l 1
 322 10 249 125 249 254 c 0
EndSplineSet
EndChar

StartChar: sym067_uni0338
Encoding: 150 -1 150
Width: 930
Flags: HW
HStem: -7 21G<371 462.503> 170 100<508 608.744>
LayerCount: 2
Fore
SplineSet
511 170 m 0
 507 170 499 169 490 170 c 1
 459 -7 l 1
 371 9 l 1
 403 188 l 1
 329 213 265 260 211 320 c 1
 203 231 l 1
 103 239 l 1
 127 513 l 1
 401 489 l 1
 392 390 l 1
 273 400 l 1
 314 350 363 309 420 287 c 1
 471 575 l 1
 559 559 l 1
 508 270 l 1
 509 270 509 270 510 270 c 0
 606 270 692 327 749 408 c 1
 831 351 l 1
 755 243 640 170 511 170 c 0
EndSplineSet
EndChar

StartChar: uni29380338
Encoding: 151 -1 151
Width: 758
Flags: HW
VStem: 408 100<343 444.96>
LayerCount: 2
Fore
SplineSet
508 348 m 0
 508 347 509 337 508 325 c 1
 686 294 l 1
 670 206 l 1
 491 238 l 1
 467 164 419 100 359 46 c 1
 448 38 l 1
 440 -62 l 1
 165 -38 l 1
 189 236 l 1
 289 227 l 1
 279 108 l 1
 329 149 370 198 392 255 c 1
 104 306 l 1
 119 394 l 1
 408 343 l 1
 408 344 408 346 408 347 c 0
 408 442 350 528 271 584 c 1
 328 666 l 1
 435 591 508 476 508 348 c 0
EndSplineSet
EndChar

StartChar: sym06C_uni0338
Encoding: 152 -1 152
Width: 1119
Flags: HW
HStem: 368 99<595.713 753>
VStem: 330 99<21.0222 204.711>
LayerCount: 2
Fore
SplineSet
330 88 m 0
 330 201 372 304 450 373 c 1
 346 521 l 1
 420 573 l 1
 525 424 l 1
 585 454 653 467 722 467 c 0
 733 467 742 467 753 466 c 1
 696 535 l 1
 772 599 l 1
 949 388 l 1
 738 211 l 1
 674 288 l 1
 766 365 l 1
 750 367 733 368 717 368 c 0
 670 368 624 359 582 341 c 1
 750 102 l 1
 676 50 l 1
 507 291 l 1
 453 238 429 164 429 88 c 0
 429 66 431 44 435 23 c 1
 337 5 l 1
 332 33 330 60 330 88 c 0
EndSplineSet
EndChar

StartChar: sym06B_uni0338
Encoding: 153 -1 153
Width: 1119
Flags: HW
HStem: 70 100<656.065 838.624>
VStem: 393 99<334.053 494>
LayerCount: 2
Fore
SplineSet
772 70 m 0
 678 70 567 99 486 191 c 1
 338 87 l 1
 287 161 l 1
 436 265 l 1
 406 325 393 392 393 461 c 0
 393 472 393 483 394 494 c 1
 325 436 l 1
 261 513 l 1
 471 690 l 1
 648 479 l 1
 572 415 l 1
 495 507 l 1
 493 491 492 474 492 458 c 0
 492 411 500 365 518 323 c 1
 758 491 l 1
 809 417 l 1
 568 248 l 1
 622 194 696 170 772 170 c 0
 794 170 815 172 837 176 c 1
 854 77 l 1
 827 72 799 70 772 70 c 0
EndSplineSet
EndChar

StartChar: uni29360338
Encoding: 154 -1 154
Width: 1119
Flags: HW
HStem: 1 21G<329.318 370.062> 133 99<365 524.405> 530 20G<414.538 456.942>
VStem: 689 100<395.595 578.978>
LayerCount: 2
Fore
SplineSet
789 512 m 0
 789 399 748 295 669 226 c 1
 772 79 l 1
 699 27 l 1
 594 176 l 1
 534 146 466 133 397 133 c 0
 386 133 376 133 365 134 c 1
 423 65 l 1
 346 1 l 1
 170 212 l 1
 380 389 l 1
 445 312 l 1
 352 235 l 1
 369 233 386 232 402 232 c 0
 449 232 496 240 537 259 c 1
 369 498 l 1
 443 550 l 1
 611 309 l 1
 665 362 689 438 689 514 c 0
 689 535 688 556 684 577 c 1
 782 595 l 1
 787 567 789 540 789 512 c 0
EndSplineSet
EndChar

StartChar: uni29350338
Encoding: 155 -1 155
Width: 1119
Flags: HW
HStem: 430 100<280.376 464.315>
VStem: 627 99<106 265.898>
LayerCount: 2
Fore
SplineSet
347 530 m 0
 412 530 540 515 633 410 c 1
 780 513 l 1
 832 439 l 1
 683 335 l 1
 713 275 726 207 726 138 c 0
 726 127 726 117 725 106 c 1
 794 164 l 1
 858 87 l 1
 647 -90 l 1
 471 121 l 1
 547 185 l 1
 624 94 l 1
 626 110 627 127 627 143 c 0
 627 190 619 236 601 277 c 1
 361 109 l 1
 309 183 l 1
 550 352 l 1
 497 406 423 430 347 430 c 0
 325 430 304 428 282 424 c 1
 265 523 l 1
 292 528 320 530 347 530 c 0
EndSplineSet
EndChar

StartChar: uni293B0338
Encoding: 156 -1 156
Width: 930
Flags: HW
HStem: 170 100<321.519 421.688>
LayerCount: 2
Fore
SplineSet
458 172 m 1
 444 170 432 170 420 170 c 0
 290 170 175 243 99 351 c 1
 181 408 l 1
 238 327 324 270 421 270 c 0
 422 270 l 1
 320 550 l 1
 405 581 l 1
 512 288 l 1
 568 310 617 351 657 400 c 1
 538 390 l 1
 529 489 l 1
 803 513 l 1
 827 239 l 1
 727 231 l 1
 719 320 l 1
 670 265 612 220 546 194 c 1
 610 18 l 1
 525 -12 l 1
 458 172 l 1
EndSplineSet
EndChar

StartChar: sym06A_uni0338
Encoding: 157 -1 157
Width: 758
Flags: HW
VStem: 408 100<155.04 256.934>
LayerCount: 2
Fore
SplineSet
506 293 m 1
 508 275 508 258 508 252 c 0
 508 124 435 9 328 -66 c 1
 271 16 l 1
 350 72 408 158 408 253 c 0
 408 254 408 256 408 257 c 1
 129 155 l 1
 98 240 l 1
 391 347 l 1
 369 403 328 452 279 492 c 1
 289 373 l 1
 189 364 l 1
 165 638 l 1
 440 662 l 1
 448 562 l 1
 359 554 l 1
 414 505 458 447 484 381 c 1
 660 445 l 1
 691 360 l 1
 506 293 l 1
EndSplineSet
EndChar

StartChar: uni293A0338
Encoding: 158 -1 158
Width: 930
Flags: HW
HStem: 330 100<508.169 608.744>
LayerCount: 2
Fore
SplineSet
472 428 m 1
 486 430 499 430 511 430 c 0
 640 430 755 357 831 249 c 1
 749 192 l 1
 692 273 606 330 510 330 c 0
 509 330 509 330 508 330 c 1
 610 50 l 1
 525 19 l 1
 418 312 l 1
 362 290 313 249 273 200 c 1
 392 210 l 1
 401 111 l 1
 127 87 l 1
 103 361 l 1
 203 369 l 1
 211 280 l 1
 260 335 318 380 384 406 c 1
 320 582 l 1
 405 612 l 1
 472 428 l 1
EndSplineSet
EndChar

StartChar: uni29390338
Encoding: 159 -1 159
Width: 758
Flags: HW
VStem: 249 100<343.169 443.744>
LayerCount: 2
Fore
SplineSet
251 307 m 1
 249 321 249 334 249 346 c 0
 249 475 322 590 430 666 c 1
 487 584 l 1
 406 527 349 441 349 345 c 0
 349 344 349 344 349 343 c 1
 629 445 l 1
 659 360 l 1
 367 253 l 1
 389 197 429 148 479 108 c 1
 469 227 l 1
 568 236 l 1
 592 -38 l 1
 318 -62 l 1
 309 38 l 1
 399 46 l 1
 344 95 299 153 273 219 c 1
 97 155 l 1
 66 240 l 1
 251 307 l 1
EndSplineSet
EndChar

StartChar: uni29340338
Encoding: 160 -1 160
Width: 1119
Flags: HW
HStem: 70 100<280.376 461.62>
VStem: 627 99<334.777 494>
LayerCount: 2
Fore
SplineSet
645 205 m 1
 608 158 516 70 347 70 c 0
 320 70 292 72 265 77 c 1
 282 176 l 1
 304 172 325 170 347 170 c 0
 423 170 497 195 550 249 c 1
 281 374 l 1
 319 456 l 1
 601 324 l 1
 619 365 627 410 627 457 c 0
 627 473 626 490 624 506 c 1
 547 415 l 1
 471 479 l 1
 647 690 l 1
 858 513 l 1
 794 436 l 1
 725 494 l 1
 726 483 726 473 726 462 c 0
 726 399 715 338 691 282 c 1
 861 203 l 1
 823 122 l 1
 645 205 l 1
EndSplineSet
EndChar

StartChar: sym06D_uni0338
Encoding: 161 -1 161
Width: 1119
Flags: HW
HStem: 368 99<365 524.223>
VStem: 689 100<21.0219 202.159>
LayerCount: 2
Fore
SplineSet
655 385 m 1
 701 349 789 257 789 88 c 0
 789 60 787 33 782 5 c 1
 684 23 l 1
 688 44 689 65 689 86 c 0
 689 162 666 238 611 291 c 1
 485 21 l 1
 403 59 l 1
 535 342 l 1
 494 360 449 368 402 368 c 0
 386 368 369 367 352 365 c 1
 445 288 l 1
 380 211 l 1
 170 388 l 1
 346 599 l 1
 423 535 l 1
 365 466 l 1
 376 467 386 467 397 467 c 0
 460 467 521 456 577 432 c 1
 656 601 l 1
 738 563 l 1
 655 385 l 1
EndSplineSet
EndChar

StartChar: sym06E_uni0338
Encoding: 162 -1 162
Width: 1119
Flags: HW
HStem: 430 100<657.868 838.624>
VStem: 393 99<106 265.451>
LayerCount: 2
Fore
SplineSet
474 395 m 1
 513 445 605 530 772 530 c 0
 799 530 827 528 854 523 c 1
 837 424 l 1
 815 428 794 430 772 430 c 0
 696 430 622 405 568 351 c 1
 838 226 l 1
 800 144 l 1
 518 276 l 1
 500 235 492 189 492 142 c 0
 492 126 493 109 495 93 c 1
 572 185 l 1
 648 121 l 1
 471 -90 l 1
 261 87 l 1
 325 164 l 1
 394 106 l 1
 393 117 393 128 393 139 c 0
 393 201 404 263 428 318 c 1
 258 397 l 1
 296 478 l 1
 474 395 l 1
EndSplineSet
EndChar

StartChar: uni29370338
Encoding: 163 -1 163
Width: 1119
Flags: HW
HStem: 1 21G<419.368 471.294 748.25 788.777> 133 99<593.902 753>
VStem: 330 99<397.388 578.978>
LayerCount: 2
Fore
SplineSet
464 215 m 1
 418 251 330 343 330 512 c 0
 330 540 332 567 337 595 c 1
 435 577 l 1
 431 556 429 534 429 512 c 0
 429 436 454 362 508 309 c 1
 634 579 l 1
 715 541 l 1
 583 258 l 1
 624 240 670 232 717 232 c 0
 733 232 750 233 766 235 c 1
 674 312 l 1
 738 389 l 1
 949 212 l 1
 772 1 l 1
 696 65 l 1
 753 134 l 1
 742 133 733 133 722 133 c 0
 659 133 597 145 541 169 c 1
 462 -1 l 1
 381 37 l 1
 464 215 l 1
EndSplineSet
EndChar

StartChar: sym06F_uni0338
Encoding: 164 -1 164
Width: 1080
Flags: HW
HStem: 326 103<422.699 492 600 658.375>
LayerCount: 2
Fore
SplineSet
546 631 m 1
 634 615 l 1
 600 425 l 1
 701 409 791 354 862 277 c 1
 870 369 l 1
 969 361 l 1
 945 87 l 1
 671 111 l 1
 680 210 l 1
 797 200 l 1
 740 266 667 314 583 327 c 1
 534 49 l 1
 446 64 l 1
 492 326 l 1
 410 312 339 264 283 200 c 1
 400 210 l 1
 409 111 l 1
 135 87 l 1
 111 361 l 1
 210 369 l 1
 218 277 l 1
 296 362 397 420 510 429 c 1
 546 631 l 1
EndSplineSet
EndChar

StartChar: sym070_uni0338
Encoding: 165 -1 165
Width: 758
Flags: HW
VStem: 254 98<184.4 240 348 417.301>
LayerCount: 2
Fore
SplineSet
64 206 m 1
 48 294 l 1
 250 330 l 1
 259 443 317 544 402 622 c 1
 309 630 l 1
 318 729 l 1
 592 705 l 1
 568 431 l 1
 469 440 l 1
 479 557 l 1
 415 501 367 430 353 348 c 1
 614 394 l 1
 630 306 l 1
 352 257 l 1
 365 173 413 100 479 43 c 1
 469 160 l 1
 568 169 l 1
 592 -105 l 1
 318 -129 l 1
 309 -30 l 1
 402 -22 l 1
 325 49 270 139 254 240 c 1
 64 206 l 1
EndSplineSet
EndChar

StartChar: sym071_uni0338
Encoding: 166 -1 166
Width: 1080
Flags: HW
HStem: 175 98<424.4 480 588 657.301> 531 20G<542.475 634>
LayerCount: 2
Fore
SplineSet
534 -31 m 1
 446 -15 l 1
 480 175 l 1
 379 191 289 246 218 323 c 1
 210 231 l 1
 111 239 l 1
 135 513 l 1
 409 489 l 1
 400 390 l 1
 283 400 l 1
 340 334 413 286 497 273 c 1
 546 551 l 1
 634 536 l 1
 588 274 l 1
 670 288 741 336 797 400 c 1
 680 390 l 1
 671 489 l 1
 945 513 l 1
 969 239 l 1
 870 231 l 1
 862 323 l 1
 784 238 683 180 570 171 c 1
 534 -31 l 1
EndSplineSet
EndChar

StartChar: sym072_uni0338
Encoding: 167 -1 167
Width: 758
Flags: HW
VStem: 404 103<182.699 252 360 418.375>
LayerCount: 2
Fore
SplineSet
694 394 m 1
 710 306 l 1
 507 270 l 1
 498 157 440 56 356 -22 c 1
 448 -30 l 1
 440 -129 l 1
 165 -105 l 1
 189 169 l 1
 289 160 l 1
 279 43 l 1
 343 99 390 170 404 252 c 1
 143 206 l 1
 128 294 l 1
 405 343 l 1
 393 427 344 500 279 557 c 1
 289 440 l 1
 189 431 l 1
 165 705 l 1
 440 729 l 1
 448 630 l 1
 356 622 l 1
 433 551 487 461 503 360 c 1
 694 394 l 1
EndSplineSet
EndChar

StartChar: sym074_uni0338
Encoding: 168 -1 168
Width: 1225
Flags: HW
HStem: 412 100<702.891 855.67>
VStem: 401 99<56.25 209.702>
LayerCount: 2
Fore
SplineSet
383 538 m 1
 456 589 l 1
 567 431 l 1
 644 487 737 512 833 512 c 0
 841 512 848 511 856 511 c 1
 797 582 l 1
 873 647 l 1
 1050 436 l 1
 839 259 l 1
 775 336 l 1
 865 411 l 1
 855 412 843 412 833 412 c 0
 757 412 684 393 624 349 c 1
 786 118 l 1
 712 67 l 1
 560 284 l 1
 518 225 500 155 500 81 c 0
 500 70 501 59 502 48 c 1
 577 137 l 1
 653 73 l 1
 477 -138 l 1
 266 39 l 1
 330 116 l 1
 401 56 l 1
 401 63 401 70 401 77 c 0
 401 184 432 289 501 370 c 1
 383 538 l 1
EndSplineSet
EndChar

StartChar: sym073_uni0338
Encoding: 169 -1 169
Width: 1225
Flags: HW
HStem: 88 100<702.891 855.67>
VStem: 401 99<390.298 543.75>
LayerCount: 2
Fore
SplineSet
456 11 m 1
 383 62 l 1
 501 230 l 1
 432 311 401 416 401 523 c 0
 401 530 401 537 401 544 c 1
 330 484 l 1
 266 561 l 1
 477 738 l 1
 653 527 l 1
 577 463 l 1
 502 552 l 1
 501 541 500 530 500 519 c 0
 500 445 518 375 560 316 c 1
 712 533 l 1
 786 482 l 1
 624 251 l 1
 684 207 757 188 833 188 c 0
 843 188 855 188 865 189 c 1
 775 264 l 1
 839 341 l 1
 1050 164 l 1
 873 -47 l 1
 797 18 l 1
 856 89 l 1
 848 89 841 88 833 88 c 0
 737 88 644 113 567 169 c 1
 456 11 l 1
EndSplineSet
EndChar

StartChar: sym076_uni0338
Encoding: 170 -1 170
Width: 1225
Flags: HW
HStem: 88 100<369.118 519.849>
VStem: 724 100<390.298 543.906>
LayerCount: 2
Fore
SplineSet
842 62 m 1
 769 11 l 1
 658 169 l 1
 581 113 489 88 392 88 c 0
 384 88 377 89 369 89 c 1
 428 18 l 1
 352 -47 l 1
 175 164 l 1
 386 341 l 1
 450 264 l 1
 360 189 l 1
 370 188 381 188 391 188 c 0
 467 188 541 207 601 251 c 1
 439 482 l 1
 513 533 l 1
 664 316 l 1
 706 375 724 446 724 520 c 0
 724 531 724 541 723 552 c 1
 648 463 l 1
 571 527 l 1
 748 738 l 1
 959 561 l 1
 895 484 l 1
 824 544 l 1
 824 537 824 530 824 523 c 0
 824 416 793 311 724 230 c 1
 842 62 l 1
EndSplineSet
EndChar

StartChar: sym075_uni0338
Encoding: 171 -1 171
Width: 1225
Flags: HW
HStem: 412 100<369.118 519.849>
VStem: 724 100<56.0938 209.702>
LayerCount: 2
Fore
SplineSet
769 589 m 1
 842 538 l 1
 724 370 l 1
 793 289 824 184 824 77 c 0
 824 70 824 63 824 56 c 1
 895 116 l 1
 959 39 l 1
 748 -138 l 1
 571 73 l 1
 648 137 l 1
 723 48 l 1
 724 59 724 69 724 80 c 0
 724 154 706 225 664 284 c 1
 513 67 l 1
 439 118 l 1
 601 349 l 1
 541 393 467 412 391 412 c 0
 381 412 370 412 360 411 c 1
 450 336 l 1
 386 259 l 1
 175 436 l 1
 352 647 l 1
 428 582 l 1
 369 511 l 1
 377 511 384 512 392 512 c 0
 489 512 581 487 658 431 c 1
 769 589 l 1
EndSplineSet
EndChar

StartChar: sym077_uni0338
Encoding: 172 -1 172
Width: 930
Flags: HW
HStem: 250 100<190 399 531 840>
VStem: 90 100<91 250 350 509>
LayerCount: 2
Fore
SplineSet
525 596 m 1
 610 566 l 1
 531 350 l 1
 840 350 l 1
 840 250 l 1
 495 250 l 1
 405 4 l 1
 320 34 l 1
 399 250 l 1
 190 250 l 1
 190 91 l 1
 90 91 l 1
 90 509 l 1
 190 509 l 1
 190 350 l 1
 435 350 l 1
 525 596 l 1
EndSplineSet
EndChar

StartChar: sym078_uni0338
Encoding: 173 -1 173
Width: 930
Flags: HW
HStem: 250 100<90 399 531 740>
VStem: 740 100<91 250 350 509>
LayerCount: 2
Fore
SplineSet
405 4 m 1
 320 34 l 1
 399 250 l 1
 90 250 l 1
 90 350 l 1
 435 350 l 1
 525 596 l 1
 610 566 l 1
 531 350 l 1
 740 350 l 1
 740 509 l 1
 840 509 l 1
 840 91 l 1
 740 91 l 1
 740 250 l 1
 495 250 l 1
 405 4 l 1
EndSplineSet
EndChar

StartChar: sym079_uni0338
Encoding: 174 -1 174
Width: 1260
Flags: HW
HStem: -184 100<608 753.431> -4 21G<1079.66 1142.29> 684 100<509.477 652>
VStem: 146 100<179.094 421.633> 1008 99<382.798 441.427>
LayerCount: 2
Fore
SplineSet
630 684 m 0
 419 684 246 511 246 300 c 0
 246 129 360 -19 519 -67 c 1
 652 683 l 1
 645 683 637 684 630 684 c 0
146 300 m 0
 146 566 364 784 630 784 c 0
 643 784 656 783 669 782 c 1
 681 848 l 1
 770 832 l 1
 758 767 l 1
 838 745 912 702 972 642 c 0
 1042 572 1089 482 1107 384 c 1
 1008 367 l 1
 980 519 870 628 741 667 c 1
 608 -83 l 1
 615 -83 623 -84 630 -84 c 0
 732 -84 829 -43 901 29 c 0
 935 62 962 101 981 144 c 1
 863 101 l 1
 829 195 l 1
 1087 289 l 1
 1181 30 l 1
 1087 -4 l 1
 1058 75 l 1
 1035 32 1007 -7 972 -42 c 0
 881 -133 758 -184 630 -184 c 0
 617 -184 604 -183 591 -182 c 1
 579 -248 l 1
 490 -232 l 1
 502 -167 l 1
 293 -109 146 82 146 300 c 0
EndSplineSet
EndChar

StartChar: uni21BA0338
Encoding: 175 -1 175
Width: 1260
Flags: HW
HStem: -184 100<506.39 751.633> 678 99<492.448 547.202> 696 20G<1032.11 1072.81>
VStem: 146 100<173.27 424.678> 1014 100<178.367 426.73>
LayerCount: 2
Fore
SplineSet
630 -84 m 0x98
 841 -84 1014 89 1014 300 c 0
 1014 375 992 448 951 510 c 1
 367 21 l 1
 438 -46 532 -84 630 -84 c 0x98
563 678 m 1xd8
 376 644 246 481 246 300 c 0
 246 225 268 152 309 90 c 1
 893 579 l 1
 862 609 825 633 786 651 c 1
 829 533 l 1
 735 499 l 1
 641 757 l 1
 900 851 l 1
 934 757 l 1
 855 728 l 1
 897 706 936 678 970 644 c 1
 1056 716 l 1xb8
 1114 647 l 1
 1028 575 l 1
 1084 495 1114 399 1114 300 c 0
 1114 34 896 -184 630 -184 c 0
 503 -184 381 -134 290 -44 c 1
 204 -116 l 1
 146 -47 l 1
 232 25 l 1
 176 105 146 201 146 300 c 0
 146 532 312 734 546 777 c 1
 563 678 l 1xd8
EndSplineSet
EndChar

StartChar: uni27F20338
Encoding: 176 -1 176
Width: 1260
Flags: HW
HStem: -184 100<608 750.523> 684 100<506.569 652>
VStem: 153 99<158.573 217.202> 1014 100<178.367 420.906>
LayerCount: 2
Fore
SplineSet
630 -84 m 0
 841 -84 1014 89 1014 300 c 0
 1014 471 900 619 741 667 c 1
 608 -83 l 1
 615 -83 623 -84 630 -84 c 0
1114 300 m 0
 1114 34 896 -184 630 -184 c 0
 617 -184 604 -183 591 -182 c 1
 579 -248 l 1
 490 -232 l 1
 502 -167 l 1
 422 -145 348 -102 288 -42 c 0
 218 28 171 118 153 216 c 1
 252 233 l 1
 280 81 390 -28 519 -67 c 1
 652 683 l 1
 645 683 637 684 630 684 c 0
 528 684 431 643 359 571 c 0
 325 538 298 499 279 456 c 1
 397 499 l 1
 431 405 l 1
 173 311 l 1
 79 570 l 1
 173 604 l 1
 202 525 l 1
 225 568 253 607 288 642 c 0
 379 733 502 784 630 784 c 0
 643 784 656 783 669 782 c 1
 681 848 l 1
 770 832 l 1
 758 767 l 1
 967 709 1114 518 1114 300 c 0
EndSplineSet
EndChar

StartChar: sym07C_uni0338
Encoding: 177 -1 177
Width: 1260
Flags: HW
HStem: -177 99<712.798 767.552> 684 100<508.367 753.61> 696 20G<1032.11 1072.81>
VStem: 146 100<173.27 421.633> 1014 100<175.322 426.73>
LayerCount: 2
Fore
SplineSet
630 684 m 0xd8
 419 684 246 511 246 300 c 0
 246 225 268 152 309 90 c 1
 893 579 l 1
 822 646 728 684 630 684 c 0xd8
146 300 m 0
 146 566 364 784 630 784 c 0xd8
 757 784 879 734 970 644 c 1
 1056 716 l 1xb8
 1114 647 l 1
 1028 575 l 1
 1084 495 1114 399 1114 300 c 0
 1114 68 948 -134 714 -177 c 1
 697 -78 l 1
 884 -44 1014 119 1014 300 c 0
 1014 375 992 448 951 510 c 1
 367 21 l 1
 398 -9 435 -33 474 -51 c 1
 431 67 l 1
 525 101 l 1
 619 -157 l 1
 360 -251 l 1
 326 -157 l 1
 405 -128 l 1
 363 -106 324 -78 290 -44 c 1
 204 -116 l 1
 146 -47 l 1
 232 25 l 1
 176 105 146 201 146 300 c 0
EndSplineSet
EndChar

StartChar: uni27F30338
Encoding: 178 -1 178
Width: 1260
Flags: HW
HStem: -184 100<608 752.87> 684 100<509.477 652>
VStem: 146 100<179.094 421.633> 1008 99<162.448 217.202>
LayerCount: 2
Fore
SplineSet
630 684 m 0
 419 684 246 511 246 300 c 0
 246 129 360 -19 519 -67 c 1
 652 683 l 1
 645 683 637 684 630 684 c 0
146 300 m 0
 146 566 364 784 630 784 c 0
 643 784 656 783 669 782 c 1
 681 848 l 1
 770 832 l 1
 758 767 l 1
 824 749 971 691 1058 525 c 1
 1087 604 l 1
 1181 570 l 1
 1087 311 l 1
 829 405 l 1
 863 499 l 1
 981 456 l 1
 961 500 894 620 741 667 c 1
 608 -83 l 1
 615 -83 623 -84 630 -84 c 0
 811 -84 974 46 1008 233 c 1
 1107 216 l 1
 1064 -18 862 -184 630 -184 c 0
 617 -184 604 -183 591 -182 c 1
 579 -248 l 1
 490 -232 l 1
 502 -167 l 1
 293 -109 146 82 146 300 c 0
EndSplineSet
EndChar

StartChar: uni21BB0338
Encoding: 179 -1 179
Width: 1260
Flags: HW
HStem: -184 100<506.39 751.633> 678 99<712.798 770.416> 696 20G<1032.11 1072.81>
VStem: 146 100<173.27 424> 1014 100<178.367 426.73>
LayerCount: 2
Fore
SplineSet
630 -84 m 0x98
 841 -84 1014 89 1014 300 c 0
 1014 375 992 448 951 510 c 1
 367 21 l 1
 438 -46 532 -84 630 -84 c 0x98
474 651 m 1
 339 591 246 454 246 300 c 0
 246 225 268 152 309 90 c 1
 893 579 l 1
 839 630 770 665 697 678 c 1
 714 777 l 1xd8
 811 759 900 713 970 644 c 1
 1056 716 l 1xb8
 1114 647 l 1
 1028 575 l 1
 1084 495 1114 399 1114 300 c 0
 1114 34 896 -184 630 -184 c 0
 503 -184 381 -134 290 -44 c 1
 204 -116 l 1
 146 -47 l 1
 232 25 l 1
 176 105 146 201 146 300 c 0
 146 428 197 551 288 642 c 0
 323 677 362 705 405 728 c 1
 326 757 l 1
 360 851 l 1
 619 757 l 1
 525 499 l 1
 431 533 l 1
 474 651 l 1
EndSplineSet
EndChar

StartChar: sym07A_uni0338
Encoding: 180 -1 180
Width: 1260
Flags: HW
HStem: -184 100<608 750.523> -4 21G<117.706 180.342> 684 100<507.13 652>
VStem: 153 99<382.798 437.552> 1014 100<178.367 420.906>
LayerCount: 2
Fore
SplineSet
630 -84 m 0
 841 -84 1014 89 1014 300 c 0
 1014 471 900 619 741 667 c 1
 608 -83 l 1
 615 -83 623 -84 630 -84 c 0
153 384 m 1
 196 618 398 784 630 784 c 0
 643 784 656 783 669 782 c 1
 681 848 l 1
 770 832 l 1
 758 767 l 1
 967 709 1114 518 1114 300 c 0
 1114 34 896 -184 630 -184 c 0
 617 -184 604 -183 591 -182 c 1
 579 -248 l 1
 490 -232 l 1
 502 -167 l 1
 436 -149 289 -91 202 75 c 1
 173 -4 l 1
 79 30 l 1
 173 289 l 1
 431 195 l 1
 397 101 l 1
 279 144 l 1
 299 100 366 -20 519 -67 c 1
 652 683 l 1
 645 683 637 684 630 684 c 0
 449 684 286 554 252 367 c 1
 153 384 l 1
EndSplineSet
EndChar

StartChar: sym07B_uni0338
Encoding: 181 -1 181
Width: 1260
Flags: HW
HStem: -177 99<489.584 547.202> 684 100<508.367 753.61> 696 20G<1032.11 1072.81>
VStem: 146 100<173.27 421.633> 1014 100<176 426.73>
LayerCount: 2
Fore
SplineSet
630 684 m 0xd8
 419 684 246 511 246 300 c 0
 246 225 268 152 309 90 c 1
 893 579 l 1
 822 646 728 684 630 684 c 0xd8
146 300 m 0
 146 566 364 784 630 784 c 0xd8
 757 784 879 734 970 644 c 1
 1056 716 l 1xb8
 1114 647 l 1
 1028 575 l 1
 1084 495 1114 399 1114 300 c 0
 1114 172 1063 49 972 -42 c 0
 937 -77 898 -105 855 -128 c 1
 934 -157 l 1
 900 -251 l 1
 641 -157 l 1
 735 101 l 1
 829 67 l 1
 786 -51 l 1
 921 9 1014 146 1014 300 c 0
 1014 375 992 448 951 510 c 1
 367 21 l 1
 421 -30 490 -65 563 -78 c 1
 546 -177 l 1
 449 -159 360 -113 290 -44 c 1
 204 -116 l 1
 146 -47 l 1
 232 25 l 1
 176 105 146 201 146 300 c 0
EndSplineSet
EndChar

StartChar: uni21DB0338
Encoding: 182 -1 182
Width: 1080
Flags: HW
HStem: 127 80<90 270 395 696> 260 80<90 318 443 829> 393 80<90 367 492 696>
CounterMasks: 1 e0
LayerCount: 2
Fore
SplineSet
829 260 m 1
 414 260 l 1
 395 207 l 1
 776 207 l 1
 829 260 l 1
776 393 m 1
 462 393 l 1
 443 340 l 1
 829 340 l 1
 776 393 l 1
476 692 m 1
 560 661 l 1
 492 473 l 1
 696 473 l 1
 666 503 l 1
 737 574 l 1
 1011 300 l 1
 737 26 l 1
 666 97 l 1
 696 127 l 1
 366 127 l 1
 286 -92 l 1
 201 -61 l 1
 270 127 l 1
 90 127 l 1
 90 207 l 1
 299 207 l 1
 318 260 l 1
 90 260 l 1
 90 340 l 1
 347 340 l 1
 367 393 l 1
 90 393 l 1
 90 473 l 1
 396 473 l 1
 476 692 l 1
EndSplineSet
EndChar

StartChar: uni290A0338
Encoding: 183 -1 183
Width: 949
Flags: HW
VStem: 302 80<-150 30 155 457> 434 80<-150 78 203 589> 567 80<-150 127 251 457>
LayerCount: 2
Fore
SplineSet
514 589 m 1
 514 203 l 1
 567 222 l 1
 567 536 l 1
 514 589 l 1
382 537 m 1
 382 155 l 1
 434 174 l 1
 434 589 l 1
 382 537 l 1
113 -39 m 1
 82 46 l 1
 302 126 l 1
 302 457 l 1
 271 426 l 1
 200 497 l 1
 474 771 l 1
 748 497 l 1
 678 426 l 1
 647 457 l 1
 647 251 l 1
 836 320 l 1
 866 236 l 1
 647 156 l 1
 647 -150 l 1
 567 -150 l 1
 567 127 l 1
 514 107 l 1
 514 -150 l 1
 434 -150 l 1
 434 78 l 1
 382 59 l 1
 382 -150 l 1
 302 -150 l 1
 302 30 l 1
 113 -39 l 1
EndSplineSet
EndChar

StartChar: uni21DA0338
Encoding: 184 -1 184
Width: 1080
Flags: HW
HStem: 127 80<384 588 713 990> 260 80<251 637 762 990> 393 80<384 685 810 990>
CounterMasks: 1 e0
LayerCount: 2
Fore
SplineSet
251 340 m 1
 666 340 l 1
 685 393 l 1
 304 393 l 1
 251 340 l 1
304 207 m 1
 618 207 l 1
 637 260 l 1
 251 260 l 1
 304 207 l 1
604 -92 m 1
 520 -61 l 1
 588 127 l 1
 384 127 l 1
 414 97 l 1
 343 26 l 1
 69 300 l 1
 343 574 l 1
 414 503 l 1
 384 473 l 1
 714 473 l 1
 794 692 l 1
 879 661 l 1
 810 473 l 1
 990 473 l 1
 990 393 l 1
 781 393 l 1
 762 340 l 1
 990 340 l 1
 990 260 l 1
 733 260 l 1
 713 207 l 1
 990 207 l 1
 990 127 l 1
 684 127 l 1
 604 -92 l 1
EndSplineSet
EndChar

StartChar: uni290B0338
Encoding: 185 -1 185
Width: 949
Flags: HW
VStem: 302 80<143 349 473 750> 434 80<11 397 522 750> 567 80<143 445 570 750>
LayerCount: 2
Fore
SplineSet
434 11 m 1
 434 397 l 1
 382 378 l 1
 382 63 l 1
 434 11 l 1
567 64 m 1
 567 445 l 1
 514 426 l 1
 514 11 l 1
 567 64 l 1
836 639 m 1
 866 554 l 1
 647 474 l 1
 647 143 l 1
 678 174 l 1
 748 103 l 1
 474 -171 l 1
 200 103 l 1
 271 174 l 1
 302 143 l 1
 302 349 l 1
 113 280 l 1
 82 364 l 1
 302 444 l 1
 302 750 l 1
 382 750 l 1
 382 473 l 1
 434 492 l 1
 434 750 l 1
 514 750 l 1
 514 522 l 1
 567 541 l 1
 567 750 l 1
 647 750 l 1
 647 570 l 1
 836 639 l 1
EndSplineSet
EndChar

StartChar: uni27F60338
Encoding: 186 -1 186
Width: 1680
Flags: HW
HStem: 250 100<90 694 826 1419>
LayerCount: 2
Fore
SplineSet
820 596 m 1
 905 566 l 1
 826 350 l 1
 1419 350 l 1
 1345 424 l 1
 1416 495 l 1
 1611 300 l 1
 1416 105 l 1
 1345 176 l 1
 1419 250 l 1
 790 250 l 1
 700 4 l 1
 616 34 l 1
 694 250 l 1
 90 250 l 1
 90 350 l 1
 731 350 l 1
 820 596 l 1
EndSplineSet
EndChar

StartChar: uni27F50338
Encoding: 187 -1 187
Width: 1680
Flags: HW
HStem: 250 100<261 854 986 1590>
LayerCount: 2
Fore
SplineSet
860 4 m 1
 775 34 l 1
 854 250 l 1
 261 250 l 1
 335 176 l 1
 264 105 l 1
 69 300 l 1
 264 495 l 1
 335 424 l 1
 261 350 l 1
 890 350 l 1
 980 596 l 1
 1064 566 l 1
 986 350 l 1
 1590 350 l 1
 1590 250 l 1
 949 250 l 1
 860 4 l 1
EndSplineSet
EndChar

StartChar: uni27F90338
Encoding: 188 -1 188
Width: 1680
Flags: HW
HStem: 150 100<90 578 711 1321> 350 100<90 651 784 1321>
LayerCount: 2
Fore
SplineSet
1420 349 m 1
 747 350 l 1
 711 250 l 1
 1420 251 l 1
 1469 300 l 1
 1420 349 l 1
764 660 m 1
 849 629 l 1
 784 449 l 1
 1321 449 l 1
 1298 472 l 1
 1368 542 l 1
 1611 300 l 1
 1368 58 l 1
 1298 128 l 1
 1321 151 l 1
 675 150 l 1
 598 -60 l 1
 513 -29 l 1
 578 150 l 1
 90 150 l 1
 90 250 l 1
 615 250 l 1
 651 350 l 1
 90 350 l 1
 90 450 l 1
 687 450 l 1
 764 660 l 1
EndSplineSet
EndChar

StartChar: uni27F80338
Encoding: 189 -1 189
Width: 1680
Flags: HW
HStem: 150 100<359 896 1029 1590> 350 100<359 969 1102 1590>
LayerCount: 2
Fore
SplineSet
260 251 m 1
 933 250 l 1
 969 350 l 1
 260 349 l 1
 211 300 l 1
 260 251 l 1
916 -60 m 1
 831 -29 l 1
 896 151 l 1
 359 151 l 1
 382 128 l 1
 312 58 l 1
 69 300 l 1
 312 542 l 1
 382 472 l 1
 359 449 l 1
 1005 450 l 1
 1082 660 l 1
 1167 629 l 1
 1102 450 l 1
 1590 450 l 1
 1590 350 l 1
 1065 350 l 1
 1029 250 l 1
 1590 250 l 1
 1590 150 l 1
 993 150 l 1
 916 -60 l 1
EndSplineSet
EndChar

StartChar: uni27F70338
Encoding: 190 -1 190
Width: 1680
Flags: HW
HStem: 250 100<261 774 906 1419>
LayerCount: 2
Fore
SplineSet
900 596 m 1
 985 566 l 1
 906 350 l 1
 1419 350 l 1
 1345 424 l 1
 1416 495 l 1
 1611 300 l 1
 1416 105 l 1
 1345 176 l 1
 1419 250 l 1
 870 250 l 1
 780 4 l 1
 695 34 l 1
 774 250 l 1
 261 250 l 1
 335 176 l 1
 264 105 l 1
 69 300 l 1
 264 495 l 1
 335 424 l 1
 261 350 l 1
 810 350 l 1
 900 596 l 1
EndSplineSet
EndChar

StartChar: uni27FA0338
Encoding: 191 -1 191
Width: 1680
Flags: HW
HStem: 151 100<359 738 870 1321> 349 100<359 810 942 1321>
LayerCount: 2
Fore
SplineSet
260 349 m 1
 211 300 l 1
 260 251 l 1
 774 251 l 1
 810 349 l 1
 260 349 l 1
1420 349 m 1
 906 349 l 1
 870 251 l 1
 1420 251 l 1
 1469 300 l 1
 1420 349 l 1
923 660 m 1
 1008 629 l 1
 942 449 l 1
 1321 449 l 1
 1298 472 l 1
 1368 542 l 1
 1611 300 l 1
 1368 58 l 1
 1298 128 l 1
 1321 151 l 1
 834 151 l 1
 757 -60 l 1
 672 -29 l 1
 738 151 l 1
 359 151 l 1
 382 128 l 1
 312 58 l 1
 69 300 l 1
 312 542 l 1
 382 472 l 1
 359 449 l 1
 846 449 l 1
 923 660 l 1
EndSplineSet
EndChar

StartChar: uni27FC0338
Encoding: 192 -1 192
Width: 1680
Flags: HW
HStem: 250 100<190 694 826 1419>
VStem: 90 100<91 250 350 509>
LayerCount: 2
Fore
SplineSet
820 596 m 1
 905 566 l 1
 826 350 l 1
 1419 350 l 1
 1345 424 l 1
 1416 495 l 1
 1611 300 l 1
 1416 105 l 1
 1345 176 l 1
 1419 250 l 1
 790 250 l 1
 700 4 l 1
 616 34 l 1
 694 250 l 1
 190 250 l 1
 190 91 l 1
 90 91 l 1
 90 509 l 1
 190 509 l 1
 190 350 l 1
 731 350 l 1
 820 596 l 1
EndSplineSet
EndChar

StartChar: uni27FB0338
Encoding: 193 -1 193
Width: 1680
Flags: HW
HStem: 250 100<261 854 986 1490>
VStem: 1490 100<91 250 350 509>
LayerCount: 2
Fore
SplineSet
860 4 m 1
 775 34 l 1
 854 250 l 1
 261 250 l 1
 335 176 l 1
 264 105 l 1
 69 300 l 1
 264 495 l 1
 335 424 l 1
 261 350 l 1
 890 350 l 1
 980 596 l 1
 1064 566 l 1
 986 350 l 1
 1490 350 l 1
 1490 509 l 1
 1590 509 l 1
 1590 91 l 1
 1490 91 l 1
 1490 250 l 1
 949 250 l 1
 860 4 l 1
EndSplineSet
EndChar

StartChar: uni27FE0338
Encoding: 194 -1 194
Width: 1680
Flags: HW
HStem: 150 100<190 578 711 1321> 350 100<190 651 784 1321> 537 20G<90 190>
VStem: 90 100<43 150 250 350 450 557>
LayerCount: 2
Fore
SplineSet
1420 349 m 1
 747 350 l 1
 711 250 l 1
 1420 251 l 1
 1469 300 l 1
 1420 349 l 1
190 350 m 1
 190 250 l 1
 615 250 l 1
 651 350 l 1
 190 350 l 1
764 660 m 1
 849 629 l 1
 784 449 l 1
 1321 449 l 1
 1298 472 l 1
 1368 542 l 1
 1611 300 l 1
 1368 58 l 1
 1298 128 l 1
 1321 151 l 1
 675 150 l 1
 598 -60 l 1
 513 -29 l 1
 578 150 l 1
 190 150 l 1
 190 43 l 1
 90 43 l 1
 90 557 l 1
 190 557 l 1
 190 450 l 1
 687 450 l 1
 764 660 l 1
EndSplineSet
EndChar

StartChar: uni27FD0338
Encoding: 195 -1 195
Width: 1680
Flags: HW
HStem: 151 99<359 896 1029 1490> 350 100<359 969 1102 1490> 537 20G<1490 1590>
VStem: 1490 100<43 150 250 350 450 557>
LayerCount: 2
Fore
SplineSet
260 251 m 1
 933 250 l 1
 969 350 l 1
 260 349 l 1
 211 300 l 1
 260 251 l 1
1490 250 m 1
 1490 350 l 1
 1065 350 l 1
 1029 250 l 1
 1490 250 l 1
916 -60 m 1
 831 -29 l 1
 896 151 l 1
 359 151 l 1
 382 128 l 1
 312 58 l 1
 69 300 l 1
 312 542 l 1
 382 472 l 1
 359 449 l 1
 1005 450 l 1
 1082 660 l 1
 1167 629 l 1
 1102 450 l 1
 1490 450 l 1
 1490 557 l 1
 1590 557 l 1
 1590 43 l 1
 1490 43 l 1
 1490 150 l 1
 993 150 l 1
 916 -60 l 1
EndSplineSet
EndChar

StartChar: uni27FF0338
Encoding: 196 -1 196
Width: 1680
Flags: HW
HStem: 170 100<432.682 498.643 821.942 889.318 1214.09 1272.56> 250 100<1350.55 1419> 330 100<228.531 303.318 627.682 694.933 1018.68 1084.84>
LayerCount: 2
Fore
SplineSet
820 596 m 1xa0
 905 566 l 1
 811 310 l 1
 822 290 834 270 856 270 c 0
 886 270 896 305 913 329 c 0
 948 379 991 430 1052 430 c 0
 1112 430 1155 379 1190 329 c 0
 1207 305 1218 270 1247 270 c 0xa0
 1261 270 1267 286 1277 296 c 0
 1305 324 1338 350 1377 350 c 2
 1419 350 l 1
 1345 424 l 1
 1416 495 l 1
 1611 300 l 1
 1416 105 l 1
 1345 176 l 1
 1419 250 l 1
 1377 250 l 2x40
 1363 250 1357 235 1347 225 c 0
 1319 197 1287 170 1247 170 c 0
 1187 170 1144 221 1108 271 c 0
 1092 295 1081 330 1052 330 c 0
 1022 330 1012 295 995 271 c 0
 960 221 917 170 856 170 c 0
 824 170 797 184 773 205 c 1
 700 4 l 1
 616 34 l 1
 708 287 l 1
 696 308 684 330 661 330 c 0
 631 330 621 295 604 271 c 0
 569 221 526 170 466 170 c 0
 405 170 362 221 327 271 c 0
 310 295 300 330 270 330 c 0
 222 330 208 271 181 232 c 1
 99 289 l 1
 145 354 192 430 270 430 c 0
 331 430 374 379 409 329 c 0
 426 305 436 270 466 270 c 0
 495 270 505 305 522 329 c 0
 557 379 600 430 661 430 c 0
 694 430 722 414 746 392 c 1
 820 596 l 1xa0
EndSplineSet
EndChar

StartChar: uni2B330338
Encoding: 197 -1 197
Width: 1680
Flags: HW
HStem: 170 100<407.436 466.089 791.52 825 1181.36 1247.32> 250 100<261 329.446> 330 100<595.357 661.318 1015.04 1051.48 1376.68 1451.47>
LayerCount: 2
Fore
SplineSet
860 4 m 1xa0
 775 34 l 1
 825 170 l 1
 824 170 l 0
 763 170 720 221 685 271 c 0
 668 295 658 330 628 330 c 0
 599 330 589 295 572 271 c 0
 536 221 493 170 433 170 c 0xa0
 393 170 361 197 333 225 c 0
 323 235 317 250 303 250 c 2
 261 250 l 1
 335 176 l 1
 264 105 l 1
 69 300 l 1
 264 495 l 1
 335 424 l 1
 261 350 l 1
 303 350 l 2x40
 342 350 375 324 403 296 c 0
 413 286 419 270 433 270 c 0
 463 270 473 305 490 329 c 0
 525 379 568 430 628 430 c 0
 689 430 732 379 767 329 c 0
 784 305 794 270 824 270 c 0
 853 270 864 305 880 329 c 0
 882 331 883 334 885 336 c 2
 980 596 l 1
 1064 566 l 1
 1015 430 l 1
 1016 430 1018 430 1019 430 c 0
 1080 430 1123 379 1158 329 c 0
 1175 305 1185 270 1214 270 c 0
 1244 270 1254 305 1271 329 c 0
 1306 379 1349 430 1410 430 c 0
 1488 430 1535 354 1581 289 c 1
 1499 232 l 1
 1472 271 1458 330 1410 330 c 0
 1380 330 1370 295 1353 271 c 0
 1318 221 1275 170 1214 170 c 0
 1154 170 1111 221 1076 271 c 0
 1059 295 1049 330 1019 330 c 0
 990 330 979 295 962 271 c 0
 959 266 956 262 952 257 c 1
 860 4 l 1xa0
EndSplineSet
EndChar

StartChar: uni27DD0338
Encoding: 198 -1 198
Width: 1680
Flags: HW
HStem: 250 100<190 774 906 1590>
VStem: 90 100<91 250 350 509>
LayerCount: 2
Fore
SplineSet
900 596 m 1
 985 566 l 1
 906 350 l 1
 1590 350 l 1
 1590 250 l 1
 870 250 l 1
 780 4 l 1
 695 34 l 1
 774 250 l 1
 190 250 l 1
 190 91 l 1
 90 91 l 1
 90 509 l 1
 190 509 l 1
 190 350 l 1
 810 350 l 1
 900 596 l 1
EndSplineSet
EndChar

StartChar: uni27DE0338
Encoding: 199 -1 199
Width: 1680
Flags: HW
HStem: 250 100<90 774 906 1490>
VStem: 1490 100<91 250 350 509>
LayerCount: 2
Fore
SplineSet
780 4 m 1
 695 34 l 1
 774 250 l 1
 90 250 l 1
 90 350 l 1
 810 350 l 1
 900 596 l 1
 985 566 l 1
 906 350 l 1
 1490 350 l 1
 1490 509 l 1
 1590 509 l 1
 1590 91 l 1
 1490 91 l 1
 1490 250 l 1
 870 250 l 1
 780 4 l 1
EndSplineSet
EndChar

StartChar: uni22AC
Encoding: 224 8876 200
Width: 840
Flags: HW
HStem: 0 16G<90 190 345.348 426.307> 304 100<190 411 530 750> 692 15G<90 190 514.61 594.783>
VStem: 90 100<0 304 404 707>
LayerCount: 2
Fore
SplineSet
520 712 m 1
 606 689 l 1
 530 404 l 1
 750 404 l 1
 750 304 l 1
 503 304 l 1
 421 -5 l 1
 334 18 l 1
 411 304 l 1
 190 304 l 1
 190 0 l 1
 90 0 l 1
 90 707 l 1
 190 707 l 1
 190 404 l 1
 437 404 l 1
 520 712 l 1
EndSplineSet
EndChar

StartChar: uni22A50338
Encoding: 225 -1 201
Width: 840
Flags: HW
HStem: 0 100<90 370 470 750> 687 20G<370 470>
VStem: 370 100<100 338 469 707>
LayerCount: 2
Fore
SplineSet
113 244 m 1
 82 328 l 1
 370 433 l 1
 370 707 l 1
 470 707 l 1
 470 469 l 1
 727 563 l 1
 758 479 l 1
 470 374 l 1
 470 100 l 1
 750 100 l 1
 750 0 l 1
 90 0 l 1
 90 100 l 1
 370 100 l 1
 370 338 l 1
 113 244 l 1
EndSplineSet
EndChar

StartChar: uni22A30338
Encoding: 226 -1 202
Width: 840
Flags: HW
HStem: 0 16G<245.348 326.307 650 750> 304 100<90 311 430 650> 692 15G<414.61 494.783 650 750>
VStem: 650 100<0 304 404 707>
LayerCount: 2
Fore
SplineSet
321 -5 m 1
 234 18 l 1
 311 304 l 1
 90 304 l 1
 90 404 l 1
 337 404 l 1
 420 712 l 1
 506 689 l 1
 430 404 l 1
 650 404 l 1
 650 707 l 1
 750 707 l 1
 750 0 l 1
 650 0 l 1
 650 304 l 1
 403 304 l 1
 321 -5 l 1
EndSplineSet
EndChar

StartChar: uni22A40338
Encoding: 227 -1 203
Width: 840
Flags: HW
HStem: 0 21G<370 470> 607 100<90 370 470 750>
VStem: 370 100<0 238 369 607>
LayerCount: 2
Fore
SplineSet
727 463 m 1
 758 379 l 1
 470 274 l 1
 470 0 l 1
 370 0 l 1
 370 238 l 1
 113 144 l 1
 82 228 l 1
 370 333 l 1
 370 607 l 1
 90 607 l 1
 90 707 l 1
 750 707 l 1
 750 607 l 1
 470 607 l 1
 470 369 l 1
 727 463 l 1
EndSplineSet
EndChar

StartChar: uni22A60338
Encoding: 228 -1 204
Width: 642
Flags: HW
HStem: 0 16G<90 190 246.217 326.372> 304 100<190 312 431 552> 692 15G<90 190 415.61 495.783>
VStem: 90 100<0 304 404 707>
LayerCount: 2
Fore
SplineSet
421 712 m 1
 507 689 l 1
 431 404 l 1
 552 404 l 1
 552 304 l 1
 404 304 l 1
 321 -5 l 1
 235 18 l 1
 312 304 l 1
 190 304 l 1
 190 0 l 1
 90 0 l 1
 90 707 l 1
 190 707 l 1
 190 404 l 1
 338 404 l 1
 421 712 l 1
EndSplineSet
EndChar

StartChar: uni2AE00338
Encoding: 229 -1 205
Width: 840
Flags: HW
HStem: 0 100<90 370 470 750>
VStem: 370 100<100 231 363 495>
LayerCount: 2
Fore
SplineSet
113 138 m 1
 82 222 l 1
 370 327 l 1
 370 495 l 1
 470 495 l 1
 470 363 l 1
 727 457 l 1
 758 372 l 1
 470 268 l 1
 470 100 l 1
 750 100 l 1
 750 0 l 1
 90 0 l 1
 90 100 l 1
 370 100 l 1
 370 231 l 1
 113 138 l 1
EndSplineSet
EndChar

StartChar: uni2ADE0338
Encoding: 230 -1 206
Width: 642
Flags: HW
HStem: 0 16G<146.217 226.372 452 552> 304 100<90 212 331 452> 692 15G<315.61 395.783 452 552>
VStem: 452 100<0 304 404 707>
LayerCount: 2
Fore
SplineSet
221 -5 m 1
 135 18 l 1
 212 304 l 1
 90 304 l 1
 90 404 l 1
 238 404 l 1
 321 712 l 1
 407 689 l 1
 331 404 l 1
 452 404 l 1
 452 707 l 1
 552 707 l 1
 552 0 l 1
 452 0 l 1
 452 304 l 1
 304 304 l 1
 221 -5 l 1
EndSplineSet
EndChar

StartChar: uni2ADF0338
Encoding: 231 -1 207
Width: 840
Flags: HW
HStem: 0 21G<370 470> 395 100<90 370 470 750>
VStem: 370 100<0 131 263 395>
LayerCount: 2
Fore
SplineSet
727 357 m 1
 758 272 l 1
 470 168 l 1
 470 0 l 1
 370 0 l 1
 370 131 l 1
 113 38 l 1
 82 122 l 1
 370 227 l 1
 370 395 l 1
 90 395 l 1
 90 495 l 1
 750 495 l 1
 750 395 l 1
 470 395 l 1
 470 263 l 1
 727 357 l 1
EndSplineSet
EndChar

StartChar: uni22AD
Encoding: 232 8877 208
Width: 840
Flags: HW
HStem: 0 16G<90 190 345.348 426.359> 204 100<190 384 503 750> 403 100<190 437 556 750> 692 15G<90 190 514.641 594.783>
VStem: 90 100<0 204 304 403 503 707>
LayerCount: 2
Fore
SplineSet
190 403 m 1
 190 304 l 1
 411 304 l 1
 437 403 l 1
 190 403 l 1
520 712 m 1
 606 689 l 1
 556 503 l 1
 750 503 l 1
 750 403 l 1
 530 403 l 1
 503 304 l 1
 750 304 l 1
 750 204 l 1
 477 204 l 1
 421 -5 l 1
 334 18 l 1
 384 204 l 1
 190 204 l 1
 190 0 l 1
 90 0 l 1
 90 707 l 1
 190 707 l 1
 190 503 l 1
 464 503 l 1
 520 712 l 1
EndSplineSet
EndChar

StartChar: uni2AEB0338
Encoding: 233 -1 209
Width: 840
Flags: HW
HStem: 0 100<90 271 371 470 570 750> 687 20G<271 371 470 570>
VStem: 271 100<100 302 433 707> 470 100<100 374 506 707>
LayerCount: 2
Fore
SplineSet
371 100 m 1
 470 100 l 1
 470 374 l 1
 371 338 l 1
 371 100 l 1
113 244 m 1
 82 328 l 1
 271 397 l 1
 271 707 l 1
 371 707 l 1
 371 433 l 1
 470 469 l 1
 470 707 l 1
 570 707 l 1
 570 506 l 1
 727 563 l 1
 758 479 l 1
 570 411 l 1
 570 100 l 1
 750 100 l 1
 750 0 l 1
 90 0 l 1
 90 100 l 1
 271 100 l 1
 271 302 l 1
 113 244 l 1
EndSplineSet
EndChar

StartChar: uni2AE40338
Encoding: 234 -1 210
Width: 840
Flags: HW
HStem: 0 16G<245.348 326.359 650 750> 204 100<90 284 403 650> 403 100<90 337 456 650> 692 15G<414.641 494.783 650 750>
VStem: 650 100<0 204 304 403 503 707>
LayerCount: 2
Fore
SplineSet
650 304 m 1
 650 403 l 1
 430 403 l 1
 403 304 l 1
 650 304 l 1
321 -5 m 1
 234 18 l 1
 284 204 l 1
 90 204 l 1
 90 304 l 1
 311 304 l 1
 337 403 l 1
 90 403 l 1
 90 503 l 1
 364 503 l 1
 420 712 l 1
 506 689 l 1
 456 503 l 1
 650 503 l 1
 650 707 l 1
 750 707 l 1
 750 0 l 1
 650 0 l 1
 650 204 l 1
 377 204 l 1
 321 -5 l 1
EndSplineSet
EndChar

StartChar: uni2AEA0338
Encoding: 235 -1 211
Width: 840
Flags: HW
HStem: 0 21G<271 371 470 570> 607 100<90 271 371 470 570 750>
VStem: 271 100<0 202 333 607> 470 100<0 274 406 607>
LayerCount: 2
Fore
SplineSet
470 607 m 1
 371 607 l 1
 371 333 l 1
 470 369 l 1
 470 607 l 1
727 463 m 1
 758 379 l 1
 570 311 l 1
 570 0 l 1
 470 0 l 1
 470 274 l 1
 371 238 l 1
 371 0 l 1
 271 0 l 1
 271 202 l 1
 113 144 l 1
 82 228 l 1
 271 297 l 1
 271 607 l 1
 90 607 l 1
 90 707 l 1
 750 707 l 1
 750 607 l 1
 570 607 l 1
 570 406 l 1
 727 463 l 1
EndSplineSet
EndChar

StartChar: uni22A70338
Encoding: 236 -1 212
Width: 642
Flags: HW
HStem: 0 16G<90 190 246.217 326.359> 204 100<190 285 404 552> 403 100<190 338 457 552> 692 15G<90 190 415.641 495.783>
VStem: 90 100<0 204 304 403 503 707>
LayerCount: 2
Fore
SplineSet
190 403 m 1
 190 304 l 1
 312 304 l 1
 338 403 l 1
 190 403 l 1
421 712 m 1
 507 689 l 1
 457 503 l 1
 552 503 l 1
 552 403 l 1
 430 403 l 1
 404 304 l 1
 552 304 l 1
 552 204 l 1
 377 204 l 1
 321 -5 l 1
 235 18 l 1
 285 204 l 1
 190 204 l 1
 190 0 l 1
 90 0 l 1
 90 707 l 1
 190 707 l 1
 190 503 l 1
 365 503 l 1
 421 712 l 1
EndSplineSet
EndChar

StartChar: sym07E_uni0338
Encoding: 237 -1 213
Width: 840
Flags: HW
HStem: 0 100<90 271 371 470 570 750>
VStem: 271 100<100 195 327 495> 470 100<100 268 400 495>
LayerCount: 2
Fore
SplineSet
371 100 m 1
 470 100 l 1
 470 268 l 1
 371 232 l 1
 371 100 l 1
113 138 m 1
 82 222 l 1
 271 291 l 1
 271 495 l 1
 371 495 l 1
 371 327 l 1
 470 363 l 1
 470 495 l 1
 570 495 l 1
 570 400 l 1
 727 457 l 1
 758 372 l 1
 570 304 l 1
 570 100 l 1
 750 100 l 1
 750 0 l 1
 90 0 l 1
 90 100 l 1
 271 100 l 1
 271 195 l 1
 113 138 l 1
EndSplineSet
EndChar

StartChar: sym07D_uni0338
Encoding: 238 -1 214
Width: 642
Flags: HW
HStem: 0 16G<146.217 226.359 452 552> 204 100<90 185 304 452> 403 100<90 238 357 452> 692 15G<315.641 395.783 452 552>
VStem: 452 100<0 204 304 403 503 707>
LayerCount: 2
Fore
SplineSet
452 304 m 1
 452 403 l 1
 330 403 l 1
 304 304 l 1
 452 304 l 1
221 -5 m 1
 135 18 l 1
 185 204 l 1
 90 204 l 1
 90 304 l 1
 212 304 l 1
 238 403 l 1
 90 403 l 1
 90 503 l 1
 265 503 l 1
 321 712 l 1
 407 689 l 1
 357 503 l 1
 452 503 l 1
 452 707 l 1
 552 707 l 1
 552 0 l 1
 452 0 l 1
 452 204 l 1
 277 204 l 1
 221 -5 l 1
EndSplineSet
EndChar

StartChar: sym07F_uni0338
Encoding: 239 -1 215
Width: 840
Flags: HW
HStem: 0 21G<271 371 470 570> 395 100<90 271 371 470 570 750>
VStem: 271 100<0 95 227 395> 470 100<0 168 300 395>
LayerCount: 2
Fore
SplineSet
470 395 m 1
 371 395 l 1
 371 227 l 1
 470 263 l 1
 470 395 l 1
727 357 m 1
 758 272 l 1
 570 204 l 1
 570 0 l 1
 470 0 l 1
 470 168 l 1
 371 132 l 1
 371 0 l 1
 271 0 l 1
 271 95 l 1
 113 38 l 1
 82 122 l 1
 271 191 l 1
 271 395 l 1
 90 395 l 1
 90 495 l 1
 750 495 l 1
 750 395 l 1
 570 395 l 1
 570 300 l 1
 727 357 l 1
EndSplineSet
EndChar

StartChar: uni22AE
Encoding: 240 8878 216
Width: 1038
Flags: HW
HStem: 0 21G<90 190 288 388 543.348 624.307> 304 100<388 609 728 948> 687 20G<90 190 288 388 712.61 792.783>
VStem: 90 100<0 707> 288 100<0 304 404 707>
LayerCount: 2
Fore
SplineSet
190 0 m 1
 90 0 l 1
 90 707 l 1
 190 707 l 1
 190 0 l 1
718 712 m 1
 804 689 l 1
 728 404 l 1
 948 404 l 1
 948 304 l 1
 701 304 l 1
 619 -5 l 1
 532 18 l 1
 609 304 l 1
 388 304 l 1
 388 0 l 1
 288 0 l 1
 288 707 l 1
 388 707 l 1
 388 404 l 1
 635 404 l 1
 718 712 l 1
EndSplineSet
EndChar

StartChar: uni234A0338
Encoding: 241 -1 217
Width: 840
Flags: HW
HStem: -106 100<90 750> 92 100<90 370 470 750>
VStem: 370 100<192 437 568 813>
LayerCount: 2
Fore
SplineSet
750 -6 m 1
 750 -106 l 1
 90 -106 l 1
 90 -6 l 1
 750 -6 l 1
113 343 m 1
 82 427 l 1
 370 532 l 1
 370 813 l 1
 470 813 l 1
 470 568 l 1
 727 662 l 1
 758 578 l 1
 470 473 l 1
 470 192 l 1
 750 192 l 1
 750 92 l 1
 90 92 l 1
 90 192 l 1
 370 192 l 1
 370 437 l 1
 113 343 l 1
EndSplineSet
EndChar

StartChar: uni2AE30338
Encoding: 242 -1 218
Width: 1038
Flags: HW
HStem: 0 21G<245.348 326.307 650 750 848 948> 304 100<90 311 430 650> 687 20G<414.61 494.783 650 750 848 948>
VStem: 650 100<0 304 404 707> 848 100<0 707>
LayerCount: 2
Fore
SplineSet
848 707 m 1
 948 707 l 1
 948 0 l 1
 848 0 l 1
 848 707 l 1
321 -5 m 1
 234 18 l 1
 311 304 l 1
 90 304 l 1
 90 404 l 1
 337 404 l 1
 420 712 l 1
 506 689 l 1
 430 404 l 1
 650 404 l 1
 650 707 l 1
 750 707 l 1
 750 0 l 1
 650 0 l 1
 650 304 l 1
 403 304 l 1
 321 -5 l 1
EndSplineSet
EndChar

StartChar: uni23510338
Encoding: 243 -1 219
Width: 840
Flags: HW
HStem: 515 100<90 370 470 750> 713 100<90 750>
VStem: 370 100<-106 139 270 515>
LayerCount: 2
Fore
SplineSet
90 713 m 1
 90 813 l 1
 750 813 l 1
 750 713 l 1
 90 713 l 1
727 364 m 1
 758 280 l 1
 470 175 l 1
 470 -106 l 1
 370 -106 l 1
 370 139 l 1
 113 45 l 1
 82 129 l 1
 370 234 l 1
 370 515 l 1
 90 515 l 1
 90 615 l 1
 750 615 l 1
 750 515 l 1
 470 515 l 1
 470 270 l 1
 727 364 l 1
EndSplineSet
EndChar

StartChar: uni22AE.alt
Encoding: 244 -1 220
Width: 840
Flags: HW
HStem: 0 21G<90 190 288 388 444.348 525.307> 304 100<388 510 629 750> 687 20G<90 190 288 388 613.61 693.783>
VStem: 90 100<0 707> 288 100<0 304 404 707>
LayerCount: 2
Fore
SplineSet
190 0 m 1
 90 0 l 1
 90 707 l 1
 190 707 l 1
 190 0 l 1
619 712 m 1
 705 689 l 1
 629 404 l 1
 750 404 l 1
 750 304 l 1
 602 304 l 1
 520 -5 l 1
 433 18 l 1
 510 304 l 1
 388 304 l 1
 388 0 l 1
 288 0 l 1
 288 707 l 1
 388 707 l 1
 388 404 l 1
 536 404 l 1
 619 712 l 1
EndSplineSet
EndChar

StartChar: uni2AE80338
Encoding: 245 -1 221
Width: 840
Flags: HW
HStem: 0 100<90 750> 198 100<90 370 470 750> 687 20G<370 470>
VStem: 370 100<298 437 568 707>
LayerCount: 2
Fore
SplineSet
750 100 m 1
 750 0 l 1
 90 0 l 1
 90 100 l 1
 750 100 l 1
113 343 m 1
 82 427 l 1
 370 532 l 1
 370 707 l 1
 470 707 l 1
 470 568 l 1
 727 662 l 1
 758 578 l 1
 470 473 l 1
 470 298 l 1
 750 298 l 1
 750 198 l 1
 90 198 l 1
 90 298 l 1
 370 298 l 1
 370 437 l 1
 113 343 l 1
EndSplineSet
EndChar

StartChar: uni2AE30338.alt
Encoding: 246 -1 222
Width: 840
Flags: HW
HStem: 0 21G<146.348 227.307 452 552 650 750> 304 100<90 212 331 452> 687 20G<315.61 395.783 452 552 650 750>
VStem: 452 100<0 304 404 707> 650 100<0 707>
LayerCount: 2
Fore
SplineSet
650 707 m 1
 750 707 l 1
 750 0 l 1
 650 0 l 1
 650 707 l 1
222 -5 m 1
 135 18 l 1
 212 304 l 1
 90 304 l 1
 90 404 l 1
 238 404 l 1
 321 712 l 1
 407 689 l 1
 331 404 l 1
 452 404 l 1
 452 707 l 1
 552 707 l 1
 552 0 l 1
 452 0 l 1
 452 304 l 1
 304 304 l 1
 222 -5 l 1
EndSplineSet
EndChar

StartChar: uni2AE70338
Encoding: 247 -1 223
Width: 840
Flags: HW
HStem: 0 21G<370 470> 409 100<90 370 470 750> 607 100<90 750>
VStem: 370 100<0 139 270 409>
LayerCount: 2
Fore
SplineSet
90 607 m 1
 90 707 l 1
 750 707 l 1
 750 607 l 1
 90 607 l 1
727 364 m 1
 758 280 l 1
 470 175 l 1
 470 0 l 1
 370 0 l 1
 370 139 l 1
 113 45 l 1
 82 129 l 1
 370 234 l 1
 370 409 l 1
 90 409 l 1
 90 509 l 1
 750 509 l 1
 750 409 l 1
 470 409 l 1
 470 270 l 1
 727 364 l 1
EndSplineSet
EndChar

StartChar: uni22AF
Encoding: 248 8879 224
Width: 1038
Flags: HW
HStem: 0 21G<90 190 288 388 543.348 624.359> 204 100<388 582 701 948> 403 100<388 635 754 948> 687 20G<90 190 288 388 712.641 792.783>
VStem: 90 100<0 707> 288 100<0 204 304 403 503 707>
LayerCount: 2
Fore
SplineSet
388 403 m 1
 388 304 l 1
 609 304 l 1
 635 403 l 1
 388 403 l 1
190 0 m 1
 90 0 l 1
 90 707 l 1
 190 707 l 1
 190 0 l 1
718 712 m 1
 804 689 l 1
 754 503 l 1
 948 503 l 1
 948 403 l 1
 728 403 l 1
 701 304 l 1
 948 304 l 1
 948 204 l 1
 675 204 l 1
 619 -5 l 1
 532 18 l 1
 582 204 l 1
 388 204 l 1
 388 0 l 1
 288 0 l 1
 288 707 l 1
 388 707 l 1
 388 503 l 1
 662 503 l 1
 718 712 l 1
EndSplineSet
EndChar

StartChar: sym080_uni0338
Encoding: 249 -1 225
Width: 840
Flags: HW
HStem: -106 100<90 750> 92 100<90 271 371 470 570 750>
VStem: 271 100<192 401 532 813> 470 100<192 473 605 813>
LayerCount: 2
Fore
SplineSet
371 192 m 1
 470 192 l 1
 470 473 l 1
 371 437 l 1
 371 192 l 1
750 -6 m 1
 750 -106 l 1
 90 -106 l 1
 90 -6 l 1
 750 -6 l 1
113 343 m 1
 82 427 l 1
 271 496 l 1
 271 813 l 1
 371 813 l 1
 371 532 l 1
 470 568 l 1
 470 813 l 1
 570 813 l 1
 570 605 l 1
 727 662 l 1
 758 578 l 1
 570 510 l 1
 570 192 l 1
 750 192 l 1
 750 92 l 1
 90 92 l 1
 90 192 l 1
 271 192 l 1
 271 401 l 1
 113 343 l 1
EndSplineSet
EndChar

StartChar: uni2AE50338
Encoding: 250 -1 226
Width: 1038
Flags: HW
HStem: 0 21G<245.348 326.359 650 750 848 948> 204 100<90 284 403 650> 403 100<90 337 456 650> 687 20G<414.641 494.783 650 750 848 948>
VStem: 650 100<0 204 304 403 503 707> 848 100<0 707>
LayerCount: 2
Fore
SplineSet
650 304 m 1
 650 403 l 1
 430 403 l 1
 403 304 l 1
 650 304 l 1
848 707 m 1
 948 707 l 1
 948 0 l 1
 848 0 l 1
 848 707 l 1
321 -5 m 1
 234 18 l 1
 284 204 l 1
 90 204 l 1
 90 304 l 1
 311 304 l 1
 337 403 l 1
 90 403 l 1
 90 503 l 1
 364 503 l 1
 420 712 l 1
 506 689 l 1
 456 503 l 1
 650 503 l 1
 650 707 l 1
 750 707 l 1
 750 0 l 1
 650 0 l 1
 650 204 l 1
 377 204 l 1
 321 -5 l 1
EndSplineSet
EndChar

StartChar: sym081_uni0338
Encoding: 251 -1 227
Width: 840
Flags: HW
HStem: 515 100<90 271 371 470 570 750> 713 100<90 750>
VStem: 271 100<-106 103 234 515> 470 100<-106 175 307 515>
LayerCount: 2
Fore
SplineSet
470 515 m 1
 371 515 l 1
 371 234 l 1
 470 270 l 1
 470 515 l 1
90 713 m 1
 90 813 l 1
 750 813 l 1
 750 713 l 1
 90 713 l 1
727 364 m 1
 758 280 l 1
 570 212 l 1
 570 -106 l 1
 470 -106 l 1
 470 175 l 1
 371 139 l 1
 371 -106 l 1
 271 -106 l 1
 271 103 l 1
 113 45 l 1
 82 129 l 1
 271 198 l 1
 271 515 l 1
 90 515 l 1
 90 615 l 1
 750 615 l 1
 750 515 l 1
 570 515 l 1
 570 307 l 1
 727 364 l 1
EndSplineSet
EndChar

StartChar: uni22AA0338
Encoding: 252 -1 228
Width: 1038
Flags: HW
HStem: 0 21G<90 190 288 388 486 586 642.348 723.307> 304 100<586 708 827 948> 687 20G<90 190 288 388 486 586 811.61 891.783>
VStem: 90 100<0 707> 288 100<0 707> 486 100<0 304 404 707>
CounterMasks: 1 1c
LayerCount: 2
Fore
SplineSet
190 0 m 1
 90 0 l 1
 90 707 l 1
 190 707 l 1
 190 0 l 1
388 0 m 1
 288 0 l 1
 288 707 l 1
 388 707 l 1
 388 0 l 1
817 712 m 1
 903 689 l 1
 827 404 l 1
 948 404 l 1
 948 304 l 1
 800 304 l 1
 718 -5 l 1
 631 18 l 1
 708 304 l 1
 586 304 l 1
 586 0 l 1
 486 0 l 1
 486 707 l 1
 586 707 l 1
 586 404 l 1
 734 404 l 1
 817 712 l 1
EndSplineSet
EndChar

StartChar: sym082_uni0338
Encoding: 253 -1 229
Width: 1038
Flags: HW
HStem: 0 21G<146.348 227.307 452 552 650 750 848 948> 304 100<90 212 331 452> 687 20G<315.61 395.783 452 552 650 750 848 948>
VStem: 452 100<0 304 404 707> 650 100<0 707> 848 100<0 707>
CounterMasks: 1 1c
LayerCount: 2
Fore
SplineSet
848 707 m 1
 948 707 l 1
 948 0 l 1
 848 0 l 1
 848 707 l 1
650 707 m 1
 750 707 l 1
 750 0 l 1
 650 0 l 1
 650 707 l 1
222 -5 m 1
 135 18 l 1
 212 304 l 1
 90 304 l 1
 90 404 l 1
 238 404 l 1
 321 712 l 1
 407 689 l 1
 331 404 l 1
 452 404 l 1
 452 707 l 1
 552 707 l 1
 552 0 l 1
 452 0 l 1
 452 304 l 1
 304 304 l 1
 222 -5 l 1
EndSplineSet
EndChar

StartChar: uni2AE20338
Encoding: 254 -1 230
Width: 840
Flags: HW
HStem: 0 16G<90 190 345.348 426.321> 104 100<190 357 477 750> 304 100<190 411 530 750> 503 100<190 464 583 750> 692 15G<90 190 514.679 594.783>
VStem: 90 100<0 104 204 304 404 503 603 707>
LayerCount: 2
Fore
SplineSet
190 404 m 1
 437 404 l 1
 464 503 l 1
 190 503 l 1
 190 404 l 1
190 204 m 1
 384 204 l 1
 411 304 l 1
 190 304 l 1
 190 204 l 1
520 712 m 1
 606 689 l 1
 583 603 l 1
 750 603 l 1
 750 503 l 1
 556 503 l 1
 530 404 l 1
 750 404 l 1
 750 304 l 1
 503 304 l 1
 477 204 l 1
 750 204 l 1
 750 104 l 1
 450 104 l 1
 421 -5 l 1
 334 18 l 1
 357 104 l 1
 190 104 l 1
 190 0 l 1
 90 0 l 1
 90 707 l 1
 190 707 l 1
 190 603 l 1
 491 603 l 1
 520 712 l 1
EndSplineSet
EndChar

StartChar: sym083_uni0338
Encoding: 255 -1 231
Width: 840
Flags: HW
HStem: 0 16G<245.348 326.321 650 750> 104 100<90 257 377 650> 304 100<90 311 430 650> 503 100<90 364 483 650> 692 15G<414.679 494.783 650 750>
VStem: 650 100<0 104 204 304 404 503 603 707>
LayerCount: 2
Fore
SplineSet
650 304 m 1
 403 304 l 1
 377 204 l 1
 650 204 l 1
 650 304 l 1
650 503 m 1
 456 503 l 1
 430 404 l 1
 650 404 l 1
 650 503 l 1
321 -5 m 1
 234 18 l 1
 257 104 l 1
 90 104 l 1
 90 204 l 1
 284 204 l 1
 311 304 l 1
 90 304 l 1
 90 404 l 1
 337 404 l 1
 364 503 l 1
 90 503 l 1
 90 603 l 1
 391 603 l 1
 420 712 l 1
 506 689 l 1
 483 603 l 1
 650 603 l 1
 650 707 l 1
 750 707 l 1
 750 0 l 1
 650 0 l 1
 650 104 l 1
 350 104 l 1
 321 -5 l 1
EndSplineSet
EndChar
